%TF.GenerationSoftware,KiCad,Pcbnew,9.0.2*%
%TF.CreationDate,2025-12-18T18:42:25-03:00*%
%TF.ProjectId,Prometheus,50726f6d-6574-4686-9575-732e6b696361,2025-11-29*%
%TF.SameCoordinates,Original*%
%TF.FileFunction,Copper,L1,Top*%
%TF.FilePolarity,Positive*%
%FSLAX46Y46*%
G04 Gerber Fmt 4.6, Leading zero omitted, Abs format (unit mm)*
G04 Created by KiCad (PCBNEW 9.0.2) date 2025-12-18 18:42:25*
%MOMM*%
%LPD*%
G01*
G04 APERTURE LIST*
G04 Aperture macros list*
%AMRoundRect*
0 Rectangle with rounded corners*
0 $1 Rounding radius*
0 $2 $3 $4 $5 $6 $7 $8 $9 X,Y pos of 4 corners*
0 Add a 4 corners polygon primitive as box body*
4,1,4,$2,$3,$4,$5,$6,$7,$8,$9,$2,$3,0*
0 Add four circle primitives for the rounded corners*
1,1,$1+$1,$2,$3*
1,1,$1+$1,$4,$5*
1,1,$1+$1,$6,$7*
1,1,$1+$1,$8,$9*
0 Add four rect primitives between the rounded corners*
20,1,$1+$1,$2,$3,$4,$5,0*
20,1,$1+$1,$4,$5,$6,$7,0*
20,1,$1+$1,$6,$7,$8,$9,0*
20,1,$1+$1,$8,$9,$2,$3,0*%
G04 Aperture macros list end*
%TA.AperFunction,ComponentPad*%
%ADD10R,1.700000X1.700000*%
%TD*%
%TA.AperFunction,ComponentPad*%
%ADD11C,1.700000*%
%TD*%
%TA.AperFunction,ComponentPad*%
%ADD12C,1.600000*%
%TD*%
%TA.AperFunction,ComponentPad*%
%ADD13C,1.397000*%
%TD*%
%TA.AperFunction,ComponentPad*%
%ADD14R,3.500000X3.500000*%
%TD*%
%TA.AperFunction,ComponentPad*%
%ADD15RoundRect,0.750000X-0.750000X-1.000000X0.750000X-1.000000X0.750000X1.000000X-0.750000X1.000000X0*%
%TD*%
%TA.AperFunction,ComponentPad*%
%ADD16RoundRect,0.875000X-0.875000X-0.875000X0.875000X-0.875000X0.875000X0.875000X-0.875000X0.875000X0*%
%TD*%
%TA.AperFunction,ComponentPad*%
%ADD17R,2.000000X1.905000*%
%TD*%
%TA.AperFunction,ComponentPad*%
%ADD18O,2.000000X1.905000*%
%TD*%
%TA.AperFunction,ComponentPad*%
%ADD19C,1.500000*%
%TD*%
%TA.AperFunction,ComponentPad*%
%ADD20R,1.800000X1.800000*%
%TD*%
%TA.AperFunction,ComponentPad*%
%ADD21C,1.800000*%
%TD*%
%TA.AperFunction,ComponentPad*%
%ADD22RoundRect,0.250000X-1.050000X1.050000X-1.050000X-1.050000X1.050000X-1.050000X1.050000X1.050000X0*%
%TD*%
%TA.AperFunction,ComponentPad*%
%ADD23C,2.600000*%
%TD*%
%TA.AperFunction,ComponentPad*%
%ADD24RoundRect,0.250000X0.550000X-0.550000X0.550000X0.550000X-0.550000X0.550000X-0.550000X-0.550000X0*%
%TD*%
%TA.AperFunction,ViaPad*%
%ADD25C,1.600000*%
%TD*%
%TA.AperFunction,Conductor*%
%ADD26C,1.000000*%
%TD*%
%TA.AperFunction,Conductor*%
%ADD27C,0.500000*%
%TD*%
%TA.AperFunction,Profile*%
%ADD28C,0.050000*%
%TD*%
G04 APERTURE END LIST*
D10*
%TO.P,J4,1,Pin_1*%
%TO.N,/SCK*%
X164575000Y-80515000D03*
D11*
%TO.P,J4,2,Pin_2*%
%TO.N,/MISO*%
X167115000Y-80515000D03*
%TO.P,J4,3,Pin_3*%
%TO.N,/MOSI*%
X169655000Y-80515000D03*
%TO.P,J4,4,Pin_4*%
%TO.N,/PB2*%
X172195000Y-80515000D03*
%TO.P,J4,5,Pin_5*%
%TO.N,/PB1*%
X174735000Y-80515000D03*
%TO.P,J4,6,Pin_6*%
%TO.N,/PB0*%
X177275000Y-80515000D03*
%TD*%
D12*
%TO.P,R3,1*%
%TO.N,/SCK*%
X162010000Y-75540000D03*
%TO.P,R3,2*%
%TO.N,Net-(D2-A)*%
X154390000Y-75540000D03*
%TD*%
%TO.P,C2,1*%
%TO.N,/XTAL1*%
X162030000Y-106540000D03*
%TO.P,C2,2*%
%TO.N,GND*%
X162030000Y-111540000D03*
%TD*%
D13*
%TO.P,SW1,1,1*%
%TO.N,GND*%
X129090000Y-97000000D03*
X136710000Y-97000000D03*
%TO.P,SW1,2,2*%
%TO.N,/RST*%
X129090000Y-102080000D03*
X136710000Y-102080000D03*
%TD*%
D14*
%TO.P,J6,1*%
%TO.N,VCC*%
X127972500Y-110727500D03*
D15*
%TO.P,J6,2*%
%TO.N,GND*%
X121972500Y-110727500D03*
D16*
%TO.P,J6,3*%
%TO.N,unconnected-(J6-Pad3)*%
X124972500Y-115427500D03*
%TD*%
D10*
%TO.P,J1,1,Pin_1*%
%TO.N,Net-(J1-Pin_1)*%
X140525000Y-112515000D03*
D11*
%TO.P,J1,2,Pin_2*%
%TO.N,Net-(J1-Pin_2)*%
X143065000Y-112515000D03*
%TO.P,J1,3,Pin_3*%
%TO.N,Net-(J1-Pin_3)*%
X145605000Y-112515000D03*
%TO.P,J1,4,Pin_4*%
%TO.N,Net-(J1-Pin_4)*%
X148145000Y-112515000D03*
%TO.P,J1,5,Pin_5*%
%TO.N,Net-(J1-Pin_5)*%
X150685000Y-112515000D03*
%TO.P,J1,6,Pin_6*%
%TO.N,Net-(J1-Pin_6)*%
X153225000Y-112515000D03*
%TO.P,J1,7,Pin_7*%
%TO.N,Net-(J1-Pin_7)*%
X155765000Y-112515000D03*
%TO.P,J1,8,Pin_8*%
%TO.N,Net-(J1-Pin_8)*%
X158305000Y-112515000D03*
%TD*%
D12*
%TO.P,R1,1*%
%TO.N,+5V*%
X149450000Y-101540000D03*
%TO.P,R1,2*%
%TO.N,/RST*%
X141830000Y-101540000D03*
%TD*%
D17*
%TO.P,U2,1,VI*%
%TO.N,VCC*%
X124750000Y-85080000D03*
D18*
%TO.P,U2,2,GND*%
%TO.N,GND*%
X124750000Y-82540000D03*
%TO.P,U2,3,VO*%
%TO.N,+5V*%
X124750000Y-80000000D03*
%TD*%
D10*
%TO.P,J3,1,Pin_1*%
%TO.N,Net-(J3-Pin_1)*%
X141820000Y-80540000D03*
D11*
%TO.P,J3,2,Pin_2*%
%TO.N,Net-(J3-Pin_2)*%
X144360000Y-80540000D03*
%TO.P,J3,3,Pin_3*%
%TO.N,Net-(J3-Pin_3)*%
X146900000Y-80540000D03*
%TO.P,J3,4,Pin_4*%
%TO.N,Net-(J3-Pin_4)*%
X149440000Y-80540000D03*
%TO.P,J3,5,Pin_5*%
%TO.N,Net-(J3-Pin_5)*%
X151980000Y-80540000D03*
%TO.P,J3,6,Pin_6*%
%TO.N,Net-(J3-Pin_6)*%
X154520000Y-80540000D03*
%TD*%
D12*
%TO.P,C1,1*%
%TO.N,/XTAL2*%
X167030000Y-106540000D03*
%TO.P,C1,2*%
%TO.N,GND*%
X167030000Y-111540000D03*
%TD*%
%TO.P,R2,1*%
%TO.N,+5V*%
X129900000Y-77730000D03*
%TO.P,R2,2*%
%TO.N,Net-(D1-A)*%
X129900000Y-85350000D03*
%TD*%
%TO.P,C6,1*%
%TO.N,VCC*%
X125300000Y-90540000D03*
%TO.P,C6,2*%
%TO.N,GND*%
X120300000Y-90540000D03*
%TD*%
%TO.P,C3,1*%
%TO.N,VCC*%
X118800000Y-86540000D03*
%TO.P,C3,2*%
%TO.N,GND*%
X116800000Y-86540000D03*
%TD*%
D19*
%TO.P,Y1,1,1*%
%TO.N,/XTAL2*%
X167030000Y-101040000D03*
%TO.P,Y1,2,2*%
%TO.N,/XTAL1*%
X162150000Y-101040000D03*
%TD*%
D10*
%TO.P,J2,1,Pin_1*%
%TO.N,/RST*%
X185230000Y-112540000D03*
D11*
%TO.P,J2,2,Pin_2*%
%TO.N,+5V*%
X182690000Y-112540000D03*
%TO.P,J2,3,Pin_3*%
X180150000Y-112540000D03*
%TO.P,J2,4,Pin_4*%
%TO.N,GND*%
X177610000Y-112540000D03*
%TO.P,J2,5,Pin_5*%
X175070000Y-112540000D03*
%TO.P,J2,6,Pin_6*%
%TO.N,VCC*%
X172530000Y-112540000D03*
%TD*%
D20*
%TO.P,D1,1,K*%
%TO.N,GND*%
X130900000Y-91540000D03*
D21*
%TO.P,D1,2,A*%
%TO.N,Net-(D1-A)*%
X130900000Y-89000000D03*
%TD*%
D12*
%TO.P,C5,1*%
%TO.N,+5V*%
X125300000Y-74540000D03*
%TO.P,C5,2*%
%TO.N,GND*%
X120300000Y-74540000D03*
%TD*%
D10*
%TO.P,J5,1,Pin_1*%
%TO.N,/MISO*%
X182510000Y-90990000D03*
D11*
%TO.P,J5,2,Pin_2*%
%TO.N,GND*%
X185050000Y-90990000D03*
%TO.P,J5,3,Pin_3*%
%TO.N,/SCK*%
X182510000Y-88450000D03*
%TO.P,J5,4,Pin_4*%
%TO.N,GND*%
X185050000Y-88450000D03*
%TO.P,J5,5,Pin_5*%
%TO.N,/RST*%
X182510000Y-85910000D03*
%TO.P,J5,6,Pin_6*%
%TO.N,GND*%
X185050000Y-85910000D03*
%TO.P,J5,7,Pin_7*%
%TO.N,unconnected-(J5-Pin_7-Pad7)*%
X182510000Y-83370000D03*
%TO.P,J5,8,Pin_8*%
%TO.N,GND*%
X185050000Y-83370000D03*
%TO.P,J5,9,Pin_9*%
%TO.N,/MOSI*%
X182510000Y-80830000D03*
%TO.P,J5,10,Pin_10*%
%TO.N,+5V*%
X185050000Y-80830000D03*
%TD*%
D22*
%TO.P,J7,1,Pin_1*%
%TO.N,VCC*%
X119300000Y-96760000D03*
D23*
%TO.P,J7,2,Pin_2*%
%TO.N,GND*%
X119300000Y-101840000D03*
%TD*%
D12*
%TO.P,C4,1*%
%TO.N,+5V*%
X118800000Y-78540000D03*
%TO.P,C4,2*%
%TO.N,GND*%
X116800000Y-78540000D03*
%TD*%
D24*
%TO.P,U1,1,~{RESET}/PC6*%
%TO.N,/RST*%
X141820000Y-95540000D03*
D12*
%TO.P,U1,2,PD0*%
%TO.N,Net-(J1-Pin_1)*%
X144360000Y-95540000D03*
%TO.P,U1,3,PD1*%
%TO.N,Net-(J1-Pin_2)*%
X146900000Y-95540000D03*
%TO.P,U1,4,PD2*%
%TO.N,Net-(J1-Pin_3)*%
X149440000Y-95540000D03*
%TO.P,U1,5,PD3*%
%TO.N,Net-(J1-Pin_4)*%
X151980000Y-95540000D03*
%TO.P,U1,6,PD4*%
%TO.N,Net-(J1-Pin_5)*%
X154520000Y-95540000D03*
%TO.P,U1,7,VCC*%
%TO.N,+5V*%
X157060000Y-95540000D03*
%TO.P,U1,8,GND*%
%TO.N,GND*%
X159600000Y-95540000D03*
%TO.P,U1,9,XTAL1/PB6*%
%TO.N,/XTAL1*%
X162140000Y-95540000D03*
%TO.P,U1,10,XTAL2/PB7*%
%TO.N,/XTAL2*%
X164680000Y-95540000D03*
%TO.P,U1,11,PD5*%
%TO.N,Net-(J1-Pin_6)*%
X167220000Y-95540000D03*
%TO.P,U1,12,PD6*%
%TO.N,Net-(J1-Pin_7)*%
X169760000Y-95540000D03*
%TO.P,U1,13,PD7*%
%TO.N,Net-(J1-Pin_8)*%
X172300000Y-95540000D03*
%TO.P,U1,14,PB0*%
%TO.N,/PB0*%
X174840000Y-95540000D03*
%TO.P,U1,15,PB1*%
%TO.N,/PB1*%
X174840000Y-87920000D03*
%TO.P,U1,16,PB2*%
%TO.N,/PB2*%
X172300000Y-87920000D03*
%TO.P,U1,17,PB3*%
%TO.N,/MOSI*%
X169760000Y-87920000D03*
%TO.P,U1,18,PB4*%
%TO.N,/MISO*%
X167220000Y-87920000D03*
%TO.P,U1,19,PB5*%
%TO.N,/SCK*%
X164680000Y-87920000D03*
%TO.P,U1,20,AVCC*%
%TO.N,+5V*%
X162140000Y-87920000D03*
%TO.P,U1,21,AREF*%
X159600000Y-87920000D03*
%TO.P,U1,22,GND*%
%TO.N,GND*%
X157060000Y-87920000D03*
%TO.P,U1,23,PC0*%
%TO.N,Net-(J3-Pin_6)*%
X154520000Y-87920000D03*
%TO.P,U1,24,PC1*%
%TO.N,Net-(J3-Pin_5)*%
X151980000Y-87920000D03*
%TO.P,U1,25,PC2*%
%TO.N,Net-(J3-Pin_4)*%
X149440000Y-87920000D03*
%TO.P,U1,26,PC3*%
%TO.N,Net-(J3-Pin_3)*%
X146900000Y-87920000D03*
%TO.P,U1,27,PC4*%
%TO.N,Net-(J3-Pin_2)*%
X144360000Y-87920000D03*
%TO.P,U1,28,PC5*%
%TO.N,Net-(J3-Pin_1)*%
X141820000Y-87920000D03*
%TD*%
D20*
%TO.P,D2,1,K*%
%TO.N,GND*%
X158225000Y-82840000D03*
D21*
%TO.P,D2,2,A*%
%TO.N,Net-(D2-A)*%
X160765000Y-82840000D03*
%TD*%
D25*
%TO.N,GND*%
X161500000Y-90140000D03*
X156100000Y-90140000D03*
%TO.N,+5V*%
X180150000Y-108290000D03*
X158400000Y-106790000D03*
%TO.N,/RST*%
X185300000Y-109740000D03*
X141800000Y-104740000D03*
X178525000Y-85840000D03*
%TO.N,/PB0*%
X177275000Y-88340000D03*
X177300000Y-95540000D03*
%TO.N,/SCK*%
X179900000Y-88540000D03*
X179900000Y-93340000D03*
%TD*%
D26*
%TO.N,GND*%
X161500000Y-90140000D02*
X156100000Y-90140000D01*
%TO.N,+5V*%
X180150000Y-108290000D02*
X159900000Y-108290000D01*
X159900000Y-108290000D02*
X158400000Y-106790000D01*
D27*
%TO.N,/RST*%
X178595000Y-85910000D02*
X178525000Y-85840000D01*
X184500000Y-104740000D02*
X177800000Y-104740000D01*
X177800000Y-104740000D02*
X141800000Y-104740000D01*
X178551000Y-104740000D02*
X177800000Y-104740000D01*
X178525000Y-86063000D02*
X178551000Y-86089000D01*
X178525000Y-85840000D02*
X178525000Y-86063000D01*
X178551000Y-86089000D02*
X178551000Y-104740000D01*
X185300000Y-105540000D02*
X184500000Y-104740000D01*
X185300000Y-109740000D02*
X185300000Y-105540000D01*
%TO.N,/PB0*%
X177300000Y-88365000D02*
X177275000Y-88340000D01*
X177300000Y-95540000D02*
X177300000Y-88365000D01*
%TO.N,/SCK*%
X179990000Y-88450000D02*
X179900000Y-88540000D01*
X179900000Y-93340000D02*
X179900000Y-88540000D01*
%TD*%
D28*
X190900000Y-117740000D02*
X190900000Y-71440000D01*
X190900000Y-71440000D02*
X112800000Y-71440000D01*
X112800000Y-71440000D02*
X112800000Y-117740000D01*
X112800000Y-117740000D02*
X190900000Y-117740000D01*
M02*
