%TF.GenerationSoftware,KiCad,Pcbnew,9.0.2*%
%TF.CreationDate,2025-12-18T18:42:25-03:00*%
%TF.ProjectId,Prometheus,50726f6d-6574-4686-9575-732e6b696361,2025-11-29*%
%TF.SameCoordinates,Original*%
%TF.FileFunction,Legend,Top*%
%TF.FilePolarity,Positive*%
%FSLAX46Y46*%
G04 Gerber Fmt 4.6, Leading zero omitted, Abs format (unit mm)*
G04 Created by KiCad (PCBNEW 9.0.2) date 2025-12-18 18:42:25*
%MOMM*%
%LPD*%
G01*
G04 APERTURE LIST*
%ADD10C,0.100000*%
%ADD11C,0.200000*%
%ADD12C,0.150000*%
%ADD13C,0.120000*%
%TA.AperFunction,Profile*%
%ADD14C,0.050000*%
%TD*%
G04 APERTURE END LIST*
D10*
X179150000Y-114540000D02*
X182650000Y-114540000D01*
X173650000Y-114540000D02*
X178150000Y-114540000D01*
X187157419Y-89087618D02*
X187966942Y-89087618D01*
X187966942Y-89087618D02*
X188062180Y-89039999D01*
X188062180Y-89039999D02*
X188109800Y-88992380D01*
X188109800Y-88992380D02*
X188157419Y-88897142D01*
X188157419Y-88897142D02*
X188157419Y-88706666D01*
X188157419Y-88706666D02*
X188109800Y-88611428D01*
X188109800Y-88611428D02*
X188062180Y-88563809D01*
X188062180Y-88563809D02*
X187966942Y-88516190D01*
X187966942Y-88516190D02*
X187157419Y-88516190D01*
X188109800Y-88087618D02*
X188157419Y-87944761D01*
X188157419Y-87944761D02*
X188157419Y-87706666D01*
X188157419Y-87706666D02*
X188109800Y-87611428D01*
X188109800Y-87611428D02*
X188062180Y-87563809D01*
X188062180Y-87563809D02*
X187966942Y-87516190D01*
X187966942Y-87516190D02*
X187871704Y-87516190D01*
X187871704Y-87516190D02*
X187776466Y-87563809D01*
X187776466Y-87563809D02*
X187728847Y-87611428D01*
X187728847Y-87611428D02*
X187681228Y-87706666D01*
X187681228Y-87706666D02*
X187633609Y-87897142D01*
X187633609Y-87897142D02*
X187585990Y-87992380D01*
X187585990Y-87992380D02*
X187538371Y-88039999D01*
X187538371Y-88039999D02*
X187443133Y-88087618D01*
X187443133Y-88087618D02*
X187347895Y-88087618D01*
X187347895Y-88087618D02*
X187252657Y-88039999D01*
X187252657Y-88039999D02*
X187205038Y-87992380D01*
X187205038Y-87992380D02*
X187157419Y-87897142D01*
X187157419Y-87897142D02*
X187157419Y-87659047D01*
X187157419Y-87659047D02*
X187205038Y-87516190D01*
X187633609Y-86754285D02*
X187681228Y-86611428D01*
X187681228Y-86611428D02*
X187728847Y-86563809D01*
X187728847Y-86563809D02*
X187824085Y-86516190D01*
X187824085Y-86516190D02*
X187966942Y-86516190D01*
X187966942Y-86516190D02*
X188062180Y-86563809D01*
X188062180Y-86563809D02*
X188109800Y-86611428D01*
X188109800Y-86611428D02*
X188157419Y-86706666D01*
X188157419Y-86706666D02*
X188157419Y-87087618D01*
X188157419Y-87087618D02*
X187157419Y-87087618D01*
X187157419Y-87087618D02*
X187157419Y-86754285D01*
X187157419Y-86754285D02*
X187205038Y-86659047D01*
X187205038Y-86659047D02*
X187252657Y-86611428D01*
X187252657Y-86611428D02*
X187347895Y-86563809D01*
X187347895Y-86563809D02*
X187443133Y-86563809D01*
X187443133Y-86563809D02*
X187538371Y-86611428D01*
X187538371Y-86611428D02*
X187585990Y-86659047D01*
X187585990Y-86659047D02*
X187633609Y-86754285D01*
X187633609Y-86754285D02*
X187633609Y-87087618D01*
X187871704Y-85373332D02*
X187871704Y-84897142D01*
X188157419Y-85468570D02*
X187157419Y-85135237D01*
X187157419Y-85135237D02*
X188157419Y-84801904D01*
X188109800Y-84516189D02*
X188157419Y-84373332D01*
X188157419Y-84373332D02*
X188157419Y-84135237D01*
X188157419Y-84135237D02*
X188109800Y-84039999D01*
X188109800Y-84039999D02*
X188062180Y-83992380D01*
X188062180Y-83992380D02*
X187966942Y-83944761D01*
X187966942Y-83944761D02*
X187871704Y-83944761D01*
X187871704Y-83944761D02*
X187776466Y-83992380D01*
X187776466Y-83992380D02*
X187728847Y-84039999D01*
X187728847Y-84039999D02*
X187681228Y-84135237D01*
X187681228Y-84135237D02*
X187633609Y-84325713D01*
X187633609Y-84325713D02*
X187585990Y-84420951D01*
X187585990Y-84420951D02*
X187538371Y-84468570D01*
X187538371Y-84468570D02*
X187443133Y-84516189D01*
X187443133Y-84516189D02*
X187347895Y-84516189D01*
X187347895Y-84516189D02*
X187252657Y-84468570D01*
X187252657Y-84468570D02*
X187205038Y-84420951D01*
X187205038Y-84420951D02*
X187157419Y-84325713D01*
X187157419Y-84325713D02*
X187157419Y-84087618D01*
X187157419Y-84087618D02*
X187205038Y-83944761D01*
X188157419Y-83516189D02*
X187157419Y-83516189D01*
X187157419Y-83516189D02*
X187157419Y-83135237D01*
X187157419Y-83135237D02*
X187205038Y-83039999D01*
X187205038Y-83039999D02*
X187252657Y-82992380D01*
X187252657Y-82992380D02*
X187347895Y-82944761D01*
X187347895Y-82944761D02*
X187490752Y-82944761D01*
X187490752Y-82944761D02*
X187585990Y-82992380D01*
X187585990Y-82992380D02*
X187633609Y-83039999D01*
X187633609Y-83039999D02*
X187681228Y-83135237D01*
X187681228Y-83135237D02*
X187681228Y-83516189D01*
X170057419Y-78278094D02*
X169057419Y-78278094D01*
X169057419Y-78278094D02*
X169057419Y-77897142D01*
X169057419Y-77897142D02*
X169105038Y-77801904D01*
X169105038Y-77801904D02*
X169152657Y-77754285D01*
X169152657Y-77754285D02*
X169247895Y-77706666D01*
X169247895Y-77706666D02*
X169390752Y-77706666D01*
X169390752Y-77706666D02*
X169485990Y-77754285D01*
X169485990Y-77754285D02*
X169533609Y-77801904D01*
X169533609Y-77801904D02*
X169581228Y-77897142D01*
X169581228Y-77897142D02*
X169581228Y-78278094D01*
X169533609Y-76944761D02*
X169581228Y-76801904D01*
X169581228Y-76801904D02*
X169628847Y-76754285D01*
X169628847Y-76754285D02*
X169724085Y-76706666D01*
X169724085Y-76706666D02*
X169866942Y-76706666D01*
X169866942Y-76706666D02*
X169962180Y-76754285D01*
X169962180Y-76754285D02*
X170009800Y-76801904D01*
X170009800Y-76801904D02*
X170057419Y-76897142D01*
X170057419Y-76897142D02*
X170057419Y-77278094D01*
X170057419Y-77278094D02*
X169057419Y-77278094D01*
X169057419Y-77278094D02*
X169057419Y-76944761D01*
X169057419Y-76944761D02*
X169105038Y-76849523D01*
X169105038Y-76849523D02*
X169152657Y-76801904D01*
X169152657Y-76801904D02*
X169247895Y-76754285D01*
X169247895Y-76754285D02*
X169343133Y-76754285D01*
X169343133Y-76754285D02*
X169438371Y-76801904D01*
X169438371Y-76801904D02*
X169485990Y-76849523D01*
X169485990Y-76849523D02*
X169533609Y-76944761D01*
X169533609Y-76944761D02*
X169533609Y-77278094D01*
X169057419Y-76373332D02*
X169057419Y-75754285D01*
X169057419Y-75754285D02*
X169438371Y-76087618D01*
X169438371Y-76087618D02*
X169438371Y-75944761D01*
X169438371Y-75944761D02*
X169485990Y-75849523D01*
X169485990Y-75849523D02*
X169533609Y-75801904D01*
X169533609Y-75801904D02*
X169628847Y-75754285D01*
X169628847Y-75754285D02*
X169866942Y-75754285D01*
X169866942Y-75754285D02*
X169962180Y-75801904D01*
X169962180Y-75801904D02*
X170009800Y-75849523D01*
X170009800Y-75849523D02*
X170057419Y-75944761D01*
X170057419Y-75944761D02*
X170057419Y-76230475D01*
X170057419Y-76230475D02*
X170009800Y-76325713D01*
X170009800Y-76325713D02*
X169962180Y-76373332D01*
X175357419Y-78278094D02*
X174357419Y-78278094D01*
X174357419Y-78278094D02*
X174357419Y-77897142D01*
X174357419Y-77897142D02*
X174405038Y-77801904D01*
X174405038Y-77801904D02*
X174452657Y-77754285D01*
X174452657Y-77754285D02*
X174547895Y-77706666D01*
X174547895Y-77706666D02*
X174690752Y-77706666D01*
X174690752Y-77706666D02*
X174785990Y-77754285D01*
X174785990Y-77754285D02*
X174833609Y-77801904D01*
X174833609Y-77801904D02*
X174881228Y-77897142D01*
X174881228Y-77897142D02*
X174881228Y-78278094D01*
X174833609Y-76944761D02*
X174881228Y-76801904D01*
X174881228Y-76801904D02*
X174928847Y-76754285D01*
X174928847Y-76754285D02*
X175024085Y-76706666D01*
X175024085Y-76706666D02*
X175166942Y-76706666D01*
X175166942Y-76706666D02*
X175262180Y-76754285D01*
X175262180Y-76754285D02*
X175309800Y-76801904D01*
X175309800Y-76801904D02*
X175357419Y-76897142D01*
X175357419Y-76897142D02*
X175357419Y-77278094D01*
X175357419Y-77278094D02*
X174357419Y-77278094D01*
X174357419Y-77278094D02*
X174357419Y-76944761D01*
X174357419Y-76944761D02*
X174405038Y-76849523D01*
X174405038Y-76849523D02*
X174452657Y-76801904D01*
X174452657Y-76801904D02*
X174547895Y-76754285D01*
X174547895Y-76754285D02*
X174643133Y-76754285D01*
X174643133Y-76754285D02*
X174738371Y-76801904D01*
X174738371Y-76801904D02*
X174785990Y-76849523D01*
X174785990Y-76849523D02*
X174833609Y-76944761D01*
X174833609Y-76944761D02*
X174833609Y-77278094D01*
X175357419Y-75754285D02*
X175357419Y-76325713D01*
X175357419Y-76039999D02*
X174357419Y-76039999D01*
X174357419Y-76039999D02*
X174500276Y-76135237D01*
X174500276Y-76135237D02*
X174595514Y-76230475D01*
X174595514Y-76230475D02*
X174643133Y-76325713D01*
D11*
X125580268Y-96252933D02*
X127104078Y-96252933D01*
X126342173Y-97014838D02*
X126342173Y-95491028D01*
D10*
X177857419Y-78278094D02*
X176857419Y-78278094D01*
X176857419Y-78278094D02*
X176857419Y-77897142D01*
X176857419Y-77897142D02*
X176905038Y-77801904D01*
X176905038Y-77801904D02*
X176952657Y-77754285D01*
X176952657Y-77754285D02*
X177047895Y-77706666D01*
X177047895Y-77706666D02*
X177190752Y-77706666D01*
X177190752Y-77706666D02*
X177285990Y-77754285D01*
X177285990Y-77754285D02*
X177333609Y-77801904D01*
X177333609Y-77801904D02*
X177381228Y-77897142D01*
X177381228Y-77897142D02*
X177381228Y-78278094D01*
X177333609Y-76944761D02*
X177381228Y-76801904D01*
X177381228Y-76801904D02*
X177428847Y-76754285D01*
X177428847Y-76754285D02*
X177524085Y-76706666D01*
X177524085Y-76706666D02*
X177666942Y-76706666D01*
X177666942Y-76706666D02*
X177762180Y-76754285D01*
X177762180Y-76754285D02*
X177809800Y-76801904D01*
X177809800Y-76801904D02*
X177857419Y-76897142D01*
X177857419Y-76897142D02*
X177857419Y-77278094D01*
X177857419Y-77278094D02*
X176857419Y-77278094D01*
X176857419Y-77278094D02*
X176857419Y-76944761D01*
X176857419Y-76944761D02*
X176905038Y-76849523D01*
X176905038Y-76849523D02*
X176952657Y-76801904D01*
X176952657Y-76801904D02*
X177047895Y-76754285D01*
X177047895Y-76754285D02*
X177143133Y-76754285D01*
X177143133Y-76754285D02*
X177238371Y-76801904D01*
X177238371Y-76801904D02*
X177285990Y-76849523D01*
X177285990Y-76849523D02*
X177333609Y-76944761D01*
X177333609Y-76944761D02*
X177333609Y-77278094D01*
X176857419Y-76087618D02*
X176857419Y-75992380D01*
X176857419Y-75992380D02*
X176905038Y-75897142D01*
X176905038Y-75897142D02*
X176952657Y-75849523D01*
X176952657Y-75849523D02*
X177047895Y-75801904D01*
X177047895Y-75801904D02*
X177238371Y-75754285D01*
X177238371Y-75754285D02*
X177476466Y-75754285D01*
X177476466Y-75754285D02*
X177666942Y-75801904D01*
X177666942Y-75801904D02*
X177762180Y-75849523D01*
X177762180Y-75849523D02*
X177809800Y-75897142D01*
X177809800Y-75897142D02*
X177857419Y-75992380D01*
X177857419Y-75992380D02*
X177857419Y-76087618D01*
X177857419Y-76087618D02*
X177809800Y-76182856D01*
X177809800Y-76182856D02*
X177762180Y-76230475D01*
X177762180Y-76230475D02*
X177666942Y-76278094D01*
X177666942Y-76278094D02*
X177476466Y-76325713D01*
X177476466Y-76325713D02*
X177238371Y-76325713D01*
X177238371Y-76325713D02*
X177047895Y-76278094D01*
X177047895Y-76278094D02*
X176952657Y-76230475D01*
X176952657Y-76230475D02*
X176905038Y-76182856D01*
X176905038Y-76182856D02*
X176857419Y-76087618D01*
X167607419Y-78278094D02*
X166607419Y-78278094D01*
X166607419Y-78278094D02*
X166607419Y-77897142D01*
X166607419Y-77897142D02*
X166655038Y-77801904D01*
X166655038Y-77801904D02*
X166702657Y-77754285D01*
X166702657Y-77754285D02*
X166797895Y-77706666D01*
X166797895Y-77706666D02*
X166940752Y-77706666D01*
X166940752Y-77706666D02*
X167035990Y-77754285D01*
X167035990Y-77754285D02*
X167083609Y-77801904D01*
X167083609Y-77801904D02*
X167131228Y-77897142D01*
X167131228Y-77897142D02*
X167131228Y-78278094D01*
X167083609Y-76944761D02*
X167131228Y-76801904D01*
X167131228Y-76801904D02*
X167178847Y-76754285D01*
X167178847Y-76754285D02*
X167274085Y-76706666D01*
X167274085Y-76706666D02*
X167416942Y-76706666D01*
X167416942Y-76706666D02*
X167512180Y-76754285D01*
X167512180Y-76754285D02*
X167559800Y-76801904D01*
X167559800Y-76801904D02*
X167607419Y-76897142D01*
X167607419Y-76897142D02*
X167607419Y-77278094D01*
X167607419Y-77278094D02*
X166607419Y-77278094D01*
X166607419Y-77278094D02*
X166607419Y-76944761D01*
X166607419Y-76944761D02*
X166655038Y-76849523D01*
X166655038Y-76849523D02*
X166702657Y-76801904D01*
X166702657Y-76801904D02*
X166797895Y-76754285D01*
X166797895Y-76754285D02*
X166893133Y-76754285D01*
X166893133Y-76754285D02*
X166988371Y-76801904D01*
X166988371Y-76801904D02*
X167035990Y-76849523D01*
X167035990Y-76849523D02*
X167083609Y-76944761D01*
X167083609Y-76944761D02*
X167083609Y-77278094D01*
X166940752Y-75849523D02*
X167607419Y-75849523D01*
X166559800Y-76087618D02*
X167274085Y-76325713D01*
X167274085Y-76325713D02*
X167274085Y-75706666D01*
X149757419Y-84778094D02*
X148757419Y-84778094D01*
X148757419Y-84778094D02*
X148757419Y-84397142D01*
X148757419Y-84397142D02*
X148805038Y-84301904D01*
X148805038Y-84301904D02*
X148852657Y-84254285D01*
X148852657Y-84254285D02*
X148947895Y-84206666D01*
X148947895Y-84206666D02*
X149090752Y-84206666D01*
X149090752Y-84206666D02*
X149185990Y-84254285D01*
X149185990Y-84254285D02*
X149233609Y-84301904D01*
X149233609Y-84301904D02*
X149281228Y-84397142D01*
X149281228Y-84397142D02*
X149281228Y-84778094D01*
X149662180Y-83206666D02*
X149709800Y-83254285D01*
X149709800Y-83254285D02*
X149757419Y-83397142D01*
X149757419Y-83397142D02*
X149757419Y-83492380D01*
X149757419Y-83492380D02*
X149709800Y-83635237D01*
X149709800Y-83635237D02*
X149614561Y-83730475D01*
X149614561Y-83730475D02*
X149519323Y-83778094D01*
X149519323Y-83778094D02*
X149328847Y-83825713D01*
X149328847Y-83825713D02*
X149185990Y-83825713D01*
X149185990Y-83825713D02*
X148995514Y-83778094D01*
X148995514Y-83778094D02*
X148900276Y-83730475D01*
X148900276Y-83730475D02*
X148805038Y-83635237D01*
X148805038Y-83635237D02*
X148757419Y-83492380D01*
X148757419Y-83492380D02*
X148757419Y-83397142D01*
X148757419Y-83397142D02*
X148805038Y-83254285D01*
X148805038Y-83254285D02*
X148852657Y-83206666D01*
X148852657Y-82825713D02*
X148805038Y-82778094D01*
X148805038Y-82778094D02*
X148757419Y-82682856D01*
X148757419Y-82682856D02*
X148757419Y-82444761D01*
X148757419Y-82444761D02*
X148805038Y-82349523D01*
X148805038Y-82349523D02*
X148852657Y-82301904D01*
X148852657Y-82301904D02*
X148947895Y-82254285D01*
X148947895Y-82254285D02*
X149043133Y-82254285D01*
X149043133Y-82254285D02*
X149185990Y-82301904D01*
X149185990Y-82301904D02*
X149757419Y-82873332D01*
X149757419Y-82873332D02*
X149757419Y-82254285D01*
D11*
X125580268Y-101252933D02*
X127104078Y-101252933D01*
D10*
X146107419Y-117028094D02*
X145107419Y-117028094D01*
X145107419Y-117028094D02*
X145107419Y-116647142D01*
X145107419Y-116647142D02*
X145155038Y-116551904D01*
X145155038Y-116551904D02*
X145202657Y-116504285D01*
X145202657Y-116504285D02*
X145297895Y-116456666D01*
X145297895Y-116456666D02*
X145440752Y-116456666D01*
X145440752Y-116456666D02*
X145535990Y-116504285D01*
X145535990Y-116504285D02*
X145583609Y-116551904D01*
X145583609Y-116551904D02*
X145631228Y-116647142D01*
X145631228Y-116647142D02*
X145631228Y-117028094D01*
X146107419Y-116028094D02*
X145107419Y-116028094D01*
X145107419Y-116028094D02*
X145107419Y-115789999D01*
X145107419Y-115789999D02*
X145155038Y-115647142D01*
X145155038Y-115647142D02*
X145250276Y-115551904D01*
X145250276Y-115551904D02*
X145345514Y-115504285D01*
X145345514Y-115504285D02*
X145535990Y-115456666D01*
X145535990Y-115456666D02*
X145678847Y-115456666D01*
X145678847Y-115456666D02*
X145869323Y-115504285D01*
X145869323Y-115504285D02*
X145964561Y-115551904D01*
X145964561Y-115551904D02*
X146059800Y-115647142D01*
X146059800Y-115647142D02*
X146107419Y-115789999D01*
X146107419Y-115789999D02*
X146107419Y-116028094D01*
X145202657Y-115075713D02*
X145155038Y-115028094D01*
X145155038Y-115028094D02*
X145107419Y-114932856D01*
X145107419Y-114932856D02*
X145107419Y-114694761D01*
X145107419Y-114694761D02*
X145155038Y-114599523D01*
X145155038Y-114599523D02*
X145202657Y-114551904D01*
X145202657Y-114551904D02*
X145297895Y-114504285D01*
X145297895Y-114504285D02*
X145393133Y-114504285D01*
X145393133Y-114504285D02*
X145535990Y-114551904D01*
X145535990Y-114551904D02*
X146107419Y-115123332D01*
X146107419Y-115123332D02*
X146107419Y-114504285D01*
D11*
G36*
X131418597Y-108515000D02*
G01*
X131200000Y-108515000D01*
X131200000Y-108296402D01*
X131200000Y-108077805D01*
X131200000Y-107859207D01*
X131200000Y-107640610D01*
X131200000Y-107422013D01*
X131200000Y-107203415D01*
X131200000Y-106984818D01*
X131200000Y-106766221D01*
X131200000Y-106547623D01*
X131200000Y-106329026D01*
X131200000Y-106110429D01*
X131200000Y-105891831D01*
X131418597Y-105891831D01*
X131637194Y-105891831D01*
X131855792Y-105891831D01*
X132074389Y-105891831D01*
X132292986Y-105891831D01*
X132511584Y-105891831D01*
X132730181Y-105891831D01*
X132948778Y-105891831D01*
X132948778Y-106110429D01*
X132948778Y-106329026D01*
X133167376Y-106329026D01*
X133385973Y-106329026D01*
X133385973Y-106547623D01*
X133385973Y-106766221D01*
X133167376Y-106766221D01*
X132948778Y-106766221D01*
X132948778Y-106547623D01*
X132948778Y-106329026D01*
X132730181Y-106329026D01*
X132511584Y-106329026D01*
X132292986Y-106329026D01*
X132074389Y-106329026D01*
X131855792Y-106329026D01*
X131637194Y-106329026D01*
X131637194Y-106547623D01*
X131637194Y-106766221D01*
X131855792Y-106766221D01*
X132074389Y-106766221D01*
X132292986Y-106766221D01*
X132511584Y-106766221D01*
X132730181Y-106766221D01*
X132948778Y-106766221D01*
X132948778Y-106984818D01*
X132948778Y-107203415D01*
X132730181Y-107203415D01*
X132511584Y-107203415D01*
X132292986Y-107203415D01*
X132074389Y-107203415D01*
X131855792Y-107203415D01*
X131637194Y-107203415D01*
X131637194Y-107422013D01*
X131637194Y-107640610D01*
X131637194Y-107859207D01*
X131637194Y-108077805D01*
X131637194Y-108296402D01*
X131637194Y-108515000D01*
X131418597Y-108515000D01*
G37*
G36*
X136010362Y-108515000D02*
G01*
X135791765Y-108515000D01*
X135791765Y-108296402D01*
X135791765Y-108077805D01*
X136010362Y-108077805D01*
X136228960Y-108077805D01*
X136228960Y-108296402D01*
X136228960Y-108515000D01*
X136010362Y-108515000D01*
G37*
G36*
X133824389Y-108515000D02*
G01*
X133605792Y-108515000D01*
X133605792Y-108296402D01*
X133605792Y-108077805D01*
X133605792Y-107859207D01*
X133605792Y-107640610D01*
X133605792Y-107422013D01*
X133605792Y-107203415D01*
X133605792Y-106984818D01*
X133605792Y-106766221D01*
X133605792Y-106547623D01*
X133605792Y-106329026D01*
X133605792Y-106110429D01*
X133605792Y-105891831D01*
X133824389Y-105891831D01*
X134042986Y-105891831D01*
X134261584Y-105891831D01*
X134480181Y-105891831D01*
X134698778Y-105891831D01*
X134917376Y-105891831D01*
X135135973Y-105891831D01*
X135354570Y-105891831D01*
X135573168Y-105891831D01*
X135573168Y-106110429D01*
X135573168Y-106329026D01*
X135791765Y-106329026D01*
X136010362Y-106329026D01*
X136010362Y-106547623D01*
X136010362Y-106766221D01*
X135791765Y-106766221D01*
X135573168Y-106766221D01*
X135573168Y-106547623D01*
X135573168Y-106329026D01*
X135354570Y-106329026D01*
X135135973Y-106329026D01*
X134917376Y-106329026D01*
X134698778Y-106329026D01*
X134480181Y-106329026D01*
X134261584Y-106329026D01*
X134042986Y-106329026D01*
X134042986Y-106547623D01*
X134042986Y-106766221D01*
X134261584Y-106766221D01*
X134480181Y-106766221D01*
X134698778Y-106766221D01*
X134917376Y-106766221D01*
X135135973Y-106766221D01*
X135354570Y-106766221D01*
X135573168Y-106766221D01*
X135573168Y-106984818D01*
X135573168Y-107203415D01*
X135354570Y-107203415D01*
X135354570Y-107422013D01*
X135354570Y-107640610D01*
X135573168Y-107640610D01*
X135791765Y-107640610D01*
X135791765Y-107859207D01*
X135791765Y-108077805D01*
X135573168Y-108077805D01*
X135354570Y-108077805D01*
X135354570Y-107859207D01*
X135354570Y-107640610D01*
X135135973Y-107640610D01*
X134917376Y-107640610D01*
X134917376Y-107422013D01*
X134917376Y-107203415D01*
X134698778Y-107203415D01*
X134480181Y-107203415D01*
X134261584Y-107203415D01*
X134042986Y-107203415D01*
X134042986Y-107422013D01*
X134042986Y-107640610D01*
X134042986Y-107859207D01*
X134042986Y-108077805D01*
X134042986Y-108296402D01*
X134042986Y-108515000D01*
X133824389Y-108515000D01*
G37*
G36*
X138416154Y-108515000D02*
G01*
X138197557Y-108515000D01*
X137978960Y-108515000D01*
X137760362Y-108515000D01*
X137541765Y-108515000D01*
X137323168Y-108515000D01*
X137104570Y-108515000D01*
X136885973Y-108515000D01*
X136885973Y-108296402D01*
X136885973Y-108077805D01*
X137104570Y-108077805D01*
X137323168Y-108077805D01*
X137541765Y-108077805D01*
X137760362Y-108077805D01*
X137978960Y-108077805D01*
X138197557Y-108077805D01*
X138416154Y-108077805D01*
X138634752Y-108077805D01*
X138634752Y-108296402D01*
X138634752Y-108515000D01*
X138416154Y-108515000D01*
G37*
G36*
X138634752Y-108077805D02*
G01*
X138634752Y-107859207D01*
X138634752Y-107640610D01*
X138634752Y-107422013D01*
X138634752Y-107203415D01*
X138634752Y-106984818D01*
X138634752Y-106766221D01*
X138634752Y-106547623D01*
X138634752Y-106329026D01*
X138853349Y-106329026D01*
X139071946Y-106329026D01*
X139071946Y-106547623D01*
X139071946Y-106766221D01*
X139071946Y-106984818D01*
X139071946Y-107203415D01*
X139071946Y-107422013D01*
X139071946Y-107640610D01*
X139071946Y-107859207D01*
X139071946Y-108077805D01*
X138853349Y-108077805D01*
X138634752Y-108077805D01*
G37*
G36*
X136885973Y-108077805D02*
G01*
X136667376Y-108077805D01*
X136448778Y-108077805D01*
X136448778Y-107859207D01*
X136448778Y-107640610D01*
X136448778Y-107422013D01*
X136448778Y-107203415D01*
X136448778Y-106984818D01*
X136448778Y-106766221D01*
X136448778Y-106547623D01*
X136448778Y-106329026D01*
X136667376Y-106329026D01*
X136885973Y-106329026D01*
X136885973Y-106547623D01*
X136885973Y-106766221D01*
X136885973Y-106984818D01*
X136885973Y-107203415D01*
X136885973Y-107422013D01*
X136885973Y-107640610D01*
X136885973Y-107859207D01*
X136885973Y-108077805D01*
G37*
G36*
X138634752Y-106329026D02*
G01*
X138416154Y-106329026D01*
X138197557Y-106329026D01*
X137978960Y-106329026D01*
X137760362Y-106329026D01*
X137541765Y-106329026D01*
X137323168Y-106329026D01*
X137104570Y-106329026D01*
X136885973Y-106329026D01*
X136885973Y-106110429D01*
X136885973Y-105891831D01*
X137104570Y-105891831D01*
X137323168Y-105891831D01*
X137541765Y-105891831D01*
X137760362Y-105891831D01*
X137978960Y-105891831D01*
X138197557Y-105891831D01*
X138416154Y-105891831D01*
X138634752Y-105891831D01*
X138634752Y-106110429D01*
X138634752Y-106329026D01*
G37*
G36*
X141259141Y-108515000D02*
G01*
X141040544Y-108515000D01*
X141040544Y-108296402D01*
X141040544Y-108077805D01*
X141040544Y-107859207D01*
X141040544Y-107640610D01*
X141040544Y-107422013D01*
X141040544Y-107203415D01*
X141040544Y-106984818D01*
X141040544Y-106766221D01*
X140821946Y-106766221D01*
X140603349Y-106766221D01*
X140603349Y-106984818D01*
X140603349Y-107203415D01*
X140384752Y-107203415D01*
X140166154Y-107203415D01*
X140166154Y-106984818D01*
X140166154Y-106766221D01*
X140384752Y-106766221D01*
X140603349Y-106766221D01*
X140603349Y-106547623D01*
X140603349Y-106329026D01*
X140821946Y-106329026D01*
X141040544Y-106329026D01*
X141040544Y-106110429D01*
X141040544Y-105891831D01*
X141259141Y-105891831D01*
X141477739Y-105891831D01*
X141477739Y-106110429D01*
X141477739Y-106329026D01*
X141477739Y-106547623D01*
X141477739Y-106766221D01*
X141477739Y-106984818D01*
X141477739Y-107203415D01*
X141477739Y-107422013D01*
X141477739Y-107640610D01*
X141477739Y-107859207D01*
X141477739Y-108077805D01*
X141477739Y-108296402D01*
X141477739Y-108515000D01*
X141259141Y-108515000D01*
G37*
G36*
X139510362Y-108515000D02*
G01*
X139291765Y-108515000D01*
X139291765Y-108296402D01*
X139291765Y-108077805D01*
X139291765Y-107859207D01*
X139291765Y-107640610D01*
X139291765Y-107422013D01*
X139291765Y-107203415D01*
X139291765Y-106984818D01*
X139291765Y-106766221D01*
X139291765Y-106547623D01*
X139291765Y-106329026D01*
X139291765Y-106110429D01*
X139291765Y-105891831D01*
X139510362Y-105891831D01*
X139728960Y-105891831D01*
X139728960Y-106110429D01*
X139728960Y-106329026D01*
X139947557Y-106329026D01*
X140166154Y-106329026D01*
X140166154Y-106547623D01*
X140166154Y-106766221D01*
X139947557Y-106766221D01*
X139728960Y-106766221D01*
X139728960Y-106984818D01*
X139728960Y-107203415D01*
X139728960Y-107422013D01*
X139728960Y-107640610D01*
X139728960Y-107859207D01*
X139728960Y-108077805D01*
X139728960Y-108296402D01*
X139728960Y-108515000D01*
X139510362Y-108515000D01*
G37*
G36*
X143664933Y-108515000D02*
G01*
X143446336Y-108515000D01*
X143227739Y-108515000D01*
X143009141Y-108515000D01*
X142790544Y-108515000D01*
X142571946Y-108515000D01*
X142353349Y-108515000D01*
X142134752Y-108515000D01*
X141916154Y-108515000D01*
X141697557Y-108515000D01*
X141697557Y-108296402D01*
X141697557Y-108077805D01*
X141697557Y-107859207D01*
X141697557Y-107640610D01*
X141697557Y-107422013D01*
X141697557Y-107203415D01*
X141697557Y-106984818D01*
X141697557Y-106766221D01*
X141697557Y-106547623D01*
X141697557Y-106329026D01*
X141697557Y-106110429D01*
X141697557Y-105891831D01*
X141916154Y-105891831D01*
X142134752Y-105891831D01*
X142353349Y-105891831D01*
X142571946Y-105891831D01*
X142790544Y-105891831D01*
X143009141Y-105891831D01*
X143227739Y-105891831D01*
X143446336Y-105891831D01*
X143664933Y-105891831D01*
X143883531Y-105891831D01*
X143883531Y-106110429D01*
X143883531Y-106329026D01*
X143664933Y-106329026D01*
X143446336Y-106329026D01*
X143227739Y-106329026D01*
X143009141Y-106329026D01*
X142790544Y-106329026D01*
X142571946Y-106329026D01*
X142353349Y-106329026D01*
X142134752Y-106329026D01*
X142134752Y-106547623D01*
X142134752Y-106766221D01*
X142353349Y-106766221D01*
X142571946Y-106766221D01*
X142790544Y-106766221D01*
X142790544Y-106984818D01*
X142790544Y-107203415D01*
X142571946Y-107203415D01*
X142353349Y-107203415D01*
X142134752Y-107203415D01*
X142134752Y-107422013D01*
X142134752Y-107640610D01*
X142134752Y-107859207D01*
X142134752Y-108077805D01*
X142353349Y-108077805D01*
X142571946Y-108077805D01*
X142790544Y-108077805D01*
X143009141Y-108077805D01*
X143227739Y-108077805D01*
X143446336Y-108077805D01*
X143664933Y-108077805D01*
X143883531Y-108077805D01*
X143883531Y-108296402D01*
X143883531Y-108515000D01*
X143664933Y-108515000D01*
G37*
G36*
X145196336Y-108515000D02*
G01*
X144977739Y-108515000D01*
X144977739Y-108296402D01*
X144977739Y-108077805D01*
X144977739Y-107859207D01*
X144977739Y-107640610D01*
X144977739Y-107422013D01*
X144977739Y-107203415D01*
X144977739Y-106984818D01*
X144977739Y-106766221D01*
X144977739Y-106547623D01*
X144977739Y-106329026D01*
X144759141Y-106329026D01*
X144540544Y-106329026D01*
X144321946Y-106329026D01*
X144103349Y-106329026D01*
X144103349Y-106110429D01*
X144103349Y-105891831D01*
X144321946Y-105891831D01*
X144540544Y-105891831D01*
X144759141Y-105891831D01*
X144977739Y-105891831D01*
X145196336Y-105891831D01*
X145414933Y-105891831D01*
X145633531Y-105891831D01*
X145852128Y-105891831D01*
X146070725Y-105891831D01*
X146289323Y-105891831D01*
X146289323Y-106110429D01*
X146289323Y-106329026D01*
X146070725Y-106329026D01*
X145852128Y-106329026D01*
X145633531Y-106329026D01*
X145414933Y-106329026D01*
X145414933Y-106547623D01*
X145414933Y-106766221D01*
X145414933Y-106984818D01*
X145414933Y-107203415D01*
X145414933Y-107422013D01*
X145414933Y-107640610D01*
X145414933Y-107859207D01*
X145414933Y-108077805D01*
X145414933Y-108296402D01*
X145414933Y-108515000D01*
X145196336Y-108515000D01*
G37*
G36*
X148476517Y-108515000D02*
G01*
X148257920Y-108515000D01*
X148257920Y-108296402D01*
X148257920Y-108077805D01*
X148257920Y-107859207D01*
X148257920Y-107640610D01*
X148257920Y-107422013D01*
X148039323Y-107422013D01*
X147820725Y-107422013D01*
X147602128Y-107422013D01*
X147383531Y-107422013D01*
X147164933Y-107422013D01*
X146946336Y-107422013D01*
X146946336Y-107640610D01*
X146946336Y-107859207D01*
X146946336Y-108077805D01*
X146946336Y-108296402D01*
X146946336Y-108515000D01*
X146727739Y-108515000D01*
X146509141Y-108515000D01*
X146509141Y-108296402D01*
X146509141Y-108077805D01*
X146509141Y-107859207D01*
X146509141Y-107640610D01*
X146509141Y-107422013D01*
X146509141Y-107203415D01*
X146509141Y-106984818D01*
X146509141Y-106766221D01*
X146509141Y-106547623D01*
X146509141Y-106329026D01*
X146509141Y-106110429D01*
X146509141Y-105891831D01*
X146727739Y-105891831D01*
X146946336Y-105891831D01*
X146946336Y-106110429D01*
X146946336Y-106329026D01*
X146946336Y-106547623D01*
X146946336Y-106766221D01*
X146946336Y-106984818D01*
X147164933Y-106984818D01*
X147383531Y-106984818D01*
X147602128Y-106984818D01*
X147820725Y-106984818D01*
X148039323Y-106984818D01*
X148257920Y-106984818D01*
X148257920Y-106766221D01*
X148257920Y-106547623D01*
X148257920Y-106329026D01*
X148257920Y-106110429D01*
X148257920Y-105891831D01*
X148476517Y-105891831D01*
X148695115Y-105891831D01*
X148695115Y-106110429D01*
X148695115Y-106329026D01*
X148695115Y-106547623D01*
X148695115Y-106766221D01*
X148695115Y-106984818D01*
X148695115Y-107203415D01*
X148695115Y-107422013D01*
X148695115Y-107640610D01*
X148695115Y-107859207D01*
X148695115Y-108077805D01*
X148695115Y-108296402D01*
X148695115Y-108515000D01*
X148476517Y-108515000D01*
G37*
G36*
X150882309Y-108515000D02*
G01*
X150663712Y-108515000D01*
X150445115Y-108515000D01*
X150226517Y-108515000D01*
X150007920Y-108515000D01*
X149789323Y-108515000D01*
X149570725Y-108515000D01*
X149352128Y-108515000D01*
X149133531Y-108515000D01*
X148914933Y-108515000D01*
X148914933Y-108296402D01*
X148914933Y-108077805D01*
X148914933Y-107859207D01*
X148914933Y-107640610D01*
X148914933Y-107422013D01*
X148914933Y-107203415D01*
X148914933Y-106984818D01*
X148914933Y-106766221D01*
X148914933Y-106547623D01*
X148914933Y-106329026D01*
X148914933Y-106110429D01*
X148914933Y-105891831D01*
X149133531Y-105891831D01*
X149352128Y-105891831D01*
X149570725Y-105891831D01*
X149789323Y-105891831D01*
X150007920Y-105891831D01*
X150226517Y-105891831D01*
X150445115Y-105891831D01*
X150663712Y-105891831D01*
X150882309Y-105891831D01*
X151100907Y-105891831D01*
X151100907Y-106110429D01*
X151100907Y-106329026D01*
X150882309Y-106329026D01*
X150663712Y-106329026D01*
X150445115Y-106329026D01*
X150226517Y-106329026D01*
X150007920Y-106329026D01*
X149789323Y-106329026D01*
X149570725Y-106329026D01*
X149352128Y-106329026D01*
X149352128Y-106547623D01*
X149352128Y-106766221D01*
X149570725Y-106766221D01*
X149789323Y-106766221D01*
X150007920Y-106766221D01*
X150007920Y-106984818D01*
X150007920Y-107203415D01*
X149789323Y-107203415D01*
X149570725Y-107203415D01*
X149352128Y-107203415D01*
X149352128Y-107422013D01*
X149352128Y-107640610D01*
X149352128Y-107859207D01*
X149352128Y-108077805D01*
X149570725Y-108077805D01*
X149789323Y-108077805D01*
X150007920Y-108077805D01*
X150226517Y-108077805D01*
X150445115Y-108077805D01*
X150663712Y-108077805D01*
X150882309Y-108077805D01*
X151100907Y-108077805D01*
X151100907Y-108296402D01*
X151100907Y-108515000D01*
X150882309Y-108515000D01*
G37*
G36*
X152850907Y-108515000D02*
G01*
X152632309Y-108515000D01*
X152413712Y-108515000D01*
X152195115Y-108515000D01*
X151976517Y-108515000D01*
X151976517Y-108296402D01*
X151976517Y-108077805D01*
X152195115Y-108077805D01*
X152413712Y-108077805D01*
X152632309Y-108077805D01*
X152850907Y-108077805D01*
X153069504Y-108077805D01*
X153069504Y-108296402D01*
X153069504Y-108515000D01*
X152850907Y-108515000D01*
G37*
G36*
X153069504Y-108077805D02*
G01*
X153069504Y-107859207D01*
X153069504Y-107640610D01*
X153069504Y-107422013D01*
X153069504Y-107203415D01*
X153069504Y-106984818D01*
X153069504Y-106766221D01*
X153069504Y-106547623D01*
X153069504Y-106329026D01*
X153069504Y-106110429D01*
X153069504Y-105891831D01*
X153288101Y-105891831D01*
X153506699Y-105891831D01*
X153506699Y-106110429D01*
X153506699Y-106329026D01*
X153506699Y-106547623D01*
X153506699Y-106766221D01*
X153506699Y-106984818D01*
X153506699Y-107203415D01*
X153506699Y-107422013D01*
X153506699Y-107640610D01*
X153506699Y-107859207D01*
X153506699Y-108077805D01*
X153288101Y-108077805D01*
X153069504Y-108077805D01*
G37*
G36*
X151976517Y-108077805D02*
G01*
X151757920Y-108077805D01*
X151539323Y-108077805D01*
X151539323Y-107859207D01*
X151539323Y-107640610D01*
X151539323Y-107422013D01*
X151539323Y-107203415D01*
X151539323Y-106984818D01*
X151539323Y-106766221D01*
X151539323Y-106547623D01*
X151539323Y-106329026D01*
X151539323Y-106110429D01*
X151539323Y-105891831D01*
X151757920Y-105891831D01*
X151976517Y-105891831D01*
X151976517Y-106110429D01*
X151976517Y-106329026D01*
X151976517Y-106547623D01*
X151976517Y-106766221D01*
X151976517Y-106984818D01*
X151976517Y-107203415D01*
X151976517Y-107422013D01*
X151976517Y-107640610D01*
X151976517Y-107859207D01*
X151976517Y-108077805D01*
G37*
G36*
X155038101Y-108515000D02*
G01*
X154819504Y-108515000D01*
X154600907Y-108515000D01*
X154382309Y-108515000D01*
X154163712Y-108515000D01*
X153945115Y-108515000D01*
X153726517Y-108515000D01*
X153726517Y-108296402D01*
X153726517Y-108077805D01*
X153945115Y-108077805D01*
X154163712Y-108077805D01*
X154382309Y-108077805D01*
X154600907Y-108077805D01*
X154819504Y-108077805D01*
X155038101Y-108077805D01*
X155256699Y-108077805D01*
X155256699Y-108296402D01*
X155256699Y-108515000D01*
X155038101Y-108515000D01*
G37*
G36*
X155256699Y-108077805D02*
G01*
X155256699Y-107859207D01*
X155256699Y-107640610D01*
X155256699Y-107422013D01*
X155256699Y-107203415D01*
X155475296Y-107203415D01*
X155693893Y-107203415D01*
X155693893Y-107422013D01*
X155693893Y-107640610D01*
X155693893Y-107859207D01*
X155693893Y-108077805D01*
X155475296Y-108077805D01*
X155256699Y-108077805D01*
G37*
G36*
X155256699Y-107203415D02*
G01*
X155038101Y-107203415D01*
X154819504Y-107203415D01*
X154600907Y-107203415D01*
X154382309Y-107203415D01*
X154163712Y-107203415D01*
X154163712Y-106984818D01*
X154163712Y-106766221D01*
X154382309Y-106766221D01*
X154600907Y-106766221D01*
X154819504Y-106766221D01*
X155038101Y-106766221D01*
X155256699Y-106766221D01*
X155256699Y-106984818D01*
X155256699Y-107203415D01*
G37*
G36*
X154163712Y-106766221D02*
G01*
X153945115Y-106766221D01*
X153726517Y-106766221D01*
X153726517Y-106547623D01*
X153726517Y-106329026D01*
X153945115Y-106329026D01*
X154163712Y-106329026D01*
X154163712Y-106547623D01*
X154163712Y-106766221D01*
G37*
G36*
X155475296Y-106329026D02*
G01*
X155256699Y-106329026D01*
X155038101Y-106329026D01*
X154819504Y-106329026D01*
X154600907Y-106329026D01*
X154382309Y-106329026D01*
X154163712Y-106329026D01*
X154163712Y-106110429D01*
X154163712Y-105891831D01*
X154382309Y-105891831D01*
X154600907Y-105891831D01*
X154819504Y-105891831D01*
X155038101Y-105891831D01*
X155256699Y-105891831D01*
X155475296Y-105891831D01*
X155693893Y-105891831D01*
X155693893Y-106110429D01*
X155693893Y-106329026D01*
X155475296Y-106329026D01*
G37*
D10*
X184775312Y-115912419D02*
X184441979Y-115436228D01*
X184203884Y-115912419D02*
X184203884Y-114912419D01*
X184203884Y-114912419D02*
X184584836Y-114912419D01*
X184584836Y-114912419D02*
X184680074Y-114960038D01*
X184680074Y-114960038D02*
X184727693Y-115007657D01*
X184727693Y-115007657D02*
X184775312Y-115102895D01*
X184775312Y-115102895D02*
X184775312Y-115245752D01*
X184775312Y-115245752D02*
X184727693Y-115340990D01*
X184727693Y-115340990D02*
X184680074Y-115388609D01*
X184680074Y-115388609D02*
X184584836Y-115436228D01*
X184584836Y-115436228D02*
X184203884Y-115436228D01*
X185156265Y-115864800D02*
X185299122Y-115912419D01*
X185299122Y-115912419D02*
X185537217Y-115912419D01*
X185537217Y-115912419D02*
X185632455Y-115864800D01*
X185632455Y-115864800D02*
X185680074Y-115817180D01*
X185680074Y-115817180D02*
X185727693Y-115721942D01*
X185727693Y-115721942D02*
X185727693Y-115626704D01*
X185727693Y-115626704D02*
X185680074Y-115531466D01*
X185680074Y-115531466D02*
X185632455Y-115483847D01*
X185632455Y-115483847D02*
X185537217Y-115436228D01*
X185537217Y-115436228D02*
X185346741Y-115388609D01*
X185346741Y-115388609D02*
X185251503Y-115340990D01*
X185251503Y-115340990D02*
X185203884Y-115293371D01*
X185203884Y-115293371D02*
X185156265Y-115198133D01*
X185156265Y-115198133D02*
X185156265Y-115102895D01*
X185156265Y-115102895D02*
X185203884Y-115007657D01*
X185203884Y-115007657D02*
X185251503Y-114960038D01*
X185251503Y-114960038D02*
X185346741Y-114912419D01*
X185346741Y-114912419D02*
X185584836Y-114912419D01*
X185584836Y-114912419D02*
X185727693Y-114960038D01*
X186013408Y-114912419D02*
X186584836Y-114912419D01*
X186299122Y-115912419D02*
X186299122Y-114912419D01*
X143607419Y-117028094D02*
X142607419Y-117028094D01*
X142607419Y-117028094D02*
X142607419Y-116647142D01*
X142607419Y-116647142D02*
X142655038Y-116551904D01*
X142655038Y-116551904D02*
X142702657Y-116504285D01*
X142702657Y-116504285D02*
X142797895Y-116456666D01*
X142797895Y-116456666D02*
X142940752Y-116456666D01*
X142940752Y-116456666D02*
X143035990Y-116504285D01*
X143035990Y-116504285D02*
X143083609Y-116551904D01*
X143083609Y-116551904D02*
X143131228Y-116647142D01*
X143131228Y-116647142D02*
X143131228Y-117028094D01*
X143607419Y-116028094D02*
X142607419Y-116028094D01*
X142607419Y-116028094D02*
X142607419Y-115789999D01*
X142607419Y-115789999D02*
X142655038Y-115647142D01*
X142655038Y-115647142D02*
X142750276Y-115551904D01*
X142750276Y-115551904D02*
X142845514Y-115504285D01*
X142845514Y-115504285D02*
X143035990Y-115456666D01*
X143035990Y-115456666D02*
X143178847Y-115456666D01*
X143178847Y-115456666D02*
X143369323Y-115504285D01*
X143369323Y-115504285D02*
X143464561Y-115551904D01*
X143464561Y-115551904D02*
X143559800Y-115647142D01*
X143559800Y-115647142D02*
X143607419Y-115789999D01*
X143607419Y-115789999D02*
X143607419Y-116028094D01*
X143607419Y-114504285D02*
X143607419Y-115075713D01*
X143607419Y-114789999D02*
X142607419Y-114789999D01*
X142607419Y-114789999D02*
X142750276Y-114885237D01*
X142750276Y-114885237D02*
X142845514Y-114980475D01*
X142845514Y-114980475D02*
X142893133Y-115075713D01*
X172632419Y-78278094D02*
X171632419Y-78278094D01*
X171632419Y-78278094D02*
X171632419Y-77897142D01*
X171632419Y-77897142D02*
X171680038Y-77801904D01*
X171680038Y-77801904D02*
X171727657Y-77754285D01*
X171727657Y-77754285D02*
X171822895Y-77706666D01*
X171822895Y-77706666D02*
X171965752Y-77706666D01*
X171965752Y-77706666D02*
X172060990Y-77754285D01*
X172060990Y-77754285D02*
X172108609Y-77801904D01*
X172108609Y-77801904D02*
X172156228Y-77897142D01*
X172156228Y-77897142D02*
X172156228Y-78278094D01*
X172108609Y-76944761D02*
X172156228Y-76801904D01*
X172156228Y-76801904D02*
X172203847Y-76754285D01*
X172203847Y-76754285D02*
X172299085Y-76706666D01*
X172299085Y-76706666D02*
X172441942Y-76706666D01*
X172441942Y-76706666D02*
X172537180Y-76754285D01*
X172537180Y-76754285D02*
X172584800Y-76801904D01*
X172584800Y-76801904D02*
X172632419Y-76897142D01*
X172632419Y-76897142D02*
X172632419Y-77278094D01*
X172632419Y-77278094D02*
X171632419Y-77278094D01*
X171632419Y-77278094D02*
X171632419Y-76944761D01*
X171632419Y-76944761D02*
X171680038Y-76849523D01*
X171680038Y-76849523D02*
X171727657Y-76801904D01*
X171727657Y-76801904D02*
X171822895Y-76754285D01*
X171822895Y-76754285D02*
X171918133Y-76754285D01*
X171918133Y-76754285D02*
X172013371Y-76801904D01*
X172013371Y-76801904D02*
X172060990Y-76849523D01*
X172060990Y-76849523D02*
X172108609Y-76944761D01*
X172108609Y-76944761D02*
X172108609Y-77278094D01*
X171727657Y-76325713D02*
X171680038Y-76278094D01*
X171680038Y-76278094D02*
X171632419Y-76182856D01*
X171632419Y-76182856D02*
X171632419Y-75944761D01*
X171632419Y-75944761D02*
X171680038Y-75849523D01*
X171680038Y-75849523D02*
X171727657Y-75801904D01*
X171727657Y-75801904D02*
X171822895Y-75754285D01*
X171822895Y-75754285D02*
X171918133Y-75754285D01*
X171918133Y-75754285D02*
X172060990Y-75801904D01*
X172060990Y-75801904D02*
X172632419Y-76373332D01*
X172632419Y-76373332D02*
X172632419Y-75754285D01*
X144732419Y-84778094D02*
X143732419Y-84778094D01*
X143732419Y-84778094D02*
X143732419Y-84397142D01*
X143732419Y-84397142D02*
X143780038Y-84301904D01*
X143780038Y-84301904D02*
X143827657Y-84254285D01*
X143827657Y-84254285D02*
X143922895Y-84206666D01*
X143922895Y-84206666D02*
X144065752Y-84206666D01*
X144065752Y-84206666D02*
X144160990Y-84254285D01*
X144160990Y-84254285D02*
X144208609Y-84301904D01*
X144208609Y-84301904D02*
X144256228Y-84397142D01*
X144256228Y-84397142D02*
X144256228Y-84778094D01*
X144637180Y-83206666D02*
X144684800Y-83254285D01*
X144684800Y-83254285D02*
X144732419Y-83397142D01*
X144732419Y-83397142D02*
X144732419Y-83492380D01*
X144732419Y-83492380D02*
X144684800Y-83635237D01*
X144684800Y-83635237D02*
X144589561Y-83730475D01*
X144589561Y-83730475D02*
X144494323Y-83778094D01*
X144494323Y-83778094D02*
X144303847Y-83825713D01*
X144303847Y-83825713D02*
X144160990Y-83825713D01*
X144160990Y-83825713D02*
X143970514Y-83778094D01*
X143970514Y-83778094D02*
X143875276Y-83730475D01*
X143875276Y-83730475D02*
X143780038Y-83635237D01*
X143780038Y-83635237D02*
X143732419Y-83492380D01*
X143732419Y-83492380D02*
X143732419Y-83397142D01*
X143732419Y-83397142D02*
X143780038Y-83254285D01*
X143780038Y-83254285D02*
X143827657Y-83206666D01*
X144065752Y-82349523D02*
X144732419Y-82349523D01*
X143684800Y-82587618D02*
X144399085Y-82825713D01*
X144399085Y-82825713D02*
X144399085Y-82206666D01*
X147182419Y-84778094D02*
X146182419Y-84778094D01*
X146182419Y-84778094D02*
X146182419Y-84397142D01*
X146182419Y-84397142D02*
X146230038Y-84301904D01*
X146230038Y-84301904D02*
X146277657Y-84254285D01*
X146277657Y-84254285D02*
X146372895Y-84206666D01*
X146372895Y-84206666D02*
X146515752Y-84206666D01*
X146515752Y-84206666D02*
X146610990Y-84254285D01*
X146610990Y-84254285D02*
X146658609Y-84301904D01*
X146658609Y-84301904D02*
X146706228Y-84397142D01*
X146706228Y-84397142D02*
X146706228Y-84778094D01*
X147087180Y-83206666D02*
X147134800Y-83254285D01*
X147134800Y-83254285D02*
X147182419Y-83397142D01*
X147182419Y-83397142D02*
X147182419Y-83492380D01*
X147182419Y-83492380D02*
X147134800Y-83635237D01*
X147134800Y-83635237D02*
X147039561Y-83730475D01*
X147039561Y-83730475D02*
X146944323Y-83778094D01*
X146944323Y-83778094D02*
X146753847Y-83825713D01*
X146753847Y-83825713D02*
X146610990Y-83825713D01*
X146610990Y-83825713D02*
X146420514Y-83778094D01*
X146420514Y-83778094D02*
X146325276Y-83730475D01*
X146325276Y-83730475D02*
X146230038Y-83635237D01*
X146230038Y-83635237D02*
X146182419Y-83492380D01*
X146182419Y-83492380D02*
X146182419Y-83397142D01*
X146182419Y-83397142D02*
X146230038Y-83254285D01*
X146230038Y-83254285D02*
X146277657Y-83206666D01*
X146182419Y-82873332D02*
X146182419Y-82254285D01*
X146182419Y-82254285D02*
X146563371Y-82587618D01*
X146563371Y-82587618D02*
X146563371Y-82444761D01*
X146563371Y-82444761D02*
X146610990Y-82349523D01*
X146610990Y-82349523D02*
X146658609Y-82301904D01*
X146658609Y-82301904D02*
X146753847Y-82254285D01*
X146753847Y-82254285D02*
X146991942Y-82254285D01*
X146991942Y-82254285D02*
X147087180Y-82301904D01*
X147087180Y-82301904D02*
X147134800Y-82349523D01*
X147134800Y-82349523D02*
X147182419Y-82444761D01*
X147182419Y-82444761D02*
X147182419Y-82730475D01*
X147182419Y-82730475D02*
X147134800Y-82825713D01*
X147134800Y-82825713D02*
X147087180Y-82873332D01*
X154982419Y-84778094D02*
X153982419Y-84778094D01*
X153982419Y-84778094D02*
X153982419Y-84397142D01*
X153982419Y-84397142D02*
X154030038Y-84301904D01*
X154030038Y-84301904D02*
X154077657Y-84254285D01*
X154077657Y-84254285D02*
X154172895Y-84206666D01*
X154172895Y-84206666D02*
X154315752Y-84206666D01*
X154315752Y-84206666D02*
X154410990Y-84254285D01*
X154410990Y-84254285D02*
X154458609Y-84301904D01*
X154458609Y-84301904D02*
X154506228Y-84397142D01*
X154506228Y-84397142D02*
X154506228Y-84778094D01*
X154887180Y-83206666D02*
X154934800Y-83254285D01*
X154934800Y-83254285D02*
X154982419Y-83397142D01*
X154982419Y-83397142D02*
X154982419Y-83492380D01*
X154982419Y-83492380D02*
X154934800Y-83635237D01*
X154934800Y-83635237D02*
X154839561Y-83730475D01*
X154839561Y-83730475D02*
X154744323Y-83778094D01*
X154744323Y-83778094D02*
X154553847Y-83825713D01*
X154553847Y-83825713D02*
X154410990Y-83825713D01*
X154410990Y-83825713D02*
X154220514Y-83778094D01*
X154220514Y-83778094D02*
X154125276Y-83730475D01*
X154125276Y-83730475D02*
X154030038Y-83635237D01*
X154030038Y-83635237D02*
X153982419Y-83492380D01*
X153982419Y-83492380D02*
X153982419Y-83397142D01*
X153982419Y-83397142D02*
X154030038Y-83254285D01*
X154030038Y-83254285D02*
X154077657Y-83206666D01*
X153982419Y-82587618D02*
X153982419Y-82492380D01*
X153982419Y-82492380D02*
X154030038Y-82397142D01*
X154030038Y-82397142D02*
X154077657Y-82349523D01*
X154077657Y-82349523D02*
X154172895Y-82301904D01*
X154172895Y-82301904D02*
X154363371Y-82254285D01*
X154363371Y-82254285D02*
X154601466Y-82254285D01*
X154601466Y-82254285D02*
X154791942Y-82301904D01*
X154791942Y-82301904D02*
X154887180Y-82349523D01*
X154887180Y-82349523D02*
X154934800Y-82397142D01*
X154934800Y-82397142D02*
X154982419Y-82492380D01*
X154982419Y-82492380D02*
X154982419Y-82587618D01*
X154982419Y-82587618D02*
X154934800Y-82682856D01*
X154934800Y-82682856D02*
X154887180Y-82730475D01*
X154887180Y-82730475D02*
X154791942Y-82778094D01*
X154791942Y-82778094D02*
X154601466Y-82825713D01*
X154601466Y-82825713D02*
X154363371Y-82825713D01*
X154363371Y-82825713D02*
X154172895Y-82778094D01*
X154172895Y-82778094D02*
X154077657Y-82730475D01*
X154077657Y-82730475D02*
X154030038Y-82682856D01*
X154030038Y-82682856D02*
X153982419Y-82587618D01*
X152482419Y-84778094D02*
X151482419Y-84778094D01*
X151482419Y-84778094D02*
X151482419Y-84397142D01*
X151482419Y-84397142D02*
X151530038Y-84301904D01*
X151530038Y-84301904D02*
X151577657Y-84254285D01*
X151577657Y-84254285D02*
X151672895Y-84206666D01*
X151672895Y-84206666D02*
X151815752Y-84206666D01*
X151815752Y-84206666D02*
X151910990Y-84254285D01*
X151910990Y-84254285D02*
X151958609Y-84301904D01*
X151958609Y-84301904D02*
X152006228Y-84397142D01*
X152006228Y-84397142D02*
X152006228Y-84778094D01*
X152387180Y-83206666D02*
X152434800Y-83254285D01*
X152434800Y-83254285D02*
X152482419Y-83397142D01*
X152482419Y-83397142D02*
X152482419Y-83492380D01*
X152482419Y-83492380D02*
X152434800Y-83635237D01*
X152434800Y-83635237D02*
X152339561Y-83730475D01*
X152339561Y-83730475D02*
X152244323Y-83778094D01*
X152244323Y-83778094D02*
X152053847Y-83825713D01*
X152053847Y-83825713D02*
X151910990Y-83825713D01*
X151910990Y-83825713D02*
X151720514Y-83778094D01*
X151720514Y-83778094D02*
X151625276Y-83730475D01*
X151625276Y-83730475D02*
X151530038Y-83635237D01*
X151530038Y-83635237D02*
X151482419Y-83492380D01*
X151482419Y-83492380D02*
X151482419Y-83397142D01*
X151482419Y-83397142D02*
X151530038Y-83254285D01*
X151530038Y-83254285D02*
X151577657Y-83206666D01*
X152482419Y-82254285D02*
X152482419Y-82825713D01*
X152482419Y-82539999D02*
X151482419Y-82539999D01*
X151482419Y-82539999D02*
X151625276Y-82635237D01*
X151625276Y-82635237D02*
X151720514Y-82730475D01*
X151720514Y-82730475D02*
X151768133Y-82825713D01*
X159107419Y-117028094D02*
X158107419Y-117028094D01*
X158107419Y-117028094D02*
X158107419Y-116647142D01*
X158107419Y-116647142D02*
X158155038Y-116551904D01*
X158155038Y-116551904D02*
X158202657Y-116504285D01*
X158202657Y-116504285D02*
X158297895Y-116456666D01*
X158297895Y-116456666D02*
X158440752Y-116456666D01*
X158440752Y-116456666D02*
X158535990Y-116504285D01*
X158535990Y-116504285D02*
X158583609Y-116551904D01*
X158583609Y-116551904D02*
X158631228Y-116647142D01*
X158631228Y-116647142D02*
X158631228Y-117028094D01*
X159107419Y-116028094D02*
X158107419Y-116028094D01*
X158107419Y-116028094D02*
X158107419Y-115789999D01*
X158107419Y-115789999D02*
X158155038Y-115647142D01*
X158155038Y-115647142D02*
X158250276Y-115551904D01*
X158250276Y-115551904D02*
X158345514Y-115504285D01*
X158345514Y-115504285D02*
X158535990Y-115456666D01*
X158535990Y-115456666D02*
X158678847Y-115456666D01*
X158678847Y-115456666D02*
X158869323Y-115504285D01*
X158869323Y-115504285D02*
X158964561Y-115551904D01*
X158964561Y-115551904D02*
X159059800Y-115647142D01*
X159059800Y-115647142D02*
X159107419Y-115789999D01*
X159107419Y-115789999D02*
X159107419Y-116028094D01*
X158107419Y-115123332D02*
X158107419Y-114456666D01*
X158107419Y-114456666D02*
X159107419Y-114885237D01*
X171561027Y-114912419D02*
X171894360Y-115912419D01*
X171894360Y-115912419D02*
X172227693Y-114912419D01*
X172561027Y-115912419D02*
X172561027Y-115245752D01*
X172561027Y-114912419D02*
X172513408Y-114960038D01*
X172513408Y-114960038D02*
X172561027Y-115007657D01*
X172561027Y-115007657D02*
X172608646Y-114960038D01*
X172608646Y-114960038D02*
X172561027Y-114912419D01*
X172561027Y-114912419D02*
X172561027Y-115007657D01*
X173037217Y-115245752D02*
X173037217Y-115912419D01*
X173037217Y-115340990D02*
X173084836Y-115293371D01*
X173084836Y-115293371D02*
X173180074Y-115245752D01*
X173180074Y-115245752D02*
X173322931Y-115245752D01*
X173322931Y-115245752D02*
X173418169Y-115293371D01*
X173418169Y-115293371D02*
X173465788Y-115388609D01*
X173465788Y-115388609D02*
X173465788Y-115912419D01*
X180680074Y-114912419D02*
X180203884Y-114912419D01*
X180203884Y-114912419D02*
X180156265Y-115388609D01*
X180156265Y-115388609D02*
X180203884Y-115340990D01*
X180203884Y-115340990D02*
X180299122Y-115293371D01*
X180299122Y-115293371D02*
X180537217Y-115293371D01*
X180537217Y-115293371D02*
X180632455Y-115340990D01*
X180632455Y-115340990D02*
X180680074Y-115388609D01*
X180680074Y-115388609D02*
X180727693Y-115483847D01*
X180727693Y-115483847D02*
X180727693Y-115721942D01*
X180727693Y-115721942D02*
X180680074Y-115817180D01*
X180680074Y-115817180D02*
X180632455Y-115864800D01*
X180632455Y-115864800D02*
X180537217Y-115912419D01*
X180537217Y-115912419D02*
X180299122Y-115912419D01*
X180299122Y-115912419D02*
X180203884Y-115864800D01*
X180203884Y-115864800D02*
X180156265Y-115817180D01*
X181013408Y-114912419D02*
X181346741Y-115912419D01*
X181346741Y-115912419D02*
X181680074Y-114912419D01*
X151107419Y-117028094D02*
X150107419Y-117028094D01*
X150107419Y-117028094D02*
X150107419Y-116647142D01*
X150107419Y-116647142D02*
X150155038Y-116551904D01*
X150155038Y-116551904D02*
X150202657Y-116504285D01*
X150202657Y-116504285D02*
X150297895Y-116456666D01*
X150297895Y-116456666D02*
X150440752Y-116456666D01*
X150440752Y-116456666D02*
X150535990Y-116504285D01*
X150535990Y-116504285D02*
X150583609Y-116551904D01*
X150583609Y-116551904D02*
X150631228Y-116647142D01*
X150631228Y-116647142D02*
X150631228Y-117028094D01*
X151107419Y-116028094D02*
X150107419Y-116028094D01*
X150107419Y-116028094D02*
X150107419Y-115789999D01*
X150107419Y-115789999D02*
X150155038Y-115647142D01*
X150155038Y-115647142D02*
X150250276Y-115551904D01*
X150250276Y-115551904D02*
X150345514Y-115504285D01*
X150345514Y-115504285D02*
X150535990Y-115456666D01*
X150535990Y-115456666D02*
X150678847Y-115456666D01*
X150678847Y-115456666D02*
X150869323Y-115504285D01*
X150869323Y-115504285D02*
X150964561Y-115551904D01*
X150964561Y-115551904D02*
X151059800Y-115647142D01*
X151059800Y-115647142D02*
X151107419Y-115789999D01*
X151107419Y-115789999D02*
X151107419Y-116028094D01*
X150440752Y-114599523D02*
X151107419Y-114599523D01*
X150059800Y-114837618D02*
X150774085Y-115075713D01*
X150774085Y-115075713D02*
X150774085Y-114456666D01*
X142232419Y-84778094D02*
X141232419Y-84778094D01*
X141232419Y-84778094D02*
X141232419Y-84397142D01*
X141232419Y-84397142D02*
X141280038Y-84301904D01*
X141280038Y-84301904D02*
X141327657Y-84254285D01*
X141327657Y-84254285D02*
X141422895Y-84206666D01*
X141422895Y-84206666D02*
X141565752Y-84206666D01*
X141565752Y-84206666D02*
X141660990Y-84254285D01*
X141660990Y-84254285D02*
X141708609Y-84301904D01*
X141708609Y-84301904D02*
X141756228Y-84397142D01*
X141756228Y-84397142D02*
X141756228Y-84778094D01*
X142137180Y-83206666D02*
X142184800Y-83254285D01*
X142184800Y-83254285D02*
X142232419Y-83397142D01*
X142232419Y-83397142D02*
X142232419Y-83492380D01*
X142232419Y-83492380D02*
X142184800Y-83635237D01*
X142184800Y-83635237D02*
X142089561Y-83730475D01*
X142089561Y-83730475D02*
X141994323Y-83778094D01*
X141994323Y-83778094D02*
X141803847Y-83825713D01*
X141803847Y-83825713D02*
X141660990Y-83825713D01*
X141660990Y-83825713D02*
X141470514Y-83778094D01*
X141470514Y-83778094D02*
X141375276Y-83730475D01*
X141375276Y-83730475D02*
X141280038Y-83635237D01*
X141280038Y-83635237D02*
X141232419Y-83492380D01*
X141232419Y-83492380D02*
X141232419Y-83397142D01*
X141232419Y-83397142D02*
X141280038Y-83254285D01*
X141280038Y-83254285D02*
X141327657Y-83206666D01*
X141232419Y-82301904D02*
X141232419Y-82778094D01*
X141232419Y-82778094D02*
X141708609Y-82825713D01*
X141708609Y-82825713D02*
X141660990Y-82778094D01*
X141660990Y-82778094D02*
X141613371Y-82682856D01*
X141613371Y-82682856D02*
X141613371Y-82444761D01*
X141613371Y-82444761D02*
X141660990Y-82349523D01*
X141660990Y-82349523D02*
X141708609Y-82301904D01*
X141708609Y-82301904D02*
X141803847Y-82254285D01*
X141803847Y-82254285D02*
X142041942Y-82254285D01*
X142041942Y-82254285D02*
X142137180Y-82301904D01*
X142137180Y-82301904D02*
X142184800Y-82349523D01*
X142184800Y-82349523D02*
X142232419Y-82444761D01*
X142232419Y-82444761D02*
X142232419Y-82682856D01*
X142232419Y-82682856D02*
X142184800Y-82778094D01*
X142184800Y-82778094D02*
X142137180Y-82825713D01*
X154256265Y-91926704D02*
X154732455Y-91926704D01*
X154161027Y-92212419D02*
X154494360Y-91212419D01*
X154494360Y-91212419D02*
X154827693Y-92212419D01*
X155018170Y-91212419D02*
X155589598Y-91212419D01*
X155303884Y-92212419D02*
X155303884Y-91212419D01*
X155922932Y-92212419D02*
X155922932Y-91545752D01*
X155922932Y-91640990D02*
X155970551Y-91593371D01*
X155970551Y-91593371D02*
X156065789Y-91545752D01*
X156065789Y-91545752D02*
X156208646Y-91545752D01*
X156208646Y-91545752D02*
X156303884Y-91593371D01*
X156303884Y-91593371D02*
X156351503Y-91688609D01*
X156351503Y-91688609D02*
X156351503Y-92212419D01*
X156351503Y-91688609D02*
X156399122Y-91593371D01*
X156399122Y-91593371D02*
X156494360Y-91545752D01*
X156494360Y-91545752D02*
X156637217Y-91545752D01*
X156637217Y-91545752D02*
X156732456Y-91593371D01*
X156732456Y-91593371D02*
X156780075Y-91688609D01*
X156780075Y-91688609D02*
X156780075Y-92212419D01*
X157637217Y-92164800D02*
X157541979Y-92212419D01*
X157541979Y-92212419D02*
X157351503Y-92212419D01*
X157351503Y-92212419D02*
X157256265Y-92164800D01*
X157256265Y-92164800D02*
X157208646Y-92069561D01*
X157208646Y-92069561D02*
X157208646Y-91688609D01*
X157208646Y-91688609D02*
X157256265Y-91593371D01*
X157256265Y-91593371D02*
X157351503Y-91545752D01*
X157351503Y-91545752D02*
X157541979Y-91545752D01*
X157541979Y-91545752D02*
X157637217Y-91593371D01*
X157637217Y-91593371D02*
X157684836Y-91688609D01*
X157684836Y-91688609D02*
X157684836Y-91783847D01*
X157684836Y-91783847D02*
X157208646Y-91879085D01*
X158541979Y-91545752D02*
X158541979Y-92355276D01*
X158541979Y-92355276D02*
X158494360Y-92450514D01*
X158494360Y-92450514D02*
X158446741Y-92498133D01*
X158446741Y-92498133D02*
X158351503Y-92545752D01*
X158351503Y-92545752D02*
X158208646Y-92545752D01*
X158208646Y-92545752D02*
X158113408Y-92498133D01*
X158541979Y-92164800D02*
X158446741Y-92212419D01*
X158446741Y-92212419D02*
X158256265Y-92212419D01*
X158256265Y-92212419D02*
X158161027Y-92164800D01*
X158161027Y-92164800D02*
X158113408Y-92117180D01*
X158113408Y-92117180D02*
X158065789Y-92021942D01*
X158065789Y-92021942D02*
X158065789Y-91736228D01*
X158065789Y-91736228D02*
X158113408Y-91640990D01*
X158113408Y-91640990D02*
X158161027Y-91593371D01*
X158161027Y-91593371D02*
X158256265Y-91545752D01*
X158256265Y-91545752D02*
X158446741Y-91545752D01*
X158446741Y-91545752D02*
X158541979Y-91593371D01*
X159446741Y-92212419D02*
X159446741Y-91688609D01*
X159446741Y-91688609D02*
X159399122Y-91593371D01*
X159399122Y-91593371D02*
X159303884Y-91545752D01*
X159303884Y-91545752D02*
X159113408Y-91545752D01*
X159113408Y-91545752D02*
X159018170Y-91593371D01*
X159446741Y-92164800D02*
X159351503Y-92212419D01*
X159351503Y-92212419D02*
X159113408Y-92212419D01*
X159113408Y-92212419D02*
X159018170Y-92164800D01*
X159018170Y-92164800D02*
X158970551Y-92069561D01*
X158970551Y-92069561D02*
X158970551Y-91974323D01*
X158970551Y-91974323D02*
X159018170Y-91879085D01*
X159018170Y-91879085D02*
X159113408Y-91831466D01*
X159113408Y-91831466D02*
X159351503Y-91831466D01*
X159351503Y-91831466D02*
X159446741Y-91783847D01*
X159827694Y-91212419D02*
X160446741Y-91212419D01*
X160446741Y-91212419D02*
X160113408Y-91593371D01*
X160113408Y-91593371D02*
X160256265Y-91593371D01*
X160256265Y-91593371D02*
X160351503Y-91640990D01*
X160351503Y-91640990D02*
X160399122Y-91688609D01*
X160399122Y-91688609D02*
X160446741Y-91783847D01*
X160446741Y-91783847D02*
X160446741Y-92021942D01*
X160446741Y-92021942D02*
X160399122Y-92117180D01*
X160399122Y-92117180D02*
X160351503Y-92164800D01*
X160351503Y-92164800D02*
X160256265Y-92212419D01*
X160256265Y-92212419D02*
X159970551Y-92212419D01*
X159970551Y-92212419D02*
X159875313Y-92164800D01*
X159875313Y-92164800D02*
X159827694Y-92117180D01*
X160827694Y-91307657D02*
X160875313Y-91260038D01*
X160875313Y-91260038D02*
X160970551Y-91212419D01*
X160970551Y-91212419D02*
X161208646Y-91212419D01*
X161208646Y-91212419D02*
X161303884Y-91260038D01*
X161303884Y-91260038D02*
X161351503Y-91307657D01*
X161351503Y-91307657D02*
X161399122Y-91402895D01*
X161399122Y-91402895D02*
X161399122Y-91498133D01*
X161399122Y-91498133D02*
X161351503Y-91640990D01*
X161351503Y-91640990D02*
X160780075Y-92212419D01*
X160780075Y-92212419D02*
X161399122Y-92212419D01*
X161970551Y-91640990D02*
X161875313Y-91593371D01*
X161875313Y-91593371D02*
X161827694Y-91545752D01*
X161827694Y-91545752D02*
X161780075Y-91450514D01*
X161780075Y-91450514D02*
X161780075Y-91402895D01*
X161780075Y-91402895D02*
X161827694Y-91307657D01*
X161827694Y-91307657D02*
X161875313Y-91260038D01*
X161875313Y-91260038D02*
X161970551Y-91212419D01*
X161970551Y-91212419D02*
X162161027Y-91212419D01*
X162161027Y-91212419D02*
X162256265Y-91260038D01*
X162256265Y-91260038D02*
X162303884Y-91307657D01*
X162303884Y-91307657D02*
X162351503Y-91402895D01*
X162351503Y-91402895D02*
X162351503Y-91450514D01*
X162351503Y-91450514D02*
X162303884Y-91545752D01*
X162303884Y-91545752D02*
X162256265Y-91593371D01*
X162256265Y-91593371D02*
X162161027Y-91640990D01*
X162161027Y-91640990D02*
X161970551Y-91640990D01*
X161970551Y-91640990D02*
X161875313Y-91688609D01*
X161875313Y-91688609D02*
X161827694Y-91736228D01*
X161827694Y-91736228D02*
X161780075Y-91831466D01*
X161780075Y-91831466D02*
X161780075Y-92021942D01*
X161780075Y-92021942D02*
X161827694Y-92117180D01*
X161827694Y-92117180D02*
X161875313Y-92164800D01*
X161875313Y-92164800D02*
X161970551Y-92212419D01*
X161970551Y-92212419D02*
X162161027Y-92212419D01*
X162161027Y-92212419D02*
X162256265Y-92164800D01*
X162256265Y-92164800D02*
X162303884Y-92117180D01*
X162303884Y-92117180D02*
X162351503Y-92021942D01*
X162351503Y-92021942D02*
X162351503Y-91831466D01*
X162351503Y-91831466D02*
X162303884Y-91736228D01*
X162303884Y-91736228D02*
X162256265Y-91688609D01*
X162256265Y-91688609D02*
X162161027Y-91640990D01*
X162780075Y-92212419D02*
X162780075Y-91212419D01*
X162780075Y-91212419D02*
X163161027Y-91212419D01*
X163161027Y-91212419D02*
X163256265Y-91260038D01*
X163256265Y-91260038D02*
X163303884Y-91307657D01*
X163303884Y-91307657D02*
X163351503Y-91402895D01*
X163351503Y-91402895D02*
X163351503Y-91545752D01*
X163351503Y-91545752D02*
X163303884Y-91640990D01*
X163303884Y-91640990D02*
X163256265Y-91688609D01*
X163256265Y-91688609D02*
X163161027Y-91736228D01*
X163161027Y-91736228D02*
X162780075Y-91736228D01*
X153857419Y-117028094D02*
X152857419Y-117028094D01*
X152857419Y-117028094D02*
X152857419Y-116647142D01*
X152857419Y-116647142D02*
X152905038Y-116551904D01*
X152905038Y-116551904D02*
X152952657Y-116504285D01*
X152952657Y-116504285D02*
X153047895Y-116456666D01*
X153047895Y-116456666D02*
X153190752Y-116456666D01*
X153190752Y-116456666D02*
X153285990Y-116504285D01*
X153285990Y-116504285D02*
X153333609Y-116551904D01*
X153333609Y-116551904D02*
X153381228Y-116647142D01*
X153381228Y-116647142D02*
X153381228Y-117028094D01*
X153857419Y-116028094D02*
X152857419Y-116028094D01*
X152857419Y-116028094D02*
X152857419Y-115789999D01*
X152857419Y-115789999D02*
X152905038Y-115647142D01*
X152905038Y-115647142D02*
X153000276Y-115551904D01*
X153000276Y-115551904D02*
X153095514Y-115504285D01*
X153095514Y-115504285D02*
X153285990Y-115456666D01*
X153285990Y-115456666D02*
X153428847Y-115456666D01*
X153428847Y-115456666D02*
X153619323Y-115504285D01*
X153619323Y-115504285D02*
X153714561Y-115551904D01*
X153714561Y-115551904D02*
X153809800Y-115647142D01*
X153809800Y-115647142D02*
X153857419Y-115789999D01*
X153857419Y-115789999D02*
X153857419Y-116028094D01*
X152857419Y-114551904D02*
X152857419Y-115028094D01*
X152857419Y-115028094D02*
X153333609Y-115075713D01*
X153333609Y-115075713D02*
X153285990Y-115028094D01*
X153285990Y-115028094D02*
X153238371Y-114932856D01*
X153238371Y-114932856D02*
X153238371Y-114694761D01*
X153238371Y-114694761D02*
X153285990Y-114599523D01*
X153285990Y-114599523D02*
X153333609Y-114551904D01*
X153333609Y-114551904D02*
X153428847Y-114504285D01*
X153428847Y-114504285D02*
X153666942Y-114504285D01*
X153666942Y-114504285D02*
X153762180Y-114551904D01*
X153762180Y-114551904D02*
X153809800Y-114599523D01*
X153809800Y-114599523D02*
X153857419Y-114694761D01*
X153857419Y-114694761D02*
X153857419Y-114932856D01*
X153857419Y-114932856D02*
X153809800Y-115028094D01*
X153809800Y-115028094D02*
X153762180Y-115075713D01*
X156357419Y-117028094D02*
X155357419Y-117028094D01*
X155357419Y-117028094D02*
X155357419Y-116647142D01*
X155357419Y-116647142D02*
X155405038Y-116551904D01*
X155405038Y-116551904D02*
X155452657Y-116504285D01*
X155452657Y-116504285D02*
X155547895Y-116456666D01*
X155547895Y-116456666D02*
X155690752Y-116456666D01*
X155690752Y-116456666D02*
X155785990Y-116504285D01*
X155785990Y-116504285D02*
X155833609Y-116551904D01*
X155833609Y-116551904D02*
X155881228Y-116647142D01*
X155881228Y-116647142D02*
X155881228Y-117028094D01*
X156357419Y-116028094D02*
X155357419Y-116028094D01*
X155357419Y-116028094D02*
X155357419Y-115789999D01*
X155357419Y-115789999D02*
X155405038Y-115647142D01*
X155405038Y-115647142D02*
X155500276Y-115551904D01*
X155500276Y-115551904D02*
X155595514Y-115504285D01*
X155595514Y-115504285D02*
X155785990Y-115456666D01*
X155785990Y-115456666D02*
X155928847Y-115456666D01*
X155928847Y-115456666D02*
X156119323Y-115504285D01*
X156119323Y-115504285D02*
X156214561Y-115551904D01*
X156214561Y-115551904D02*
X156309800Y-115647142D01*
X156309800Y-115647142D02*
X156357419Y-115789999D01*
X156357419Y-115789999D02*
X156357419Y-116028094D01*
X155357419Y-114599523D02*
X155357419Y-114789999D01*
X155357419Y-114789999D02*
X155405038Y-114885237D01*
X155405038Y-114885237D02*
X155452657Y-114932856D01*
X155452657Y-114932856D02*
X155595514Y-115028094D01*
X155595514Y-115028094D02*
X155785990Y-115075713D01*
X155785990Y-115075713D02*
X156166942Y-115075713D01*
X156166942Y-115075713D02*
X156262180Y-115028094D01*
X156262180Y-115028094D02*
X156309800Y-114980475D01*
X156309800Y-114980475D02*
X156357419Y-114885237D01*
X156357419Y-114885237D02*
X156357419Y-114694761D01*
X156357419Y-114694761D02*
X156309800Y-114599523D01*
X156309800Y-114599523D02*
X156262180Y-114551904D01*
X156262180Y-114551904D02*
X156166942Y-114504285D01*
X156166942Y-114504285D02*
X155928847Y-114504285D01*
X155928847Y-114504285D02*
X155833609Y-114551904D01*
X155833609Y-114551904D02*
X155785990Y-114599523D01*
X155785990Y-114599523D02*
X155738371Y-114694761D01*
X155738371Y-114694761D02*
X155738371Y-114885237D01*
X155738371Y-114885237D02*
X155785990Y-114980475D01*
X155785990Y-114980475D02*
X155833609Y-115028094D01*
X155833609Y-115028094D02*
X155928847Y-115075713D01*
X175227693Y-114960038D02*
X175132455Y-114912419D01*
X175132455Y-114912419D02*
X174989598Y-114912419D01*
X174989598Y-114912419D02*
X174846741Y-114960038D01*
X174846741Y-114960038D02*
X174751503Y-115055276D01*
X174751503Y-115055276D02*
X174703884Y-115150514D01*
X174703884Y-115150514D02*
X174656265Y-115340990D01*
X174656265Y-115340990D02*
X174656265Y-115483847D01*
X174656265Y-115483847D02*
X174703884Y-115674323D01*
X174703884Y-115674323D02*
X174751503Y-115769561D01*
X174751503Y-115769561D02*
X174846741Y-115864800D01*
X174846741Y-115864800D02*
X174989598Y-115912419D01*
X174989598Y-115912419D02*
X175084836Y-115912419D01*
X175084836Y-115912419D02*
X175227693Y-115864800D01*
X175227693Y-115864800D02*
X175275312Y-115817180D01*
X175275312Y-115817180D02*
X175275312Y-115483847D01*
X175275312Y-115483847D02*
X175084836Y-115483847D01*
X175703884Y-115912419D02*
X175703884Y-114912419D01*
X175703884Y-114912419D02*
X176275312Y-115912419D01*
X176275312Y-115912419D02*
X176275312Y-114912419D01*
X176751503Y-115912419D02*
X176751503Y-114912419D01*
X176751503Y-114912419D02*
X176989598Y-114912419D01*
X176989598Y-114912419D02*
X177132455Y-114960038D01*
X177132455Y-114960038D02*
X177227693Y-115055276D01*
X177227693Y-115055276D02*
X177275312Y-115150514D01*
X177275312Y-115150514D02*
X177322931Y-115340990D01*
X177322931Y-115340990D02*
X177322931Y-115483847D01*
X177322931Y-115483847D02*
X177275312Y-115674323D01*
X177275312Y-115674323D02*
X177227693Y-115769561D01*
X177227693Y-115769561D02*
X177132455Y-115864800D01*
X177132455Y-115864800D02*
X176989598Y-115912419D01*
X176989598Y-115912419D02*
X176751503Y-115912419D01*
X165107419Y-78278094D02*
X164107419Y-78278094D01*
X164107419Y-78278094D02*
X164107419Y-77897142D01*
X164107419Y-77897142D02*
X164155038Y-77801904D01*
X164155038Y-77801904D02*
X164202657Y-77754285D01*
X164202657Y-77754285D02*
X164297895Y-77706666D01*
X164297895Y-77706666D02*
X164440752Y-77706666D01*
X164440752Y-77706666D02*
X164535990Y-77754285D01*
X164535990Y-77754285D02*
X164583609Y-77801904D01*
X164583609Y-77801904D02*
X164631228Y-77897142D01*
X164631228Y-77897142D02*
X164631228Y-78278094D01*
X164583609Y-76944761D02*
X164631228Y-76801904D01*
X164631228Y-76801904D02*
X164678847Y-76754285D01*
X164678847Y-76754285D02*
X164774085Y-76706666D01*
X164774085Y-76706666D02*
X164916942Y-76706666D01*
X164916942Y-76706666D02*
X165012180Y-76754285D01*
X165012180Y-76754285D02*
X165059800Y-76801904D01*
X165059800Y-76801904D02*
X165107419Y-76897142D01*
X165107419Y-76897142D02*
X165107419Y-77278094D01*
X165107419Y-77278094D02*
X164107419Y-77278094D01*
X164107419Y-77278094D02*
X164107419Y-76944761D01*
X164107419Y-76944761D02*
X164155038Y-76849523D01*
X164155038Y-76849523D02*
X164202657Y-76801904D01*
X164202657Y-76801904D02*
X164297895Y-76754285D01*
X164297895Y-76754285D02*
X164393133Y-76754285D01*
X164393133Y-76754285D02*
X164488371Y-76801904D01*
X164488371Y-76801904D02*
X164535990Y-76849523D01*
X164535990Y-76849523D02*
X164583609Y-76944761D01*
X164583609Y-76944761D02*
X164583609Y-77278094D01*
X164107419Y-75801904D02*
X164107419Y-76278094D01*
X164107419Y-76278094D02*
X164583609Y-76325713D01*
X164583609Y-76325713D02*
X164535990Y-76278094D01*
X164535990Y-76278094D02*
X164488371Y-76182856D01*
X164488371Y-76182856D02*
X164488371Y-75944761D01*
X164488371Y-75944761D02*
X164535990Y-75849523D01*
X164535990Y-75849523D02*
X164583609Y-75801904D01*
X164583609Y-75801904D02*
X164678847Y-75754285D01*
X164678847Y-75754285D02*
X164916942Y-75754285D01*
X164916942Y-75754285D02*
X165012180Y-75801904D01*
X165012180Y-75801904D02*
X165059800Y-75849523D01*
X165059800Y-75849523D02*
X165107419Y-75944761D01*
X165107419Y-75944761D02*
X165107419Y-76182856D01*
X165107419Y-76182856D02*
X165059800Y-76278094D01*
X165059800Y-76278094D02*
X165012180Y-76325713D01*
X141107419Y-117028094D02*
X140107419Y-117028094D01*
X140107419Y-117028094D02*
X140107419Y-116647142D01*
X140107419Y-116647142D02*
X140155038Y-116551904D01*
X140155038Y-116551904D02*
X140202657Y-116504285D01*
X140202657Y-116504285D02*
X140297895Y-116456666D01*
X140297895Y-116456666D02*
X140440752Y-116456666D01*
X140440752Y-116456666D02*
X140535990Y-116504285D01*
X140535990Y-116504285D02*
X140583609Y-116551904D01*
X140583609Y-116551904D02*
X140631228Y-116647142D01*
X140631228Y-116647142D02*
X140631228Y-117028094D01*
X141107419Y-116028094D02*
X140107419Y-116028094D01*
X140107419Y-116028094D02*
X140107419Y-115789999D01*
X140107419Y-115789999D02*
X140155038Y-115647142D01*
X140155038Y-115647142D02*
X140250276Y-115551904D01*
X140250276Y-115551904D02*
X140345514Y-115504285D01*
X140345514Y-115504285D02*
X140535990Y-115456666D01*
X140535990Y-115456666D02*
X140678847Y-115456666D01*
X140678847Y-115456666D02*
X140869323Y-115504285D01*
X140869323Y-115504285D02*
X140964561Y-115551904D01*
X140964561Y-115551904D02*
X141059800Y-115647142D01*
X141059800Y-115647142D02*
X141107419Y-115789999D01*
X141107419Y-115789999D02*
X141107419Y-116028094D01*
X140107419Y-114837618D02*
X140107419Y-114742380D01*
X140107419Y-114742380D02*
X140155038Y-114647142D01*
X140155038Y-114647142D02*
X140202657Y-114599523D01*
X140202657Y-114599523D02*
X140297895Y-114551904D01*
X140297895Y-114551904D02*
X140488371Y-114504285D01*
X140488371Y-114504285D02*
X140726466Y-114504285D01*
X140726466Y-114504285D02*
X140916942Y-114551904D01*
X140916942Y-114551904D02*
X141012180Y-114599523D01*
X141012180Y-114599523D02*
X141059800Y-114647142D01*
X141059800Y-114647142D02*
X141107419Y-114742380D01*
X141107419Y-114742380D02*
X141107419Y-114837618D01*
X141107419Y-114837618D02*
X141059800Y-114932856D01*
X141059800Y-114932856D02*
X141012180Y-114980475D01*
X141012180Y-114980475D02*
X140916942Y-115028094D01*
X140916942Y-115028094D02*
X140726466Y-115075713D01*
X140726466Y-115075713D02*
X140488371Y-115075713D01*
X140488371Y-115075713D02*
X140297895Y-115028094D01*
X140297895Y-115028094D02*
X140202657Y-114980475D01*
X140202657Y-114980475D02*
X140155038Y-114932856D01*
X140155038Y-114932856D02*
X140107419Y-114837618D01*
X148607419Y-117028094D02*
X147607419Y-117028094D01*
X147607419Y-117028094D02*
X147607419Y-116647142D01*
X147607419Y-116647142D02*
X147655038Y-116551904D01*
X147655038Y-116551904D02*
X147702657Y-116504285D01*
X147702657Y-116504285D02*
X147797895Y-116456666D01*
X147797895Y-116456666D02*
X147940752Y-116456666D01*
X147940752Y-116456666D02*
X148035990Y-116504285D01*
X148035990Y-116504285D02*
X148083609Y-116551904D01*
X148083609Y-116551904D02*
X148131228Y-116647142D01*
X148131228Y-116647142D02*
X148131228Y-117028094D01*
X148607419Y-116028094D02*
X147607419Y-116028094D01*
X147607419Y-116028094D02*
X147607419Y-115789999D01*
X147607419Y-115789999D02*
X147655038Y-115647142D01*
X147655038Y-115647142D02*
X147750276Y-115551904D01*
X147750276Y-115551904D02*
X147845514Y-115504285D01*
X147845514Y-115504285D02*
X148035990Y-115456666D01*
X148035990Y-115456666D02*
X148178847Y-115456666D01*
X148178847Y-115456666D02*
X148369323Y-115504285D01*
X148369323Y-115504285D02*
X148464561Y-115551904D01*
X148464561Y-115551904D02*
X148559800Y-115647142D01*
X148559800Y-115647142D02*
X148607419Y-115789999D01*
X148607419Y-115789999D02*
X148607419Y-116028094D01*
X147607419Y-115123332D02*
X147607419Y-114504285D01*
X147607419Y-114504285D02*
X147988371Y-114837618D01*
X147988371Y-114837618D02*
X147988371Y-114694761D01*
X147988371Y-114694761D02*
X148035990Y-114599523D01*
X148035990Y-114599523D02*
X148083609Y-114551904D01*
X148083609Y-114551904D02*
X148178847Y-114504285D01*
X148178847Y-114504285D02*
X148416942Y-114504285D01*
X148416942Y-114504285D02*
X148512180Y-114551904D01*
X148512180Y-114551904D02*
X148559800Y-114599523D01*
X148559800Y-114599523D02*
X148607419Y-114694761D01*
X148607419Y-114694761D02*
X148607419Y-114980475D01*
X148607419Y-114980475D02*
X148559800Y-115075713D01*
X148559800Y-115075713D02*
X148512180Y-115123332D01*
D12*
X170066666Y-82594819D02*
X170066666Y-83309104D01*
X170066666Y-83309104D02*
X170019047Y-83451961D01*
X170019047Y-83451961D02*
X169923809Y-83547200D01*
X169923809Y-83547200D02*
X169780952Y-83594819D01*
X169780952Y-83594819D02*
X169685714Y-83594819D01*
X170971428Y-82928152D02*
X170971428Y-83594819D01*
X170733333Y-82547200D02*
X170495238Y-83261485D01*
X170495238Y-83261485D02*
X171114285Y-83261485D01*
X158033333Y-73794819D02*
X157700000Y-73318628D01*
X157461905Y-73794819D02*
X157461905Y-72794819D01*
X157461905Y-72794819D02*
X157842857Y-72794819D01*
X157842857Y-72794819D02*
X157938095Y-72842438D01*
X157938095Y-72842438D02*
X157985714Y-72890057D01*
X157985714Y-72890057D02*
X158033333Y-72985295D01*
X158033333Y-72985295D02*
X158033333Y-73128152D01*
X158033333Y-73128152D02*
X157985714Y-73223390D01*
X157985714Y-73223390D02*
X157938095Y-73271009D01*
X157938095Y-73271009D02*
X157842857Y-73318628D01*
X157842857Y-73318628D02*
X157461905Y-73318628D01*
X158366667Y-72794819D02*
X158985714Y-72794819D01*
X158985714Y-72794819D02*
X158652381Y-73175771D01*
X158652381Y-73175771D02*
X158795238Y-73175771D01*
X158795238Y-73175771D02*
X158890476Y-73223390D01*
X158890476Y-73223390D02*
X158938095Y-73271009D01*
X158938095Y-73271009D02*
X158985714Y-73366247D01*
X158985714Y-73366247D02*
X158985714Y-73604342D01*
X158985714Y-73604342D02*
X158938095Y-73699580D01*
X158938095Y-73699580D02*
X158890476Y-73747200D01*
X158890476Y-73747200D02*
X158795238Y-73794819D01*
X158795238Y-73794819D02*
X158509524Y-73794819D01*
X158509524Y-73794819D02*
X158414286Y-73747200D01*
X158414286Y-73747200D02*
X158366667Y-73699580D01*
X160074580Y-109206666D02*
X160122200Y-109254285D01*
X160122200Y-109254285D02*
X160169819Y-109397142D01*
X160169819Y-109397142D02*
X160169819Y-109492380D01*
X160169819Y-109492380D02*
X160122200Y-109635237D01*
X160122200Y-109635237D02*
X160026961Y-109730475D01*
X160026961Y-109730475D02*
X159931723Y-109778094D01*
X159931723Y-109778094D02*
X159741247Y-109825713D01*
X159741247Y-109825713D02*
X159598390Y-109825713D01*
X159598390Y-109825713D02*
X159407914Y-109778094D01*
X159407914Y-109778094D02*
X159312676Y-109730475D01*
X159312676Y-109730475D02*
X159217438Y-109635237D01*
X159217438Y-109635237D02*
X159169819Y-109492380D01*
X159169819Y-109492380D02*
X159169819Y-109397142D01*
X159169819Y-109397142D02*
X159217438Y-109254285D01*
X159217438Y-109254285D02*
X159265057Y-109206666D01*
X159265057Y-108825713D02*
X159217438Y-108778094D01*
X159217438Y-108778094D02*
X159169819Y-108682856D01*
X159169819Y-108682856D02*
X159169819Y-108444761D01*
X159169819Y-108444761D02*
X159217438Y-108349523D01*
X159217438Y-108349523D02*
X159265057Y-108301904D01*
X159265057Y-108301904D02*
X159360295Y-108254285D01*
X159360295Y-108254285D02*
X159455533Y-108254285D01*
X159455533Y-108254285D02*
X159598390Y-108301904D01*
X159598390Y-108301904D02*
X160169819Y-108873332D01*
X160169819Y-108873332D02*
X160169819Y-108254285D01*
X131566667Y-95327200D02*
X131709524Y-95374819D01*
X131709524Y-95374819D02*
X131947619Y-95374819D01*
X131947619Y-95374819D02*
X132042857Y-95327200D01*
X132042857Y-95327200D02*
X132090476Y-95279580D01*
X132090476Y-95279580D02*
X132138095Y-95184342D01*
X132138095Y-95184342D02*
X132138095Y-95089104D01*
X132138095Y-95089104D02*
X132090476Y-94993866D01*
X132090476Y-94993866D02*
X132042857Y-94946247D01*
X132042857Y-94946247D02*
X131947619Y-94898628D01*
X131947619Y-94898628D02*
X131757143Y-94851009D01*
X131757143Y-94851009D02*
X131661905Y-94803390D01*
X131661905Y-94803390D02*
X131614286Y-94755771D01*
X131614286Y-94755771D02*
X131566667Y-94660533D01*
X131566667Y-94660533D02*
X131566667Y-94565295D01*
X131566667Y-94565295D02*
X131614286Y-94470057D01*
X131614286Y-94470057D02*
X131661905Y-94422438D01*
X131661905Y-94422438D02*
X131757143Y-94374819D01*
X131757143Y-94374819D02*
X131995238Y-94374819D01*
X131995238Y-94374819D02*
X132138095Y-94422438D01*
X132471429Y-94374819D02*
X132709524Y-95374819D01*
X132709524Y-95374819D02*
X132900000Y-94660533D01*
X132900000Y-94660533D02*
X133090476Y-95374819D01*
X133090476Y-95374819D02*
X133328572Y-94374819D01*
X134233333Y-95374819D02*
X133661905Y-95374819D01*
X133947619Y-95374819D02*
X133947619Y-94374819D01*
X133947619Y-94374819D02*
X133852381Y-94517676D01*
X133852381Y-94517676D02*
X133757143Y-94612914D01*
X133757143Y-94612914D02*
X133661905Y-94660533D01*
X119189166Y-115932319D02*
X119189166Y-116646604D01*
X119189166Y-116646604D02*
X119141547Y-116789461D01*
X119141547Y-116789461D02*
X119046309Y-116884700D01*
X119046309Y-116884700D02*
X118903452Y-116932319D01*
X118903452Y-116932319D02*
X118808214Y-116932319D01*
X120093928Y-115932319D02*
X119903452Y-115932319D01*
X119903452Y-115932319D02*
X119808214Y-115979938D01*
X119808214Y-115979938D02*
X119760595Y-116027557D01*
X119760595Y-116027557D02*
X119665357Y-116170414D01*
X119665357Y-116170414D02*
X119617738Y-116360890D01*
X119617738Y-116360890D02*
X119617738Y-116741842D01*
X119617738Y-116741842D02*
X119665357Y-116837080D01*
X119665357Y-116837080D02*
X119712976Y-116884700D01*
X119712976Y-116884700D02*
X119808214Y-116932319D01*
X119808214Y-116932319D02*
X119998690Y-116932319D01*
X119998690Y-116932319D02*
X120093928Y-116884700D01*
X120093928Y-116884700D02*
X120141547Y-116837080D01*
X120141547Y-116837080D02*
X120189166Y-116741842D01*
X120189166Y-116741842D02*
X120189166Y-116503747D01*
X120189166Y-116503747D02*
X120141547Y-116408509D01*
X120141547Y-116408509D02*
X120093928Y-116360890D01*
X120093928Y-116360890D02*
X119998690Y-116313271D01*
X119998690Y-116313271D02*
X119808214Y-116313271D01*
X119808214Y-116313271D02*
X119712976Y-116360890D01*
X119712976Y-116360890D02*
X119665357Y-116408509D01*
X119665357Y-116408509D02*
X119617738Y-116503747D01*
X140271666Y-108969819D02*
X140271666Y-109684104D01*
X140271666Y-109684104D02*
X140224047Y-109826961D01*
X140224047Y-109826961D02*
X140128809Y-109922200D01*
X140128809Y-109922200D02*
X139985952Y-109969819D01*
X139985952Y-109969819D02*
X139890714Y-109969819D01*
X141271666Y-109969819D02*
X140700238Y-109969819D01*
X140985952Y-109969819D02*
X140985952Y-108969819D01*
X140985952Y-108969819D02*
X140890714Y-109112676D01*
X140890714Y-109112676D02*
X140795476Y-109207914D01*
X140795476Y-109207914D02*
X140700238Y-109255533D01*
X145473333Y-104364819D02*
X145140000Y-103888628D01*
X144901905Y-104364819D02*
X144901905Y-103364819D01*
X144901905Y-103364819D02*
X145282857Y-103364819D01*
X145282857Y-103364819D02*
X145378095Y-103412438D01*
X145378095Y-103412438D02*
X145425714Y-103460057D01*
X145425714Y-103460057D02*
X145473333Y-103555295D01*
X145473333Y-103555295D02*
X145473333Y-103698152D01*
X145473333Y-103698152D02*
X145425714Y-103793390D01*
X145425714Y-103793390D02*
X145378095Y-103841009D01*
X145378095Y-103841009D02*
X145282857Y-103888628D01*
X145282857Y-103888628D02*
X144901905Y-103888628D01*
X146425714Y-104364819D02*
X145854286Y-104364819D01*
X146140000Y-104364819D02*
X146140000Y-103364819D01*
X146140000Y-103364819D02*
X146044762Y-103507676D01*
X146044762Y-103507676D02*
X145949524Y-103602914D01*
X145949524Y-103602914D02*
X145854286Y-103650533D01*
X127254819Y-83301904D02*
X128064342Y-83301904D01*
X128064342Y-83301904D02*
X128159580Y-83254285D01*
X128159580Y-83254285D02*
X128207200Y-83206666D01*
X128207200Y-83206666D02*
X128254819Y-83111428D01*
X128254819Y-83111428D02*
X128254819Y-82920952D01*
X128254819Y-82920952D02*
X128207200Y-82825714D01*
X128207200Y-82825714D02*
X128159580Y-82778095D01*
X128159580Y-82778095D02*
X128064342Y-82730476D01*
X128064342Y-82730476D02*
X127254819Y-82730476D01*
X127350057Y-82301904D02*
X127302438Y-82254285D01*
X127302438Y-82254285D02*
X127254819Y-82159047D01*
X127254819Y-82159047D02*
X127254819Y-81920952D01*
X127254819Y-81920952D02*
X127302438Y-81825714D01*
X127302438Y-81825714D02*
X127350057Y-81778095D01*
X127350057Y-81778095D02*
X127445295Y-81730476D01*
X127445295Y-81730476D02*
X127540533Y-81730476D01*
X127540533Y-81730476D02*
X127683390Y-81778095D01*
X127683390Y-81778095D02*
X128254819Y-82349523D01*
X128254819Y-82349523D02*
X128254819Y-81730476D01*
X148366666Y-77494819D02*
X148366666Y-78209104D01*
X148366666Y-78209104D02*
X148319047Y-78351961D01*
X148319047Y-78351961D02*
X148223809Y-78447200D01*
X148223809Y-78447200D02*
X148080952Y-78494819D01*
X148080952Y-78494819D02*
X147985714Y-78494819D01*
X148747619Y-77494819D02*
X149366666Y-77494819D01*
X149366666Y-77494819D02*
X149033333Y-77875771D01*
X149033333Y-77875771D02*
X149176190Y-77875771D01*
X149176190Y-77875771D02*
X149271428Y-77923390D01*
X149271428Y-77923390D02*
X149319047Y-77971009D01*
X149319047Y-77971009D02*
X149366666Y-78066247D01*
X149366666Y-78066247D02*
X149366666Y-78304342D01*
X149366666Y-78304342D02*
X149319047Y-78399580D01*
X149319047Y-78399580D02*
X149271428Y-78447200D01*
X149271428Y-78447200D02*
X149176190Y-78494819D01*
X149176190Y-78494819D02*
X148890476Y-78494819D01*
X148890476Y-78494819D02*
X148795238Y-78447200D01*
X148795238Y-78447200D02*
X148747619Y-78399580D01*
X169889580Y-109206666D02*
X169937200Y-109254285D01*
X169937200Y-109254285D02*
X169984819Y-109397142D01*
X169984819Y-109397142D02*
X169984819Y-109492380D01*
X169984819Y-109492380D02*
X169937200Y-109635237D01*
X169937200Y-109635237D02*
X169841961Y-109730475D01*
X169841961Y-109730475D02*
X169746723Y-109778094D01*
X169746723Y-109778094D02*
X169556247Y-109825713D01*
X169556247Y-109825713D02*
X169413390Y-109825713D01*
X169413390Y-109825713D02*
X169222914Y-109778094D01*
X169222914Y-109778094D02*
X169127676Y-109730475D01*
X169127676Y-109730475D02*
X169032438Y-109635237D01*
X169032438Y-109635237D02*
X168984819Y-109492380D01*
X168984819Y-109492380D02*
X168984819Y-109397142D01*
X168984819Y-109397142D02*
X169032438Y-109254285D01*
X169032438Y-109254285D02*
X169080057Y-109206666D01*
X169984819Y-108254285D02*
X169984819Y-108825713D01*
X169984819Y-108539999D02*
X168984819Y-108539999D01*
X168984819Y-108539999D02*
X169127676Y-108635237D01*
X169127676Y-108635237D02*
X169222914Y-108730475D01*
X169222914Y-108730475D02*
X169270533Y-108825713D01*
X132724819Y-81706666D02*
X132248628Y-82039999D01*
X132724819Y-82278094D02*
X131724819Y-82278094D01*
X131724819Y-82278094D02*
X131724819Y-81897142D01*
X131724819Y-81897142D02*
X131772438Y-81801904D01*
X131772438Y-81801904D02*
X131820057Y-81754285D01*
X131820057Y-81754285D02*
X131915295Y-81706666D01*
X131915295Y-81706666D02*
X132058152Y-81706666D01*
X132058152Y-81706666D02*
X132153390Y-81754285D01*
X132153390Y-81754285D02*
X132201009Y-81801904D01*
X132201009Y-81801904D02*
X132248628Y-81897142D01*
X132248628Y-81897142D02*
X132248628Y-82278094D01*
X131820057Y-81325713D02*
X131772438Y-81278094D01*
X131772438Y-81278094D02*
X131724819Y-81182856D01*
X131724819Y-81182856D02*
X131724819Y-80944761D01*
X131724819Y-80944761D02*
X131772438Y-80849523D01*
X131772438Y-80849523D02*
X131820057Y-80801904D01*
X131820057Y-80801904D02*
X131915295Y-80754285D01*
X131915295Y-80754285D02*
X132010533Y-80754285D01*
X132010533Y-80754285D02*
X132153390Y-80801904D01*
X132153390Y-80801904D02*
X132724819Y-81373332D01*
X132724819Y-81373332D02*
X132724819Y-80754285D01*
X122833333Y-93099580D02*
X122785714Y-93147200D01*
X122785714Y-93147200D02*
X122642857Y-93194819D01*
X122642857Y-93194819D02*
X122547619Y-93194819D01*
X122547619Y-93194819D02*
X122404762Y-93147200D01*
X122404762Y-93147200D02*
X122309524Y-93051961D01*
X122309524Y-93051961D02*
X122261905Y-92956723D01*
X122261905Y-92956723D02*
X122214286Y-92766247D01*
X122214286Y-92766247D02*
X122214286Y-92623390D01*
X122214286Y-92623390D02*
X122261905Y-92432914D01*
X122261905Y-92432914D02*
X122309524Y-92337676D01*
X122309524Y-92337676D02*
X122404762Y-92242438D01*
X122404762Y-92242438D02*
X122547619Y-92194819D01*
X122547619Y-92194819D02*
X122642857Y-92194819D01*
X122642857Y-92194819D02*
X122785714Y-92242438D01*
X122785714Y-92242438D02*
X122833333Y-92290057D01*
X123690476Y-92194819D02*
X123500000Y-92194819D01*
X123500000Y-92194819D02*
X123404762Y-92242438D01*
X123404762Y-92242438D02*
X123357143Y-92290057D01*
X123357143Y-92290057D02*
X123261905Y-92432914D01*
X123261905Y-92432914D02*
X123214286Y-92623390D01*
X123214286Y-92623390D02*
X123214286Y-93004342D01*
X123214286Y-93004342D02*
X123261905Y-93099580D01*
X123261905Y-93099580D02*
X123309524Y-93147200D01*
X123309524Y-93147200D02*
X123404762Y-93194819D01*
X123404762Y-93194819D02*
X123595238Y-93194819D01*
X123595238Y-93194819D02*
X123690476Y-93147200D01*
X123690476Y-93147200D02*
X123738095Y-93099580D01*
X123738095Y-93099580D02*
X123785714Y-93004342D01*
X123785714Y-93004342D02*
X123785714Y-92766247D01*
X123785714Y-92766247D02*
X123738095Y-92671009D01*
X123738095Y-92671009D02*
X123690476Y-92623390D01*
X123690476Y-92623390D02*
X123595238Y-92575771D01*
X123595238Y-92575771D02*
X123404762Y-92575771D01*
X123404762Y-92575771D02*
X123309524Y-92623390D01*
X123309524Y-92623390D02*
X123261905Y-92671009D01*
X123261905Y-92671009D02*
X123214286Y-92766247D01*
X117633333Y-82899580D02*
X117585714Y-82947200D01*
X117585714Y-82947200D02*
X117442857Y-82994819D01*
X117442857Y-82994819D02*
X117347619Y-82994819D01*
X117347619Y-82994819D02*
X117204762Y-82947200D01*
X117204762Y-82947200D02*
X117109524Y-82851961D01*
X117109524Y-82851961D02*
X117061905Y-82756723D01*
X117061905Y-82756723D02*
X117014286Y-82566247D01*
X117014286Y-82566247D02*
X117014286Y-82423390D01*
X117014286Y-82423390D02*
X117061905Y-82232914D01*
X117061905Y-82232914D02*
X117109524Y-82137676D01*
X117109524Y-82137676D02*
X117204762Y-82042438D01*
X117204762Y-82042438D02*
X117347619Y-81994819D01*
X117347619Y-81994819D02*
X117442857Y-81994819D01*
X117442857Y-81994819D02*
X117585714Y-82042438D01*
X117585714Y-82042438D02*
X117633333Y-82090057D01*
X117966667Y-81994819D02*
X118585714Y-81994819D01*
X118585714Y-81994819D02*
X118252381Y-82375771D01*
X118252381Y-82375771D02*
X118395238Y-82375771D01*
X118395238Y-82375771D02*
X118490476Y-82423390D01*
X118490476Y-82423390D02*
X118538095Y-82471009D01*
X118538095Y-82471009D02*
X118585714Y-82566247D01*
X118585714Y-82566247D02*
X118585714Y-82804342D01*
X118585714Y-82804342D02*
X118538095Y-82899580D01*
X118538095Y-82899580D02*
X118490476Y-82947200D01*
X118490476Y-82947200D02*
X118395238Y-82994819D01*
X118395238Y-82994819D02*
X118109524Y-82994819D01*
X118109524Y-82994819D02*
X118014286Y-82947200D01*
X118014286Y-82947200D02*
X117966667Y-82899580D01*
X164113809Y-104538628D02*
X164113809Y-105014819D01*
X163780476Y-104014819D02*
X164113809Y-104538628D01*
X164113809Y-104538628D02*
X164447142Y-104014819D01*
X165304285Y-105014819D02*
X164732857Y-105014819D01*
X165018571Y-105014819D02*
X165018571Y-104014819D01*
X165018571Y-104014819D02*
X164923333Y-104157676D01*
X164923333Y-104157676D02*
X164828095Y-104252914D01*
X164828095Y-104252914D02*
X164732857Y-104300533D01*
X187454819Y-112873333D02*
X188169104Y-112873333D01*
X188169104Y-112873333D02*
X188311961Y-112920952D01*
X188311961Y-112920952D02*
X188407200Y-113016190D01*
X188407200Y-113016190D02*
X188454819Y-113159047D01*
X188454819Y-113159047D02*
X188454819Y-113254285D01*
X187550057Y-112444761D02*
X187502438Y-112397142D01*
X187502438Y-112397142D02*
X187454819Y-112301904D01*
X187454819Y-112301904D02*
X187454819Y-112063809D01*
X187454819Y-112063809D02*
X187502438Y-111968571D01*
X187502438Y-111968571D02*
X187550057Y-111920952D01*
X187550057Y-111920952D02*
X187645295Y-111873333D01*
X187645295Y-111873333D02*
X187740533Y-111873333D01*
X187740533Y-111873333D02*
X187883390Y-111920952D01*
X187883390Y-111920952D02*
X188454819Y-112492380D01*
X188454819Y-112492380D02*
X188454819Y-111873333D01*
X127394819Y-91008094D02*
X126394819Y-91008094D01*
X126394819Y-91008094D02*
X126394819Y-90769999D01*
X126394819Y-90769999D02*
X126442438Y-90627142D01*
X126442438Y-90627142D02*
X126537676Y-90531904D01*
X126537676Y-90531904D02*
X126632914Y-90484285D01*
X126632914Y-90484285D02*
X126823390Y-90436666D01*
X126823390Y-90436666D02*
X126966247Y-90436666D01*
X126966247Y-90436666D02*
X127156723Y-90484285D01*
X127156723Y-90484285D02*
X127251961Y-90531904D01*
X127251961Y-90531904D02*
X127347200Y-90627142D01*
X127347200Y-90627142D02*
X127394819Y-90769999D01*
X127394819Y-90769999D02*
X127394819Y-91008094D01*
X127394819Y-89484285D02*
X127394819Y-90055713D01*
X127394819Y-89769999D02*
X126394819Y-89769999D01*
X126394819Y-89769999D02*
X126537676Y-89865237D01*
X126537676Y-89865237D02*
X126632914Y-89960475D01*
X126632914Y-89960475D02*
X126680533Y-90055713D01*
X122633333Y-72899580D02*
X122585714Y-72947200D01*
X122585714Y-72947200D02*
X122442857Y-72994819D01*
X122442857Y-72994819D02*
X122347619Y-72994819D01*
X122347619Y-72994819D02*
X122204762Y-72947200D01*
X122204762Y-72947200D02*
X122109524Y-72851961D01*
X122109524Y-72851961D02*
X122061905Y-72756723D01*
X122061905Y-72756723D02*
X122014286Y-72566247D01*
X122014286Y-72566247D02*
X122014286Y-72423390D01*
X122014286Y-72423390D02*
X122061905Y-72232914D01*
X122061905Y-72232914D02*
X122109524Y-72137676D01*
X122109524Y-72137676D02*
X122204762Y-72042438D01*
X122204762Y-72042438D02*
X122347619Y-71994819D01*
X122347619Y-71994819D02*
X122442857Y-71994819D01*
X122442857Y-71994819D02*
X122585714Y-72042438D01*
X122585714Y-72042438D02*
X122633333Y-72090057D01*
X123538095Y-71994819D02*
X123061905Y-71994819D01*
X123061905Y-71994819D02*
X123014286Y-72471009D01*
X123014286Y-72471009D02*
X123061905Y-72423390D01*
X123061905Y-72423390D02*
X123157143Y-72375771D01*
X123157143Y-72375771D02*
X123395238Y-72375771D01*
X123395238Y-72375771D02*
X123490476Y-72423390D01*
X123490476Y-72423390D02*
X123538095Y-72471009D01*
X123538095Y-72471009D02*
X123585714Y-72566247D01*
X123585714Y-72566247D02*
X123585714Y-72804342D01*
X123585714Y-72804342D02*
X123538095Y-72899580D01*
X123538095Y-72899580D02*
X123490476Y-72947200D01*
X123490476Y-72947200D02*
X123395238Y-72994819D01*
X123395238Y-72994819D02*
X123157143Y-72994819D01*
X123157143Y-72994819D02*
X123061905Y-72947200D01*
X123061905Y-72947200D02*
X123014286Y-72899580D01*
X183666666Y-77894819D02*
X183666666Y-78609104D01*
X183666666Y-78609104D02*
X183619047Y-78751961D01*
X183619047Y-78751961D02*
X183523809Y-78847200D01*
X183523809Y-78847200D02*
X183380952Y-78894819D01*
X183380952Y-78894819D02*
X183285714Y-78894819D01*
X184619047Y-77894819D02*
X184142857Y-77894819D01*
X184142857Y-77894819D02*
X184095238Y-78371009D01*
X184095238Y-78371009D02*
X184142857Y-78323390D01*
X184142857Y-78323390D02*
X184238095Y-78275771D01*
X184238095Y-78275771D02*
X184476190Y-78275771D01*
X184476190Y-78275771D02*
X184571428Y-78323390D01*
X184571428Y-78323390D02*
X184619047Y-78371009D01*
X184619047Y-78371009D02*
X184666666Y-78466247D01*
X184666666Y-78466247D02*
X184666666Y-78704342D01*
X184666666Y-78704342D02*
X184619047Y-78799580D01*
X184619047Y-78799580D02*
X184571428Y-78847200D01*
X184571428Y-78847200D02*
X184476190Y-78894819D01*
X184476190Y-78894819D02*
X184238095Y-78894819D01*
X184238095Y-78894819D02*
X184142857Y-78847200D01*
X184142857Y-78847200D02*
X184095238Y-78799580D01*
X126966666Y-104694819D02*
X126966666Y-105409104D01*
X126966666Y-105409104D02*
X126919047Y-105551961D01*
X126919047Y-105551961D02*
X126823809Y-105647200D01*
X126823809Y-105647200D02*
X126680952Y-105694819D01*
X126680952Y-105694819D02*
X126585714Y-105694819D01*
X127347619Y-104694819D02*
X128014285Y-104694819D01*
X128014285Y-104694819D02*
X127585714Y-105694819D01*
X117633333Y-74899580D02*
X117585714Y-74947200D01*
X117585714Y-74947200D02*
X117442857Y-74994819D01*
X117442857Y-74994819D02*
X117347619Y-74994819D01*
X117347619Y-74994819D02*
X117204762Y-74947200D01*
X117204762Y-74947200D02*
X117109524Y-74851961D01*
X117109524Y-74851961D02*
X117061905Y-74756723D01*
X117061905Y-74756723D02*
X117014286Y-74566247D01*
X117014286Y-74566247D02*
X117014286Y-74423390D01*
X117014286Y-74423390D02*
X117061905Y-74232914D01*
X117061905Y-74232914D02*
X117109524Y-74137676D01*
X117109524Y-74137676D02*
X117204762Y-74042438D01*
X117204762Y-74042438D02*
X117347619Y-73994819D01*
X117347619Y-73994819D02*
X117442857Y-73994819D01*
X117442857Y-73994819D02*
X117585714Y-74042438D01*
X117585714Y-74042438D02*
X117633333Y-74090057D01*
X118490476Y-74328152D02*
X118490476Y-74994819D01*
X118252381Y-73947200D02*
X118014286Y-74661485D01*
X118014286Y-74661485D02*
X118633333Y-74661485D01*
X138944819Y-92491904D02*
X139754342Y-92491904D01*
X139754342Y-92491904D02*
X139849580Y-92444285D01*
X139849580Y-92444285D02*
X139897200Y-92396666D01*
X139897200Y-92396666D02*
X139944819Y-92301428D01*
X139944819Y-92301428D02*
X139944819Y-92110952D01*
X139944819Y-92110952D02*
X139897200Y-92015714D01*
X139897200Y-92015714D02*
X139849580Y-91968095D01*
X139849580Y-91968095D02*
X139754342Y-91920476D01*
X139754342Y-91920476D02*
X138944819Y-91920476D01*
X139944819Y-90920476D02*
X139944819Y-91491904D01*
X139944819Y-91206190D02*
X138944819Y-91206190D01*
X138944819Y-91206190D02*
X139087676Y-91301428D01*
X139087676Y-91301428D02*
X139182914Y-91396666D01*
X139182914Y-91396666D02*
X139230533Y-91491904D01*
X158756905Y-79334819D02*
X158756905Y-78334819D01*
X158756905Y-78334819D02*
X158995000Y-78334819D01*
X158995000Y-78334819D02*
X159137857Y-78382438D01*
X159137857Y-78382438D02*
X159233095Y-78477676D01*
X159233095Y-78477676D02*
X159280714Y-78572914D01*
X159280714Y-78572914D02*
X159328333Y-78763390D01*
X159328333Y-78763390D02*
X159328333Y-78906247D01*
X159328333Y-78906247D02*
X159280714Y-79096723D01*
X159280714Y-79096723D02*
X159233095Y-79191961D01*
X159233095Y-79191961D02*
X159137857Y-79287200D01*
X159137857Y-79287200D02*
X158995000Y-79334819D01*
X158995000Y-79334819D02*
X158756905Y-79334819D01*
X159709286Y-78430057D02*
X159756905Y-78382438D01*
X159756905Y-78382438D02*
X159852143Y-78334819D01*
X159852143Y-78334819D02*
X160090238Y-78334819D01*
X160090238Y-78334819D02*
X160185476Y-78382438D01*
X160185476Y-78382438D02*
X160233095Y-78430057D01*
X160233095Y-78430057D02*
X160280714Y-78525295D01*
X160280714Y-78525295D02*
X160280714Y-78620533D01*
X160280714Y-78620533D02*
X160233095Y-78763390D01*
X160233095Y-78763390D02*
X159661667Y-79334819D01*
X159661667Y-79334819D02*
X160280714Y-79334819D01*
D13*
%TO.C,J4*%
X163245000Y-79185000D02*
X164575000Y-79185000D01*
X163245000Y-80515000D02*
X163245000Y-79185000D01*
X165845000Y-79185000D02*
X178605000Y-79185000D01*
X165845000Y-81845000D02*
X165845000Y-79185000D01*
X165845000Y-81845000D02*
X178605000Y-81845000D01*
X178605000Y-81845000D02*
X178605000Y-79185000D01*
%TO.C,R3*%
X154930000Y-74170000D02*
X154930000Y-74500000D01*
X154930000Y-76910000D02*
X154930000Y-76580000D01*
X161470000Y-74170000D02*
X154930000Y-74170000D01*
X161470000Y-74500000D02*
X161470000Y-74170000D01*
X161470000Y-76580000D02*
X161470000Y-76910000D01*
X161470000Y-76910000D02*
X154930000Y-76910000D01*
%TO.C,C2*%
X160660000Y-106570000D02*
X160660000Y-111510000D01*
X160990000Y-106570000D02*
X160660000Y-106570000D01*
X160990000Y-111510000D02*
X160660000Y-111510000D01*
X163400000Y-106570000D02*
X163070000Y-106570000D01*
X163400000Y-106570000D02*
X163400000Y-111510000D01*
X163400000Y-111510000D02*
X163070000Y-111510000D01*
%TO.C,SW1*%
X129090000Y-95730000D02*
X129090000Y-96030000D01*
X129090000Y-95730000D02*
X136710000Y-95730000D01*
X129090000Y-97970000D02*
X129090000Y-101110000D01*
X129090000Y-103050000D02*
X129090000Y-103350000D01*
X136710000Y-95730000D02*
X136710000Y-96030000D01*
X136710000Y-97970000D02*
X136710000Y-101110000D01*
X136710000Y-103050000D02*
X136710000Y-103350000D01*
X136710000Y-103350000D02*
X129090000Y-103350000D01*
X135440000Y-99540000D02*
G75*
G02*
X130360000Y-99540000I-2540000J0D01*
G01*
X130360000Y-99540000D02*
G75*
G02*
X135440000Y-99540000I2540000J0D01*
G01*
%TO.C,J6*%
X114172500Y-106127500D02*
X128872500Y-106127500D01*
X114172500Y-115327500D02*
X114172500Y-106127500D01*
X122972500Y-115327500D02*
X114172500Y-115327500D01*
X128022500Y-105927500D02*
X129072500Y-105927500D01*
X128872500Y-106127500D02*
X128872500Y-108727500D01*
X128872500Y-112627500D02*
X128872500Y-115327500D01*
X128872500Y-115327500D02*
X126972500Y-115327500D01*
X129072500Y-106977500D02*
X129072500Y-105927500D01*
%TO.C,J1*%
X139195000Y-111185000D02*
X140525000Y-111185000D01*
X139195000Y-112515000D02*
X139195000Y-111185000D01*
X141795000Y-111185000D02*
X159635000Y-111185000D01*
X141795000Y-113845000D02*
X141795000Y-111185000D01*
X141795000Y-113845000D02*
X159635000Y-113845000D01*
X159635000Y-113845000D02*
X159635000Y-111185000D01*
%TO.C,R1*%
X142370000Y-100170000D02*
X142370000Y-100500000D01*
X142370000Y-102910000D02*
X142370000Y-102580000D01*
X148910000Y-100170000D02*
X142370000Y-100170000D01*
X148910000Y-100500000D02*
X148910000Y-100170000D01*
X148910000Y-102580000D02*
X148910000Y-102910000D01*
X148910000Y-102910000D02*
X142370000Y-102910000D01*
%TO.C,U2*%
X121490000Y-77430000D02*
X126110000Y-77430000D01*
X121490000Y-80690000D02*
X122870000Y-80690000D01*
X121490000Y-84390000D02*
X122870000Y-84390000D01*
X121490000Y-87650000D02*
X121490000Y-77430000D01*
X121490000Y-87650000D02*
X126110000Y-87650000D01*
X122870000Y-87650000D02*
X122870000Y-77430000D01*
X126110000Y-87650000D02*
X126110000Y-77430000D01*
%TO.C,J3*%
X140490000Y-79210000D02*
X141820000Y-79210000D01*
X140490000Y-80540000D02*
X140490000Y-79210000D01*
X143090000Y-79210000D02*
X155850000Y-79210000D01*
X143090000Y-81870000D02*
X143090000Y-79210000D01*
X143090000Y-81870000D02*
X155850000Y-81870000D01*
X155850000Y-81870000D02*
X155850000Y-79210000D01*
%TO.C,C1*%
X165660000Y-106570000D02*
X165660000Y-111510000D01*
X165990000Y-106570000D02*
X165660000Y-106570000D01*
X165990000Y-111510000D02*
X165660000Y-111510000D01*
X168400000Y-106570000D02*
X168070000Y-106570000D01*
X168400000Y-106570000D02*
X168400000Y-111510000D01*
X168400000Y-111510000D02*
X168070000Y-111510000D01*
%TO.C,R2*%
X128530000Y-78270000D02*
X128530000Y-84810000D01*
X128530000Y-84810000D02*
X128860000Y-84810000D01*
X128860000Y-78270000D02*
X128530000Y-78270000D01*
X130940000Y-78270000D02*
X131270000Y-78270000D01*
X131270000Y-78270000D02*
X131270000Y-84810000D01*
X131270000Y-84810000D02*
X130940000Y-84810000D01*
%TO.C,C6*%
X120330000Y-89500000D02*
X120330000Y-89170000D01*
X120330000Y-91910000D02*
X120330000Y-91580000D01*
X125270000Y-89170000D02*
X120330000Y-89170000D01*
X125270000Y-89500000D02*
X125270000Y-89170000D01*
X125270000Y-91910000D02*
X120330000Y-91910000D01*
X125270000Y-91910000D02*
X125270000Y-91580000D01*
%TO.C,C3*%
X120420000Y-86540000D02*
G75*
G02*
X115180000Y-86540000I-2620000J0D01*
G01*
X115180000Y-86540000D02*
G75*
G02*
X120420000Y-86540000I2620000J0D01*
G01*
%TO.C,Y1*%
X167715000Y-98605000D02*
X161465000Y-98605000D01*
X167715000Y-103475000D02*
X161465000Y-103475000D01*
X161465000Y-103475000D02*
G75*
G02*
X161465000Y-98605000I0J2435000D01*
G01*
X167715000Y-98605000D02*
G75*
G02*
X167715000Y-103475000I0J-2435000D01*
G01*
%TO.C,J2*%
X171200000Y-111210000D02*
X171200000Y-113870000D01*
X183960000Y-111210000D02*
X171200000Y-111210000D01*
X183960000Y-111210000D02*
X183960000Y-113870000D01*
X183960000Y-113870000D02*
X171200000Y-113870000D01*
X186560000Y-112540000D02*
X186560000Y-113870000D01*
X186560000Y-113870000D02*
X185230000Y-113870000D01*
%TO.C,D1*%
X129355000Y-92830000D02*
X132445000Y-92830000D01*
X129355170Y-92830000D02*
G75*
G02*
X130900000Y-87280000I1544830J2560000D01*
G01*
X130900000Y-87280000D02*
G75*
G02*
X132444830Y-92830000I0J-2990000D01*
G01*
X133400000Y-90270000D02*
G75*
G02*
X128400000Y-90270000I-2500000J0D01*
G01*
X128400000Y-90270000D02*
G75*
G02*
X133400000Y-90270000I2500000J0D01*
G01*
%TO.C,C5*%
X120330000Y-73500000D02*
X120330000Y-73170000D01*
X120330000Y-75910000D02*
X120330000Y-75580000D01*
X125270000Y-73170000D02*
X120330000Y-73170000D01*
X125270000Y-73500000D02*
X125270000Y-73170000D01*
X125270000Y-75910000D02*
X120330000Y-75910000D01*
X125270000Y-75910000D02*
X125270000Y-75580000D01*
%TO.C,J5*%
X181180000Y-89720000D02*
X181180000Y-79500000D01*
X181180000Y-92320000D02*
X181180000Y-90990000D01*
X182510000Y-92320000D02*
X181180000Y-92320000D01*
X183780000Y-89720000D02*
X181180000Y-89720000D01*
X183780000Y-92320000D02*
X183780000Y-89720000D01*
X186380000Y-79500000D02*
X181180000Y-79500000D01*
X186380000Y-92320000D02*
X183780000Y-92320000D01*
X186380000Y-92320000D02*
X186380000Y-79500000D01*
%TO.C,J7*%
X114580000Y-94100000D02*
X114580000Y-96460000D01*
X114580000Y-97060000D02*
X114580000Y-104500000D01*
X115200000Y-94100000D02*
X115200000Y-104500000D01*
X116700000Y-94100000D02*
X116700000Y-104500000D01*
X121600000Y-94100000D02*
X121600000Y-104500000D01*
X124620000Y-94100000D02*
X114580000Y-94100000D01*
X124620000Y-94100000D02*
X124620000Y-104500000D01*
X124620000Y-104500000D02*
X114580000Y-104500000D01*
X114580000Y-96760000D02*
X113970000Y-97200000D01*
X113970000Y-96320000D01*
X114580000Y-96760000D01*
G36*
X114580000Y-96760000D02*
G01*
X113970000Y-97200000D01*
X113970000Y-96320000D01*
X114580000Y-96760000D01*
G37*
%TO.C,C4*%
X120420000Y-78540000D02*
G75*
G02*
X115180000Y-78540000I-2620000J0D01*
G01*
X115180000Y-78540000D02*
G75*
G02*
X120420000Y-78540000I2620000J0D01*
G01*
%TO.C,U1*%
X140490000Y-89080000D02*
X140490000Y-90730000D01*
X140490000Y-92730000D02*
X140490000Y-94380000D01*
X140490000Y-94380000D02*
X176170000Y-94380000D01*
X176170000Y-89080000D02*
X140490000Y-89080000D01*
X176170000Y-94380000D02*
X176170000Y-89080000D01*
X140430000Y-96870000D02*
X176230000Y-96870000D01*
X176230000Y-86590000D01*
X140430000Y-86590000D01*
X140430000Y-96870000D01*
X140490000Y-90730000D02*
G75*
G02*
X140490000Y-92730000I0J-1000000D01*
G01*
%TO.C,D2*%
X156935000Y-81295000D02*
X156935000Y-84385000D01*
X156935000Y-81295170D02*
G75*
G02*
X162485000Y-82840000I2560000J-1544830D01*
G01*
X162485000Y-82840000D02*
G75*
G02*
X156935000Y-84384830I-2990000J0D01*
G01*
X161995000Y-82840000D02*
G75*
G02*
X156995000Y-82840000I-2500000J0D01*
G01*
X156995000Y-82840000D02*
G75*
G02*
X161995000Y-82840000I2500000J0D01*
G01*
%TD*%
D14*
X190900000Y-117740000D02*
X190900000Y-71440000D01*
X190900000Y-71440000D02*
X112800000Y-71440000D01*
X112800000Y-71440000D02*
X112800000Y-117740000D01*
X112800000Y-117740000D02*
X190900000Y-117740000D01*
M02*
