%TF.GenerationSoftware,KiCad,Pcbnew,9.0.2*%
%TF.CreationDate,2025-12-18T18:42:25-03:00*%
%TF.ProjectId,Prometheus,50726f6d-6574-4686-9575-732e6b696361,2025-11-29*%
%TF.SameCoordinates,Original*%
%TF.FileFunction,Copper,L2,Bot*%
%TF.FilePolarity,Positive*%
%FSLAX46Y46*%
G04 Gerber Fmt 4.6, Leading zero omitted, Abs format (unit mm)*
G04 Created by KiCad (PCBNEW 9.0.2) date 2025-12-18 18:42:25*
%MOMM*%
%LPD*%
G01*
G04 APERTURE LIST*
G04 Aperture macros list*
%AMRoundRect*
0 Rectangle with rounded corners*
0 $1 Rounding radius*
0 $2 $3 $4 $5 $6 $7 $8 $9 X,Y pos of 4 corners*
0 Add a 4 corners polygon primitive as box body*
4,1,4,$2,$3,$4,$5,$6,$7,$8,$9,$2,$3,0*
0 Add four circle primitives for the rounded corners*
1,1,$1+$1,$2,$3*
1,1,$1+$1,$4,$5*
1,1,$1+$1,$6,$7*
1,1,$1+$1,$8,$9*
0 Add four rect primitives between the rounded corners*
20,1,$1+$1,$2,$3,$4,$5,0*
20,1,$1+$1,$4,$5,$6,$7,0*
20,1,$1+$1,$6,$7,$8,$9,0*
20,1,$1+$1,$8,$9,$2,$3,0*%
G04 Aperture macros list end*
%TA.AperFunction,ComponentPad*%
%ADD10R,1.700000X1.700000*%
%TD*%
%TA.AperFunction,ComponentPad*%
%ADD11C,1.700000*%
%TD*%
%TA.AperFunction,ComponentPad*%
%ADD12C,1.600000*%
%TD*%
%TA.AperFunction,ComponentPad*%
%ADD13C,1.397000*%
%TD*%
%TA.AperFunction,ComponentPad*%
%ADD14R,3.500000X3.500000*%
%TD*%
%TA.AperFunction,ComponentPad*%
%ADD15RoundRect,0.750000X-0.750000X-1.000000X0.750000X-1.000000X0.750000X1.000000X-0.750000X1.000000X0*%
%TD*%
%TA.AperFunction,ComponentPad*%
%ADD16RoundRect,0.875000X-0.875000X-0.875000X0.875000X-0.875000X0.875000X0.875000X-0.875000X0.875000X0*%
%TD*%
%TA.AperFunction,ComponentPad*%
%ADD17R,2.000000X1.905000*%
%TD*%
%TA.AperFunction,ComponentPad*%
%ADD18O,2.000000X1.905000*%
%TD*%
%TA.AperFunction,ComponentPad*%
%ADD19C,1.500000*%
%TD*%
%TA.AperFunction,ComponentPad*%
%ADD20R,1.800000X1.800000*%
%TD*%
%TA.AperFunction,ComponentPad*%
%ADD21C,1.800000*%
%TD*%
%TA.AperFunction,ComponentPad*%
%ADD22RoundRect,0.250000X-1.050000X1.050000X-1.050000X-1.050000X1.050000X-1.050000X1.050000X1.050000X0*%
%TD*%
%TA.AperFunction,ComponentPad*%
%ADD23C,2.600000*%
%TD*%
%TA.AperFunction,ComponentPad*%
%ADD24RoundRect,0.250000X0.550000X-0.550000X0.550000X0.550000X-0.550000X0.550000X-0.550000X-0.550000X0*%
%TD*%
%TA.AperFunction,ViaPad*%
%ADD25C,1.600000*%
%TD*%
%TA.AperFunction,Conductor*%
%ADD26C,0.500000*%
%TD*%
%TA.AperFunction,Conductor*%
%ADD27C,2.000000*%
%TD*%
%TA.AperFunction,Conductor*%
%ADD28C,1.000000*%
%TD*%
%TA.AperFunction,Profile*%
%ADD29C,0.050000*%
%TD*%
G04 APERTURE END LIST*
D10*
%TO.P,J4,1,Pin_1*%
%TO.N,/SCK*%
X164575000Y-80515000D03*
D11*
%TO.P,J4,2,Pin_2*%
%TO.N,/MISO*%
X167115000Y-80515000D03*
%TO.P,J4,3,Pin_3*%
%TO.N,/MOSI*%
X169655000Y-80515000D03*
%TO.P,J4,4,Pin_4*%
%TO.N,/PB2*%
X172195000Y-80515000D03*
%TO.P,J4,5,Pin_5*%
%TO.N,/PB1*%
X174735000Y-80515000D03*
%TO.P,J4,6,Pin_6*%
%TO.N,/PB0*%
X177275000Y-80515000D03*
%TD*%
D12*
%TO.P,R3,1*%
%TO.N,/SCK*%
X162010000Y-75540000D03*
%TO.P,R3,2*%
%TO.N,Net-(D2-A)*%
X154390000Y-75540000D03*
%TD*%
%TO.P,C2,1*%
%TO.N,/XTAL1*%
X162030000Y-106540000D03*
%TO.P,C2,2*%
%TO.N,GND*%
X162030000Y-111540000D03*
%TD*%
D13*
%TO.P,SW1,1,1*%
%TO.N,GND*%
X129090000Y-97000000D03*
X136710000Y-97000000D03*
%TO.P,SW1,2,2*%
%TO.N,/RST*%
X129090000Y-102080000D03*
X136710000Y-102080000D03*
%TD*%
D14*
%TO.P,J6,1*%
%TO.N,VCC*%
X127972500Y-110727500D03*
D15*
%TO.P,J6,2*%
%TO.N,GND*%
X121972500Y-110727500D03*
D16*
%TO.P,J6,3*%
%TO.N,unconnected-(J6-Pad3)*%
X124972500Y-115427500D03*
%TD*%
D10*
%TO.P,J1,1,Pin_1*%
%TO.N,Net-(J1-Pin_1)*%
X140525000Y-112515000D03*
D11*
%TO.P,J1,2,Pin_2*%
%TO.N,Net-(J1-Pin_2)*%
X143065000Y-112515000D03*
%TO.P,J1,3,Pin_3*%
%TO.N,Net-(J1-Pin_3)*%
X145605000Y-112515000D03*
%TO.P,J1,4,Pin_4*%
%TO.N,Net-(J1-Pin_4)*%
X148145000Y-112515000D03*
%TO.P,J1,5,Pin_5*%
%TO.N,Net-(J1-Pin_5)*%
X150685000Y-112515000D03*
%TO.P,J1,6,Pin_6*%
%TO.N,Net-(J1-Pin_6)*%
X153225000Y-112515000D03*
%TO.P,J1,7,Pin_7*%
%TO.N,Net-(J1-Pin_7)*%
X155765000Y-112515000D03*
%TO.P,J1,8,Pin_8*%
%TO.N,Net-(J1-Pin_8)*%
X158305000Y-112515000D03*
%TD*%
D12*
%TO.P,R1,1*%
%TO.N,+5V*%
X149450000Y-101540000D03*
%TO.P,R1,2*%
%TO.N,/RST*%
X141830000Y-101540000D03*
%TD*%
D17*
%TO.P,U2,1,VI*%
%TO.N,VCC*%
X124750000Y-85080000D03*
D18*
%TO.P,U2,2,GND*%
%TO.N,GND*%
X124750000Y-82540000D03*
%TO.P,U2,3,VO*%
%TO.N,+5V*%
X124750000Y-80000000D03*
%TD*%
D10*
%TO.P,J3,1,Pin_1*%
%TO.N,Net-(J3-Pin_1)*%
X141820000Y-80540000D03*
D11*
%TO.P,J3,2,Pin_2*%
%TO.N,Net-(J3-Pin_2)*%
X144360000Y-80540000D03*
%TO.P,J3,3,Pin_3*%
%TO.N,Net-(J3-Pin_3)*%
X146900000Y-80540000D03*
%TO.P,J3,4,Pin_4*%
%TO.N,Net-(J3-Pin_4)*%
X149440000Y-80540000D03*
%TO.P,J3,5,Pin_5*%
%TO.N,Net-(J3-Pin_5)*%
X151980000Y-80540000D03*
%TO.P,J3,6,Pin_6*%
%TO.N,Net-(J3-Pin_6)*%
X154520000Y-80540000D03*
%TD*%
D12*
%TO.P,C1,1*%
%TO.N,/XTAL2*%
X167030000Y-106540000D03*
%TO.P,C1,2*%
%TO.N,GND*%
X167030000Y-111540000D03*
%TD*%
%TO.P,R2,1*%
%TO.N,+5V*%
X129900000Y-77730000D03*
%TO.P,R2,2*%
%TO.N,Net-(D1-A)*%
X129900000Y-85350000D03*
%TD*%
%TO.P,C6,1*%
%TO.N,VCC*%
X125300000Y-90540000D03*
%TO.P,C6,2*%
%TO.N,GND*%
X120300000Y-90540000D03*
%TD*%
%TO.P,C3,1*%
%TO.N,VCC*%
X118800000Y-86540000D03*
%TO.P,C3,2*%
%TO.N,GND*%
X116800000Y-86540000D03*
%TD*%
D19*
%TO.P,Y1,1,1*%
%TO.N,/XTAL2*%
X167030000Y-101040000D03*
%TO.P,Y1,2,2*%
%TO.N,/XTAL1*%
X162150000Y-101040000D03*
%TD*%
D10*
%TO.P,J2,1,Pin_1*%
%TO.N,/RST*%
X185230000Y-112540000D03*
D11*
%TO.P,J2,2,Pin_2*%
%TO.N,+5V*%
X182690000Y-112540000D03*
%TO.P,J2,3,Pin_3*%
X180150000Y-112540000D03*
%TO.P,J2,4,Pin_4*%
%TO.N,GND*%
X177610000Y-112540000D03*
%TO.P,J2,5,Pin_5*%
X175070000Y-112540000D03*
%TO.P,J2,6,Pin_6*%
%TO.N,VCC*%
X172530000Y-112540000D03*
%TD*%
D20*
%TO.P,D1,1,K*%
%TO.N,GND*%
X130900000Y-91540000D03*
D21*
%TO.P,D1,2,A*%
%TO.N,Net-(D1-A)*%
X130900000Y-89000000D03*
%TD*%
D12*
%TO.P,C5,1*%
%TO.N,+5V*%
X125300000Y-74540000D03*
%TO.P,C5,2*%
%TO.N,GND*%
X120300000Y-74540000D03*
%TD*%
D10*
%TO.P,J5,1,Pin_1*%
%TO.N,/MISO*%
X182510000Y-90990000D03*
D11*
%TO.P,J5,2,Pin_2*%
%TO.N,GND*%
X185050000Y-90990000D03*
%TO.P,J5,3,Pin_3*%
%TO.N,/SCK*%
X182510000Y-88450000D03*
%TO.P,J5,4,Pin_4*%
%TO.N,GND*%
X185050000Y-88450000D03*
%TO.P,J5,5,Pin_5*%
%TO.N,/RST*%
X182510000Y-85910000D03*
%TO.P,J5,6,Pin_6*%
%TO.N,GND*%
X185050000Y-85910000D03*
%TO.P,J5,7,Pin_7*%
%TO.N,unconnected-(J5-Pin_7-Pad7)*%
X182510000Y-83370000D03*
%TO.P,J5,8,Pin_8*%
%TO.N,GND*%
X185050000Y-83370000D03*
%TO.P,J5,9,Pin_9*%
%TO.N,/MOSI*%
X182510000Y-80830000D03*
%TO.P,J5,10,Pin_10*%
%TO.N,+5V*%
X185050000Y-80830000D03*
%TD*%
D22*
%TO.P,J7,1,Pin_1*%
%TO.N,VCC*%
X119300000Y-96760000D03*
D23*
%TO.P,J7,2,Pin_2*%
%TO.N,GND*%
X119300000Y-101840000D03*
%TD*%
D12*
%TO.P,C4,1*%
%TO.N,+5V*%
X118800000Y-78540000D03*
%TO.P,C4,2*%
%TO.N,GND*%
X116800000Y-78540000D03*
%TD*%
D24*
%TO.P,U1,1,~{RESET}/PC6*%
%TO.N,/RST*%
X141820000Y-95540000D03*
D12*
%TO.P,U1,2,PD0*%
%TO.N,Net-(J1-Pin_1)*%
X144360000Y-95540000D03*
%TO.P,U1,3,PD1*%
%TO.N,Net-(J1-Pin_2)*%
X146900000Y-95540000D03*
%TO.P,U1,4,PD2*%
%TO.N,Net-(J1-Pin_3)*%
X149440000Y-95540000D03*
%TO.P,U1,5,PD3*%
%TO.N,Net-(J1-Pin_4)*%
X151980000Y-95540000D03*
%TO.P,U1,6,PD4*%
%TO.N,Net-(J1-Pin_5)*%
X154520000Y-95540000D03*
%TO.P,U1,7,VCC*%
%TO.N,+5V*%
X157060000Y-95540000D03*
%TO.P,U1,8,GND*%
%TO.N,GND*%
X159600000Y-95540000D03*
%TO.P,U1,9,XTAL1/PB6*%
%TO.N,/XTAL1*%
X162140000Y-95540000D03*
%TO.P,U1,10,XTAL2/PB7*%
%TO.N,/XTAL2*%
X164680000Y-95540000D03*
%TO.P,U1,11,PD5*%
%TO.N,Net-(J1-Pin_6)*%
X167220000Y-95540000D03*
%TO.P,U1,12,PD6*%
%TO.N,Net-(J1-Pin_7)*%
X169760000Y-95540000D03*
%TO.P,U1,13,PD7*%
%TO.N,Net-(J1-Pin_8)*%
X172300000Y-95540000D03*
%TO.P,U1,14,PB0*%
%TO.N,/PB0*%
X174840000Y-95540000D03*
%TO.P,U1,15,PB1*%
%TO.N,/PB1*%
X174840000Y-87920000D03*
%TO.P,U1,16,PB2*%
%TO.N,/PB2*%
X172300000Y-87920000D03*
%TO.P,U1,17,PB3*%
%TO.N,/MOSI*%
X169760000Y-87920000D03*
%TO.P,U1,18,PB4*%
%TO.N,/MISO*%
X167220000Y-87920000D03*
%TO.P,U1,19,PB5*%
%TO.N,/SCK*%
X164680000Y-87920000D03*
%TO.P,U1,20,AVCC*%
%TO.N,+5V*%
X162140000Y-87920000D03*
%TO.P,U1,21,AREF*%
X159600000Y-87920000D03*
%TO.P,U1,22,GND*%
%TO.N,GND*%
X157060000Y-87920000D03*
%TO.P,U1,23,PC0*%
%TO.N,Net-(J3-Pin_6)*%
X154520000Y-87920000D03*
%TO.P,U1,24,PC1*%
%TO.N,Net-(J3-Pin_5)*%
X151980000Y-87920000D03*
%TO.P,U1,25,PC2*%
%TO.N,Net-(J3-Pin_4)*%
X149440000Y-87920000D03*
%TO.P,U1,26,PC3*%
%TO.N,Net-(J3-Pin_3)*%
X146900000Y-87920000D03*
%TO.P,U1,27,PC4*%
%TO.N,Net-(J3-Pin_2)*%
X144360000Y-87920000D03*
%TO.P,U1,28,PC5*%
%TO.N,Net-(J3-Pin_1)*%
X141820000Y-87920000D03*
%TD*%
D20*
%TO.P,D2,1,K*%
%TO.N,GND*%
X158225000Y-82840000D03*
D21*
%TO.P,D2,2,A*%
%TO.N,Net-(D2-A)*%
X160765000Y-82840000D03*
%TD*%
D25*
%TO.N,GND*%
X161500000Y-90140000D03*
X156100000Y-90140000D03*
%TO.N,+5V*%
X180150000Y-108290000D03*
X158400000Y-106790000D03*
%TO.N,/RST*%
X185300000Y-109740000D03*
X141800000Y-104740000D03*
X178525000Y-85840000D03*
%TO.N,/PB0*%
X177275000Y-88340000D03*
X177300000Y-95540000D03*
%TO.N,/SCK*%
X179900000Y-88540000D03*
X179900000Y-93340000D03*
%TD*%
D26*
%TO.N,/XTAL2*%
X164680000Y-98690000D02*
X167030000Y-101040000D01*
X164680000Y-95540000D02*
X164680000Y-98690000D01*
X167030000Y-101040000D02*
X167030000Y-106540000D01*
%TO.N,/XTAL1*%
X162140000Y-101030000D02*
X162150000Y-101040000D01*
X162150000Y-101040000D02*
X162150000Y-106420000D01*
X162150000Y-106420000D02*
X162030000Y-106540000D01*
X162140000Y-95540000D02*
X162140000Y-101030000D01*
D27*
%TO.N,VCC*%
X123290000Y-86540000D02*
X124750000Y-85080000D01*
X125300000Y-85630000D02*
X124750000Y-85080000D01*
X169930000Y-115140000D02*
X172530000Y-112540000D01*
X132385000Y-115140000D02*
X169930000Y-115140000D01*
X127972500Y-110727500D02*
X132385000Y-115140000D01*
X127972500Y-105432500D02*
X119300000Y-96760000D01*
X119300000Y-96760000D02*
X119300000Y-96540000D01*
X125300000Y-90540000D02*
X125300000Y-85630000D01*
X119300000Y-96540000D02*
X125300000Y-90540000D01*
X127972500Y-110727500D02*
X127972500Y-105432500D01*
X118800000Y-86540000D02*
X123290000Y-86540000D01*
D28*
%TO.N,+5V*%
X180150000Y-108290000D02*
X180200000Y-108240000D01*
X141240000Y-92780000D02*
X157060000Y-92780000D01*
X180200000Y-108240000D02*
X185300000Y-108240000D01*
X129900000Y-77730000D02*
X129900000Y-81440000D01*
X156350000Y-100490000D02*
X157060000Y-99780000D01*
X182700000Y-112530000D02*
X182690000Y-112540000D01*
X129900000Y-81440000D02*
X141240000Y-92780000D01*
X149450000Y-101540000D02*
X155300000Y-101540000D01*
X159600000Y-87920000D02*
X162140000Y-87920000D01*
X185300000Y-108240000D02*
X187900000Y-105640000D01*
X124840000Y-77730000D02*
X124750000Y-77640000D01*
X157060000Y-92780000D02*
X159600000Y-90240000D01*
X129900000Y-77730000D02*
X124840000Y-77730000D01*
X155300000Y-101540000D02*
X155300000Y-103690000D01*
X124750000Y-77640000D02*
X124750000Y-75090000D01*
X124750000Y-80000000D02*
X124750000Y-78540000D01*
X180150000Y-112540000D02*
X182690000Y-112540000D01*
X180150000Y-108290000D02*
X180150000Y-112540000D01*
X124750000Y-78540000D02*
X124750000Y-77640000D01*
X124750000Y-75090000D02*
X125300000Y-74540000D01*
X186890000Y-80830000D02*
X185050000Y-80830000D01*
X118800000Y-78540000D02*
X124750000Y-78540000D01*
X187900000Y-105640000D02*
X187900000Y-81840000D01*
X155300000Y-103690000D02*
X158400000Y-106790000D01*
X157060000Y-99780000D02*
X157060000Y-95540000D01*
X187900000Y-81840000D02*
X186890000Y-80830000D01*
X155300000Y-101540000D02*
X156350000Y-100490000D01*
X157060000Y-95540000D02*
X157060000Y-92780000D01*
X159600000Y-90240000D02*
X159600000Y-87920000D01*
D26*
%TO.N,Net-(D1-A)*%
X130900000Y-86350000D02*
X129900000Y-85350000D01*
X130900000Y-89000000D02*
X130900000Y-86350000D01*
%TO.N,Net-(D2-A)*%
X158000000Y-75540000D02*
X160765000Y-78305000D01*
X160765000Y-78305000D02*
X160765000Y-82840000D01*
X154390000Y-75540000D02*
X158000000Y-75540000D01*
%TO.N,Net-(J1-Pin_8)*%
X172300000Y-106340000D02*
X168651000Y-109989000D01*
X160831000Y-109989000D02*
X168651000Y-109989000D01*
X172300000Y-95540000D02*
X172300000Y-106340000D01*
X158305000Y-112515000D02*
X160831000Y-109989000D01*
%TO.N,Net-(J1-Pin_2)*%
X145150000Y-110430000D02*
X143065000Y-112515000D01*
X146900000Y-97790000D02*
X145150000Y-99540000D01*
X145150000Y-99540000D02*
X145150000Y-110430000D01*
X146900000Y-95540000D02*
X146900000Y-97790000D01*
%TO.N,Net-(J1-Pin_3)*%
X149440000Y-96500000D02*
X145900000Y-100040000D01*
X145898000Y-111259364D02*
X145900000Y-111261364D01*
X145900000Y-112220000D02*
X145605000Y-112515000D01*
X145898000Y-100259272D02*
X145898000Y-111259364D01*
X145900000Y-111261364D02*
X145900000Y-112220000D01*
X149440000Y-95540000D02*
X149440000Y-96500000D01*
X145900000Y-100040000D02*
X145900000Y-100257272D01*
X145900000Y-100257272D02*
X145898000Y-100259272D01*
%TO.N,Net-(J1-Pin_4)*%
X150009636Y-97139000D02*
X151801000Y-97139000D01*
X151980000Y-96960000D02*
X151980000Y-95540000D01*
X146599000Y-110969000D02*
X146599000Y-100549636D01*
X148145000Y-112515000D02*
X146599000Y-110969000D01*
X151801000Y-97139000D02*
X151980000Y-96960000D01*
X146599000Y-100549636D02*
X150009636Y-97139000D01*
%TO.N,Net-(J1-Pin_6)*%
X157200000Y-108540000D02*
X153225000Y-112515000D01*
X170898000Y-99218000D02*
X167220000Y-95540000D01*
X170898000Y-105542000D02*
X170898000Y-99218000D01*
X167900000Y-108540000D02*
X170898000Y-105542000D01*
X167900000Y-108540000D02*
X157200000Y-108540000D01*
%TO.N,Net-(J1-Pin_5)*%
X152220000Y-97840000D02*
X154520000Y-95540000D01*
X150300000Y-97840000D02*
X152220000Y-97840000D01*
X147300000Y-100840000D02*
X147300000Y-109130000D01*
X147300000Y-109130000D02*
X150685000Y-112515000D01*
X147300000Y-100840000D02*
X150300000Y-97840000D01*
%TO.N,Net-(J1-Pin_7)*%
X158992000Y-109288000D02*
X155765000Y-112515000D01*
X169760000Y-95540000D02*
X171599000Y-97379000D01*
X168152000Y-109288000D02*
X158992000Y-109288000D01*
X171599000Y-105841000D02*
X168152000Y-109288000D01*
X171599000Y-97379000D02*
X171599000Y-105841000D01*
%TO.N,Net-(J1-Pin_1)*%
X144500000Y-95680000D02*
X144360000Y-95540000D01*
X144360000Y-95540000D02*
X144360000Y-108580000D01*
X144360000Y-108580000D02*
X140525000Y-112415000D01*
X140525000Y-112415000D02*
X140525000Y-112515000D01*
%TO.N,/RST*%
X178595000Y-85910000D02*
X178525000Y-85840000D01*
X141830000Y-101540000D02*
X141830000Y-95550000D01*
X182510000Y-85910000D02*
X178595000Y-85910000D01*
X141830000Y-95550000D02*
X141820000Y-95540000D01*
X136710000Y-102080000D02*
X133800000Y-102080000D01*
X185230000Y-109810000D02*
X185300000Y-109740000D01*
X133800000Y-102080000D02*
X129090000Y-102080000D01*
X141830000Y-104710000D02*
X141800000Y-104740000D01*
X185230000Y-112540000D02*
X185230000Y-109810000D01*
X136710000Y-102080000D02*
X141290000Y-102080000D01*
X141290000Y-102080000D02*
X141830000Y-101540000D01*
X141830000Y-101540000D02*
X141830000Y-104710000D01*
%TO.N,Net-(J3-Pin_5)*%
X151980000Y-80540000D02*
X151980000Y-87920000D01*
%TO.N,Net-(J3-Pin_6)*%
X154520000Y-87920000D02*
X154520000Y-80540000D01*
%TO.N,Net-(J3-Pin_3)*%
X146900000Y-80540000D02*
X146900000Y-87920000D01*
%TO.N,Net-(J3-Pin_4)*%
X149440000Y-87920000D02*
X149440000Y-80540000D01*
%TO.N,Net-(J3-Pin_1)*%
X141820000Y-80540000D02*
X141820000Y-87920000D01*
%TO.N,Net-(J3-Pin_2)*%
X144360000Y-87920000D02*
X144360000Y-80540000D01*
%TO.N,/PB0*%
X177275000Y-88340000D02*
X177275000Y-88515000D01*
X177275000Y-80515000D02*
X177275000Y-88340000D01*
X177300000Y-95540000D02*
X174840000Y-95540000D01*
X177275000Y-88515000D02*
X177300000Y-88540000D01*
%TO.N,/MISO*%
X167115000Y-87815000D02*
X167220000Y-87920000D01*
X167115000Y-80515000D02*
X167115000Y-87815000D01*
X168050000Y-90990000D02*
X182510000Y-90990000D01*
X167220000Y-87920000D02*
X167220000Y-90160000D01*
X167220000Y-90160000D02*
X168050000Y-90990000D01*
%TO.N,/SCK*%
X182510000Y-88450000D02*
X179990000Y-88450000D01*
X164575000Y-75540000D02*
X162010000Y-75540000D01*
X168968630Y-93340000D02*
X164680000Y-89051370D01*
X164575000Y-75540000D02*
X164575000Y-80515000D01*
X164680000Y-80620000D02*
X164575000Y-80515000D01*
X179990000Y-88450000D02*
X179900000Y-88540000D01*
X179900000Y-93340000D02*
X168968630Y-93340000D01*
X164680000Y-89051370D02*
X164680000Y-87920000D01*
X164680000Y-87920000D02*
X164680000Y-80620000D01*
%TO.N,/MOSI*%
X169655000Y-78585000D02*
X170300000Y-77940000D01*
X169655000Y-80515000D02*
X169655000Y-78585000D01*
X170300000Y-77940000D02*
X181800000Y-77940000D01*
X182510000Y-78650000D02*
X182510000Y-80830000D01*
X169655000Y-80515000D02*
X169655000Y-87815000D01*
X169655000Y-87815000D02*
X169760000Y-87920000D01*
X181800000Y-77940000D02*
X182510000Y-78650000D01*
%TO.N,/PB1*%
X174840000Y-80620000D02*
X174735000Y-80515000D01*
X174840000Y-87920000D02*
X174840000Y-80620000D01*
%TO.N,/PB2*%
X172195000Y-87815000D02*
X172300000Y-87920000D01*
X172195000Y-80515000D02*
X172195000Y-87815000D01*
%TD*%
%TA.AperFunction,Conductor*%
%TO.N,GND*%
G36*
X189743039Y-72010185D02*
G01*
X189788794Y-72062989D01*
X189800000Y-72114500D01*
X189800000Y-117065500D01*
X189780315Y-117132539D01*
X189727511Y-117178294D01*
X189676000Y-117189500D01*
X127138373Y-117189500D01*
X127071334Y-117169815D01*
X127025579Y-117117011D01*
X127015635Y-117047853D01*
X127031427Y-117002742D01*
X127093074Y-116897690D01*
X127175745Y-116678626D01*
X127220205Y-116448741D01*
X127223000Y-116396122D01*
X127223000Y-114458878D01*
X127220205Y-114406259D01*
X127175745Y-114176374D01*
X127093074Y-113957310D01*
X126974570Y-113755368D01*
X126974565Y-113755361D01*
X126823643Y-113576358D01*
X126823641Y-113576356D01*
X126644638Y-113425434D01*
X126644631Y-113425429D01*
X126442689Y-113306925D01*
X126345013Y-113270064D01*
X126223626Y-113224255D01*
X126223621Y-113224254D01*
X126223616Y-113224252D01*
X126220970Y-113223740D01*
X126219951Y-113223213D01*
X126218550Y-113222817D01*
X126218630Y-113222531D01*
X126158892Y-113191677D01*
X126124003Y-113131141D01*
X126127381Y-113061353D01*
X126167952Y-113004470D01*
X126232837Y-112978552D01*
X126244509Y-112977999D01*
X128049610Y-112977999D01*
X128116649Y-112997684D01*
X128137291Y-113014318D01*
X131407490Y-116284517D01*
X131598566Y-116423343D01*
X131648413Y-116448741D01*
X131809003Y-116530566D01*
X131809005Y-116530566D01*
X131809008Y-116530568D01*
X131929412Y-116569689D01*
X132033631Y-116603553D01*
X132266903Y-116640500D01*
X132266908Y-116640500D01*
X170048097Y-116640500D01*
X170281368Y-116603553D01*
X170505992Y-116530568D01*
X170716434Y-116423343D01*
X170907510Y-116284517D01*
X173674517Y-113517510D01*
X173797508Y-113348227D01*
X173797839Y-113347782D01*
X173825231Y-113327060D01*
X173852489Y-113306043D01*
X173853145Y-113305946D01*
X173853562Y-113305631D01*
X173857143Y-113305356D01*
X173907207Y-113297976D01*
X173954728Y-113301716D01*
X174587037Y-112669408D01*
X174604075Y-112732993D01*
X174669901Y-112847007D01*
X174762993Y-112940099D01*
X174877007Y-113005925D01*
X174940590Y-113022962D01*
X174308282Y-113655269D01*
X174308282Y-113655270D01*
X174362449Y-113694624D01*
X174551782Y-113791095D01*
X174753870Y-113856757D01*
X174963754Y-113890000D01*
X175176246Y-113890000D01*
X175386127Y-113856757D01*
X175386130Y-113856757D01*
X175588217Y-113791095D01*
X175777554Y-113694622D01*
X175831716Y-113655270D01*
X175831717Y-113655270D01*
X175199408Y-113022962D01*
X175262993Y-113005925D01*
X175377007Y-112940099D01*
X175470099Y-112847007D01*
X175535925Y-112732993D01*
X175552962Y-112669408D01*
X176185270Y-113301717D01*
X176185270Y-113301716D01*
X176224622Y-113247554D01*
X176229514Y-113237954D01*
X176277488Y-113187157D01*
X176345308Y-113170361D01*
X176411444Y-113192897D01*
X176450486Y-113237954D01*
X176455375Y-113247550D01*
X176494728Y-113301716D01*
X177127037Y-112669408D01*
X177144075Y-112732993D01*
X177209901Y-112847007D01*
X177302993Y-112940099D01*
X177417007Y-113005925D01*
X177480590Y-113022962D01*
X176848282Y-113655269D01*
X176848282Y-113655270D01*
X176902449Y-113694624D01*
X177091782Y-113791095D01*
X177293870Y-113856757D01*
X177503754Y-113890000D01*
X177716246Y-113890000D01*
X177926127Y-113856757D01*
X177926130Y-113856757D01*
X178128217Y-113791095D01*
X178317554Y-113694622D01*
X178371716Y-113655270D01*
X178371717Y-113655270D01*
X177739408Y-113022962D01*
X177802993Y-113005925D01*
X177917007Y-112940099D01*
X178010099Y-112847007D01*
X178075925Y-112732993D01*
X178092962Y-112669408D01*
X178725270Y-113301717D01*
X178725270Y-113301716D01*
X178764622Y-113247555D01*
X178769232Y-113238507D01*
X178817205Y-113187709D01*
X178885025Y-113170912D01*
X178951161Y-113193447D01*
X178990204Y-113238504D01*
X178994949Y-113247817D01*
X179119890Y-113419786D01*
X179270213Y-113570109D01*
X179442179Y-113695048D01*
X179442181Y-113695049D01*
X179442184Y-113695051D01*
X179631588Y-113791557D01*
X179833757Y-113857246D01*
X180043713Y-113890500D01*
X180043714Y-113890500D01*
X180256286Y-113890500D01*
X180256287Y-113890500D01*
X180466243Y-113857246D01*
X180668412Y-113791557D01*
X180857816Y-113695051D01*
X180872769Y-113684186D01*
X181033734Y-113567241D01*
X181034364Y-113568108D01*
X181093419Y-113541641D01*
X181110200Y-113540500D01*
X181729800Y-113540500D01*
X181796839Y-113560185D01*
X181809365Y-113569493D01*
X181982179Y-113695048D01*
X181982181Y-113695049D01*
X181982184Y-113695051D01*
X182171588Y-113791557D01*
X182373757Y-113857246D01*
X182583713Y-113890500D01*
X182583714Y-113890500D01*
X182796286Y-113890500D01*
X182796287Y-113890500D01*
X183006243Y-113857246D01*
X183208412Y-113791557D01*
X183397816Y-113695051D01*
X183569792Y-113570104D01*
X183683329Y-113456566D01*
X183744648Y-113423084D01*
X183814340Y-113428068D01*
X183870274Y-113469939D01*
X183887189Y-113500917D01*
X183936202Y-113632328D01*
X183936206Y-113632335D01*
X184022452Y-113747544D01*
X184022455Y-113747547D01*
X184137664Y-113833793D01*
X184137671Y-113833797D01*
X184272517Y-113884091D01*
X184272516Y-113884091D01*
X184279444Y-113884835D01*
X184332127Y-113890500D01*
X186127872Y-113890499D01*
X186187483Y-113884091D01*
X186322331Y-113833796D01*
X186437546Y-113747546D01*
X186523796Y-113632331D01*
X186574091Y-113497483D01*
X186580500Y-113437873D01*
X186580499Y-111642128D01*
X186574091Y-111582517D01*
X186572810Y-111579083D01*
X186523797Y-111447671D01*
X186523793Y-111447664D01*
X186437547Y-111332455D01*
X186437544Y-111332452D01*
X186322335Y-111246206D01*
X186322328Y-111246202D01*
X186187482Y-111195908D01*
X186187483Y-111195908D01*
X186127883Y-111189501D01*
X186127881Y-111189500D01*
X186127873Y-111189500D01*
X186127865Y-111189500D01*
X186104500Y-111189500D01*
X186095814Y-111186949D01*
X186086853Y-111188238D01*
X186062812Y-111177259D01*
X186037461Y-111169815D01*
X186031533Y-111162974D01*
X186023297Y-111159213D01*
X186009007Y-111136978D01*
X185991706Y-111117011D01*
X185989418Y-111106496D01*
X185985523Y-111100435D01*
X185980500Y-111065500D01*
X185980500Y-110916274D01*
X186000185Y-110849235D01*
X186031613Y-110815957D01*
X186147219Y-110731966D01*
X186291966Y-110587219D01*
X186291968Y-110587215D01*
X186291971Y-110587213D01*
X186371681Y-110477500D01*
X186412287Y-110421610D01*
X186505220Y-110239219D01*
X186568477Y-110044534D01*
X186600500Y-109842352D01*
X186600500Y-109637648D01*
X186568477Y-109435466D01*
X186568476Y-109435464D01*
X186537729Y-109340833D01*
X186505220Y-109240781D01*
X186505218Y-109240778D01*
X186505218Y-109240776D01*
X186437625Y-109108119D01*
X186412287Y-109058390D01*
X186404556Y-109047749D01*
X186291971Y-108892786D01*
X186264733Y-108865548D01*
X186231248Y-108804225D01*
X186236232Y-108734533D01*
X186264733Y-108690186D01*
X186767271Y-108187648D01*
X188677139Y-106277782D01*
X188686576Y-106263658D01*
X188786632Y-106113914D01*
X188862051Y-105931835D01*
X188863589Y-105924106D01*
X188891484Y-105783868D01*
X188900500Y-105738541D01*
X188900500Y-81741459D01*
X188900500Y-81741456D01*
X188885100Y-81664039D01*
X188878793Y-81632331D01*
X188878793Y-81632328D01*
X188866415Y-81570102D01*
X188862052Y-81548165D01*
X188798843Y-81395566D01*
X188786633Y-81366088D01*
X188786628Y-81366079D01*
X188677140Y-81202219D01*
X188677137Y-81202215D01*
X187674209Y-80199289D01*
X187674206Y-80199285D01*
X187674206Y-80199286D01*
X187667139Y-80192219D01*
X187667139Y-80192218D01*
X187527782Y-80052861D01*
X187527781Y-80052860D01*
X187527780Y-80052859D01*
X187363920Y-79943371D01*
X187363907Y-79943364D01*
X187213322Y-79880990D01*
X187213316Y-79880988D01*
X187204213Y-79877218D01*
X187181836Y-79867949D01*
X187043841Y-79840500D01*
X187041564Y-79840047D01*
X187041547Y-79840043D01*
X186988543Y-79829500D01*
X186988541Y-79829500D01*
X186010200Y-79829500D01*
X185943161Y-79809815D01*
X185930634Y-79800506D01*
X185757820Y-79674951D01*
X185568414Y-79578444D01*
X185568413Y-79578443D01*
X185568412Y-79578443D01*
X185366243Y-79512754D01*
X185366241Y-79512753D01*
X185366240Y-79512753D01*
X185190368Y-79484898D01*
X185156287Y-79479500D01*
X184943713Y-79479500D01*
X184909632Y-79484898D01*
X184733760Y-79512753D01*
X184531585Y-79578444D01*
X184342179Y-79674951D01*
X184170213Y-79799890D01*
X184019890Y-79950213D01*
X183894949Y-80122182D01*
X183890484Y-80130946D01*
X183842509Y-80181742D01*
X183774688Y-80198536D01*
X183708553Y-80175998D01*
X183669516Y-80130946D01*
X183665050Y-80122182D01*
X183540109Y-79950213D01*
X183389794Y-79799898D01*
X183389788Y-79799893D01*
X183311615Y-79743097D01*
X183268949Y-79687767D01*
X183260500Y-79642779D01*
X183260500Y-78576081D01*
X183260499Y-78576080D01*
X183250664Y-78526632D01*
X183231659Y-78431088D01*
X183175494Y-78295495D01*
X183175084Y-78294505D01*
X183135635Y-78235466D01*
X183092952Y-78171585D01*
X183061367Y-78140000D01*
X182988416Y-78067049D01*
X182870865Y-77949498D01*
X182278421Y-77357052D01*
X182278414Y-77357046D01*
X182198204Y-77303452D01*
X182198204Y-77303453D01*
X182155495Y-77274916D01*
X182155492Y-77274914D01*
X182155491Y-77274914D01*
X182018917Y-77218343D01*
X182018907Y-77218340D01*
X181873920Y-77189500D01*
X181873918Y-77189500D01*
X170226082Y-77189500D01*
X170226076Y-77189500D01*
X170197242Y-77195234D01*
X170197243Y-77195235D01*
X170081093Y-77218339D01*
X170081083Y-77218342D01*
X170001081Y-77251479D01*
X170001082Y-77251480D01*
X169944506Y-77274915D01*
X169944498Y-77274919D01*
X169901797Y-77303452D01*
X169901796Y-77303452D01*
X169821585Y-77357046D01*
X169821578Y-77357052D01*
X169072048Y-78106583D01*
X169054508Y-78132834D01*
X169037084Y-78158913D01*
X168989919Y-78229499D01*
X168989912Y-78229511D01*
X168933343Y-78366082D01*
X168933340Y-78366092D01*
X168904500Y-78511079D01*
X168904500Y-79327779D01*
X168884815Y-79394818D01*
X168853385Y-79428097D01*
X168775211Y-79484893D01*
X168775205Y-79484898D01*
X168624890Y-79635213D01*
X168499949Y-79807182D01*
X168495484Y-79815946D01*
X168447509Y-79866742D01*
X168379688Y-79883536D01*
X168313553Y-79860998D01*
X168274516Y-79815946D01*
X168270050Y-79807182D01*
X168145109Y-79635213D01*
X167994786Y-79484890D01*
X167822820Y-79359951D01*
X167633414Y-79263444D01*
X167633413Y-79263443D01*
X167633412Y-79263443D01*
X167431243Y-79197754D01*
X167431241Y-79197753D01*
X167431240Y-79197753D01*
X167269957Y-79172208D01*
X167221287Y-79164500D01*
X167008713Y-79164500D01*
X166960042Y-79172208D01*
X166798760Y-79197753D01*
X166596585Y-79263444D01*
X166407179Y-79359951D01*
X166235215Y-79484889D01*
X166121673Y-79598431D01*
X166060350Y-79631915D01*
X165990658Y-79626931D01*
X165934725Y-79585059D01*
X165917810Y-79554082D01*
X165868797Y-79422671D01*
X165868793Y-79422664D01*
X165782547Y-79307455D01*
X165782544Y-79307452D01*
X165667335Y-79221206D01*
X165667328Y-79221202D01*
X165532482Y-79170908D01*
X165532483Y-79170908D01*
X165472883Y-79164501D01*
X165472881Y-79164500D01*
X165472873Y-79164500D01*
X165472865Y-79164500D01*
X165449500Y-79164500D01*
X165382461Y-79144815D01*
X165336706Y-79092011D01*
X165325500Y-79040500D01*
X165325500Y-75466079D01*
X165296659Y-75321092D01*
X165296658Y-75321091D01*
X165296658Y-75321087D01*
X165261193Y-75235466D01*
X165240087Y-75184511D01*
X165240080Y-75184498D01*
X165157951Y-75061584D01*
X165157948Y-75061580D01*
X165053419Y-74957051D01*
X165053415Y-74957048D01*
X164930501Y-74874919D01*
X164930488Y-74874912D01*
X164793917Y-74818343D01*
X164793907Y-74818340D01*
X164648920Y-74789500D01*
X164648918Y-74789500D01*
X163135418Y-74789500D01*
X163068379Y-74769815D01*
X163035100Y-74738385D01*
X163001971Y-74692787D01*
X163001967Y-74692782D01*
X162857213Y-74548028D01*
X162691613Y-74427715D01*
X162691612Y-74427714D01*
X162691610Y-74427713D01*
X162634653Y-74398691D01*
X162509223Y-74334781D01*
X162314534Y-74271522D01*
X162139995Y-74243878D01*
X162112352Y-74239500D01*
X161907648Y-74239500D01*
X161883329Y-74243351D01*
X161705465Y-74271522D01*
X161510776Y-74334781D01*
X161328386Y-74427715D01*
X161162786Y-74548028D01*
X161018028Y-74692786D01*
X160897715Y-74858386D01*
X160804781Y-75040776D01*
X160741522Y-75235465D01*
X160709500Y-75437648D01*
X160709500Y-75642351D01*
X160741522Y-75844534D01*
X160804781Y-76039223D01*
X160897715Y-76221613D01*
X161018028Y-76387213D01*
X161162786Y-76531971D01*
X161280805Y-76617715D01*
X161328390Y-76652287D01*
X161441295Y-76709815D01*
X161510776Y-76745218D01*
X161510778Y-76745218D01*
X161510781Y-76745220D01*
X161615137Y-76779127D01*
X161705465Y-76808477D01*
X161806557Y-76824488D01*
X161907648Y-76840500D01*
X161907649Y-76840500D01*
X162112351Y-76840500D01*
X162112352Y-76840500D01*
X162314534Y-76808477D01*
X162509219Y-76745220D01*
X162691610Y-76652287D01*
X162784590Y-76584732D01*
X162857213Y-76531971D01*
X162857215Y-76531968D01*
X162857219Y-76531966D01*
X163001966Y-76387219D01*
X163019570Y-76362989D01*
X163035100Y-76341615D01*
X163090429Y-76298949D01*
X163135418Y-76290500D01*
X163700500Y-76290500D01*
X163767539Y-76310185D01*
X163813294Y-76362989D01*
X163824500Y-76414500D01*
X163824500Y-79040500D01*
X163804815Y-79107539D01*
X163752011Y-79153294D01*
X163700505Y-79164500D01*
X163677132Y-79164500D01*
X163677123Y-79164501D01*
X163617516Y-79170908D01*
X163482671Y-79221202D01*
X163482664Y-79221206D01*
X163367455Y-79307452D01*
X163367452Y-79307455D01*
X163281206Y-79422664D01*
X163281202Y-79422671D01*
X163230908Y-79557517D01*
X163224501Y-79617116D01*
X163224500Y-79617135D01*
X163224500Y-81412870D01*
X163224501Y-81412876D01*
X163230908Y-81472483D01*
X163281202Y-81607328D01*
X163281206Y-81607335D01*
X163367452Y-81722544D01*
X163367455Y-81722547D01*
X163482664Y-81808793D01*
X163482671Y-81808797D01*
X163483068Y-81808945D01*
X163617517Y-81859091D01*
X163677127Y-81865500D01*
X163805500Y-81865499D01*
X163872539Y-81885183D01*
X163918294Y-81937987D01*
X163929500Y-81989499D01*
X163929500Y-86794582D01*
X163909815Y-86861621D01*
X163878385Y-86894900D01*
X163832787Y-86928028D01*
X163832782Y-86928032D01*
X163688028Y-87072786D01*
X163567715Y-87238386D01*
X163520485Y-87331080D01*
X163472510Y-87381876D01*
X163404689Y-87398671D01*
X163338554Y-87376134D01*
X163299515Y-87331080D01*
X163278830Y-87290484D01*
X163252287Y-87238390D01*
X163220092Y-87194077D01*
X163131971Y-87072786D01*
X162987213Y-86928028D01*
X162821613Y-86807715D01*
X162821612Y-86807714D01*
X162821610Y-86807713D01*
X162748756Y-86770592D01*
X162639223Y-86714781D01*
X162444534Y-86651522D01*
X162269995Y-86623878D01*
X162242352Y-86619500D01*
X162037648Y-86619500D01*
X162013329Y-86623351D01*
X161835465Y-86651522D01*
X161640776Y-86714781D01*
X161458386Y-86807715D01*
X161355863Y-86882201D01*
X161338387Y-86894900D01*
X161337123Y-86895818D01*
X161271317Y-86919298D01*
X161264238Y-86919500D01*
X160475762Y-86919500D01*
X160408723Y-86899815D01*
X160402877Y-86895818D01*
X160401613Y-86894900D01*
X160311825Y-86829665D01*
X160281613Y-86807715D01*
X160281612Y-86807714D01*
X160281610Y-86807713D01*
X160208756Y-86770592D01*
X160099223Y-86714781D01*
X159904534Y-86651522D01*
X159729995Y-86623878D01*
X159702352Y-86619500D01*
X159497648Y-86619500D01*
X159473329Y-86623351D01*
X159295465Y-86651522D01*
X159100776Y-86714781D01*
X158918386Y-86807715D01*
X158752786Y-86928028D01*
X158608028Y-87072786D01*
X158487713Y-87238388D01*
X158440203Y-87331630D01*
X158392228Y-87382426D01*
X158324407Y-87399220D01*
X158258272Y-87376682D01*
X158219234Y-87331628D01*
X158171861Y-87238652D01*
X158139474Y-87194077D01*
X158139474Y-87194076D01*
X157460000Y-87873551D01*
X157460000Y-87867339D01*
X157432741Y-87765606D01*
X157380080Y-87674394D01*
X157305606Y-87599920D01*
X157214394Y-87547259D01*
X157112661Y-87520000D01*
X157106446Y-87520000D01*
X157785922Y-86840524D01*
X157785921Y-86840523D01*
X157741359Y-86808147D01*
X157741350Y-86808141D01*
X157559031Y-86715244D01*
X157364417Y-86652009D01*
X157162317Y-86620000D01*
X156957683Y-86620000D01*
X156755582Y-86652009D01*
X156560968Y-86715244D01*
X156378644Y-86808143D01*
X156334077Y-86840523D01*
X156334077Y-86840524D01*
X157013554Y-87520000D01*
X157007339Y-87520000D01*
X156905606Y-87547259D01*
X156814394Y-87599920D01*
X156739920Y-87674394D01*
X156687259Y-87765606D01*
X156660000Y-87867339D01*
X156660000Y-87873553D01*
X155980524Y-87194077D01*
X155980523Y-87194077D01*
X155948143Y-87238644D01*
X155900765Y-87331630D01*
X155852790Y-87382426D01*
X155784969Y-87399221D01*
X155718834Y-87376683D01*
X155679795Y-87331630D01*
X155658830Y-87290484D01*
X155632287Y-87238390D01*
X155632285Y-87238387D01*
X155632284Y-87238385D01*
X155511971Y-87072786D01*
X155417838Y-86978653D01*
X155367219Y-86928034D01*
X155317381Y-86891824D01*
X155313414Y-86888396D01*
X155297211Y-86863254D01*
X155278949Y-86839571D01*
X155277714Y-86832999D01*
X155275566Y-86829665D01*
X155275555Y-86821503D01*
X155270500Y-86794582D01*
X155270500Y-81727220D01*
X155290185Y-81660181D01*
X155321614Y-81626902D01*
X155399792Y-81570104D01*
X155550104Y-81419792D01*
X155550106Y-81419788D01*
X155550109Y-81419786D01*
X155675048Y-81247820D01*
X155675047Y-81247820D01*
X155675051Y-81247816D01*
X155771557Y-81058412D01*
X155837246Y-80856243D01*
X155870500Y-80646287D01*
X155870500Y-80433713D01*
X155837246Y-80223757D01*
X155771557Y-80021588D01*
X155675051Y-79832184D01*
X155675049Y-79832181D01*
X155675048Y-79832179D01*
X155550109Y-79660213D01*
X155399786Y-79509890D01*
X155227820Y-79384951D01*
X155038414Y-79288444D01*
X155038413Y-79288443D01*
X155038412Y-79288443D01*
X154836243Y-79222754D01*
X154836241Y-79222753D01*
X154836240Y-79222753D01*
X154674957Y-79197208D01*
X154626287Y-79189500D01*
X154413713Y-79189500D01*
X154365042Y-79197208D01*
X154203760Y-79222753D01*
X154001585Y-79288444D01*
X153812179Y-79384951D01*
X153640213Y-79509890D01*
X153489890Y-79660213D01*
X153364949Y-79832182D01*
X153360484Y-79840946D01*
X153312509Y-79891742D01*
X153244688Y-79908536D01*
X153178553Y-79885998D01*
X153139516Y-79840946D01*
X153135050Y-79832182D01*
X153010109Y-79660213D01*
X152859786Y-79509890D01*
X152687820Y-79384951D01*
X152498414Y-79288444D01*
X152498413Y-79288443D01*
X152498412Y-79288443D01*
X152296243Y-79222754D01*
X152296241Y-79222753D01*
X152296240Y-79222753D01*
X152134957Y-79197208D01*
X152086287Y-79189500D01*
X151873713Y-79189500D01*
X151825042Y-79197208D01*
X151663760Y-79222753D01*
X151461585Y-79288444D01*
X151272179Y-79384951D01*
X151100213Y-79509890D01*
X150949890Y-79660213D01*
X150824949Y-79832182D01*
X150820484Y-79840946D01*
X150772509Y-79891742D01*
X150704688Y-79908536D01*
X150638553Y-79885998D01*
X150599516Y-79840946D01*
X150595050Y-79832182D01*
X150470109Y-79660213D01*
X150319786Y-79509890D01*
X150147820Y-79384951D01*
X149958414Y-79288444D01*
X149958413Y-79288443D01*
X149958412Y-79288443D01*
X149756243Y-79222754D01*
X149756241Y-79222753D01*
X149756240Y-79222753D01*
X149594957Y-79197208D01*
X149546287Y-79189500D01*
X149333713Y-79189500D01*
X149285042Y-79197208D01*
X149123760Y-79222753D01*
X148921585Y-79288444D01*
X148732179Y-79384951D01*
X148560213Y-79509890D01*
X148409890Y-79660213D01*
X148284949Y-79832182D01*
X148280484Y-79840946D01*
X148232509Y-79891742D01*
X148164688Y-79908536D01*
X148098553Y-79885998D01*
X148059516Y-79840946D01*
X148055050Y-79832182D01*
X147930109Y-79660213D01*
X147779786Y-79509890D01*
X147607820Y-79384951D01*
X147418414Y-79288444D01*
X147418413Y-79288443D01*
X147418412Y-79288443D01*
X147216243Y-79222754D01*
X147216241Y-79222753D01*
X147216240Y-79222753D01*
X147054957Y-79197208D01*
X147006287Y-79189500D01*
X146793713Y-79189500D01*
X146745042Y-79197208D01*
X146583760Y-79222753D01*
X146381585Y-79288444D01*
X146192179Y-79384951D01*
X146020213Y-79509890D01*
X145869890Y-79660213D01*
X145744949Y-79832182D01*
X145740484Y-79840946D01*
X145692509Y-79891742D01*
X145624688Y-79908536D01*
X145558553Y-79885998D01*
X145519516Y-79840946D01*
X145515050Y-79832182D01*
X145390109Y-79660213D01*
X145239786Y-79509890D01*
X145067820Y-79384951D01*
X144878414Y-79288444D01*
X144878413Y-79288443D01*
X144878412Y-79288443D01*
X144676243Y-79222754D01*
X144676241Y-79222753D01*
X144676240Y-79222753D01*
X144514957Y-79197208D01*
X144466287Y-79189500D01*
X144253713Y-79189500D01*
X144205042Y-79197208D01*
X144043760Y-79222753D01*
X143841585Y-79288444D01*
X143652179Y-79384951D01*
X143480215Y-79509889D01*
X143366673Y-79623431D01*
X143305350Y-79656915D01*
X143235658Y-79651931D01*
X143179725Y-79610059D01*
X143162810Y-79579082D01*
X143113797Y-79447671D01*
X143113793Y-79447664D01*
X143027547Y-79332455D01*
X143027544Y-79332452D01*
X142912335Y-79246206D01*
X142912328Y-79246202D01*
X142777482Y-79195908D01*
X142777483Y-79195908D01*
X142717883Y-79189501D01*
X142717881Y-79189500D01*
X142717873Y-79189500D01*
X142717864Y-79189500D01*
X140922129Y-79189500D01*
X140922123Y-79189501D01*
X140862516Y-79195908D01*
X140727671Y-79246202D01*
X140727664Y-79246206D01*
X140612455Y-79332452D01*
X140612452Y-79332455D01*
X140526206Y-79447664D01*
X140526202Y-79447671D01*
X140475908Y-79582517D01*
X140469501Y-79642116D01*
X140469500Y-79642135D01*
X140469500Y-81437870D01*
X140469501Y-81437876D01*
X140475908Y-81497483D01*
X140526202Y-81632328D01*
X140526205Y-81632333D01*
X140612452Y-81747544D01*
X140612455Y-81747547D01*
X140727664Y-81833793D01*
X140727671Y-81833797D01*
X140749512Y-81841943D01*
X140862517Y-81884091D01*
X140922127Y-81890500D01*
X140945497Y-81890499D01*
X141012536Y-81910181D01*
X141058292Y-81962983D01*
X141069500Y-82014499D01*
X141069500Y-86794582D01*
X141049815Y-86861621D01*
X141018385Y-86894900D01*
X140972787Y-86928028D01*
X140972782Y-86928032D01*
X140828028Y-87072786D01*
X140707715Y-87238386D01*
X140614781Y-87420776D01*
X140551522Y-87615465D01*
X140519500Y-87817648D01*
X140519500Y-88022351D01*
X140551522Y-88224534D01*
X140614781Y-88419223D01*
X140664004Y-88515826D01*
X140707711Y-88601607D01*
X140707715Y-88601613D01*
X140828028Y-88767213D01*
X140972786Y-88911971D01*
X141093226Y-88999474D01*
X141138390Y-89032287D01*
X141233820Y-89080911D01*
X141320776Y-89125218D01*
X141320778Y-89125218D01*
X141320781Y-89125220D01*
X141420273Y-89157547D01*
X141515465Y-89188477D01*
X141591375Y-89200500D01*
X141717648Y-89220500D01*
X141717649Y-89220500D01*
X141922351Y-89220500D01*
X141922352Y-89220500D01*
X142124534Y-89188477D01*
X142319219Y-89125220D01*
X142501610Y-89032287D01*
X142597975Y-88962274D01*
X142667213Y-88911971D01*
X142667215Y-88911968D01*
X142667219Y-88911966D01*
X142811966Y-88767219D01*
X142811968Y-88767215D01*
X142811971Y-88767213D01*
X142932284Y-88601614D01*
X142932286Y-88601611D01*
X142932287Y-88601610D01*
X142979516Y-88508917D01*
X143027489Y-88458123D01*
X143095310Y-88441328D01*
X143161445Y-88463865D01*
X143200483Y-88508917D01*
X143224599Y-88556246D01*
X143247715Y-88601614D01*
X143368028Y-88767213D01*
X143512786Y-88911971D01*
X143633226Y-88999474D01*
X143678390Y-89032287D01*
X143773820Y-89080911D01*
X143860776Y-89125218D01*
X143860778Y-89125218D01*
X143860781Y-89125220D01*
X143960273Y-89157547D01*
X144055465Y-89188477D01*
X144131375Y-89200500D01*
X144257648Y-89220500D01*
X144257649Y-89220500D01*
X144462351Y-89220500D01*
X144462352Y-89220500D01*
X144664534Y-89188477D01*
X144859219Y-89125220D01*
X145041610Y-89032287D01*
X145137975Y-88962274D01*
X145207213Y-88911971D01*
X145207215Y-88911968D01*
X145207219Y-88911966D01*
X145351966Y-88767219D01*
X145351968Y-88767215D01*
X145351971Y-88767213D01*
X145472284Y-88601614D01*
X145472286Y-88601611D01*
X145472287Y-88601610D01*
X145519516Y-88508917D01*
X145567489Y-88458123D01*
X145635310Y-88441328D01*
X145701445Y-88463865D01*
X145740483Y-88508917D01*
X145764599Y-88556246D01*
X145787715Y-88601614D01*
X145908028Y-88767213D01*
X146052786Y-88911971D01*
X146173226Y-88999474D01*
X146218390Y-89032287D01*
X146313820Y-89080911D01*
X146400776Y-89125218D01*
X146400778Y-89125218D01*
X146400781Y-89125220D01*
X146500273Y-89157547D01*
X146595465Y-89188477D01*
X146671375Y-89200500D01*
X146797648Y-89220500D01*
X146797649Y-89220500D01*
X147002351Y-89220500D01*
X147002352Y-89220500D01*
X147204534Y-89188477D01*
X147399219Y-89125220D01*
X147581610Y-89032287D01*
X147677975Y-88962274D01*
X147747213Y-88911971D01*
X147747215Y-88911968D01*
X147747219Y-88911966D01*
X147891966Y-88767219D01*
X147891968Y-88767215D01*
X147891971Y-88767213D01*
X148012284Y-88601614D01*
X148012286Y-88601611D01*
X148012287Y-88601610D01*
X148059516Y-88508917D01*
X148107489Y-88458123D01*
X148175310Y-88441328D01*
X148241445Y-88463865D01*
X148280483Y-88508917D01*
X148304599Y-88556246D01*
X148327715Y-88601614D01*
X148448028Y-88767213D01*
X148592786Y-88911971D01*
X148713226Y-88999474D01*
X148758390Y-89032287D01*
X148853820Y-89080911D01*
X148940776Y-89125218D01*
X148940778Y-89125218D01*
X148940781Y-89125220D01*
X149040273Y-89157547D01*
X149135465Y-89188477D01*
X149211375Y-89200500D01*
X149337648Y-89220500D01*
X149337649Y-89220500D01*
X149542351Y-89220500D01*
X149542352Y-89220500D01*
X149744534Y-89188477D01*
X149939219Y-89125220D01*
X150121610Y-89032287D01*
X150217975Y-88962274D01*
X150287213Y-88911971D01*
X150287215Y-88911968D01*
X150287219Y-88911966D01*
X150431966Y-88767219D01*
X150431968Y-88767215D01*
X150431971Y-88767213D01*
X150552284Y-88601614D01*
X150552286Y-88601611D01*
X150552287Y-88601610D01*
X150599516Y-88508917D01*
X150647489Y-88458123D01*
X150715310Y-88441328D01*
X150781445Y-88463865D01*
X150820483Y-88508917D01*
X150844599Y-88556246D01*
X150867715Y-88601614D01*
X150988028Y-88767213D01*
X151132786Y-88911971D01*
X151253226Y-88999474D01*
X151298390Y-89032287D01*
X151393820Y-89080911D01*
X151480776Y-89125218D01*
X151480778Y-89125218D01*
X151480781Y-89125220D01*
X151580273Y-89157547D01*
X151675465Y-89188477D01*
X151751375Y-89200500D01*
X151877648Y-89220500D01*
X151877649Y-89220500D01*
X152082351Y-89220500D01*
X152082352Y-89220500D01*
X152284534Y-89188477D01*
X152479219Y-89125220D01*
X152661610Y-89032287D01*
X152757975Y-88962274D01*
X152827213Y-88911971D01*
X152827215Y-88911968D01*
X152827219Y-88911966D01*
X152971966Y-88767219D01*
X152971968Y-88767215D01*
X152971971Y-88767213D01*
X153092284Y-88601614D01*
X153092286Y-88601611D01*
X153092287Y-88601610D01*
X153139516Y-88508917D01*
X153187489Y-88458123D01*
X153255310Y-88441328D01*
X153321445Y-88463865D01*
X153360483Y-88508917D01*
X153384599Y-88556246D01*
X153407715Y-88601614D01*
X153528028Y-88767213D01*
X153672786Y-88911971D01*
X153793226Y-88999474D01*
X153838390Y-89032287D01*
X153933820Y-89080911D01*
X154020776Y-89125218D01*
X154020778Y-89125218D01*
X154020781Y-89125220D01*
X154120273Y-89157547D01*
X154215465Y-89188477D01*
X154291375Y-89200500D01*
X154417648Y-89220500D01*
X154417649Y-89220500D01*
X154622351Y-89220500D01*
X154622352Y-89220500D01*
X154824534Y-89188477D01*
X155019219Y-89125220D01*
X155201610Y-89032287D01*
X155297975Y-88962274D01*
X155367213Y-88911971D01*
X155367215Y-88911968D01*
X155367219Y-88911966D01*
X155511966Y-88767219D01*
X155511968Y-88767215D01*
X155511971Y-88767213D01*
X155632286Y-88601611D01*
X155632289Y-88601607D01*
X155679795Y-88508369D01*
X155727769Y-88457573D01*
X155795590Y-88440778D01*
X155861725Y-88463315D01*
X155900765Y-88508369D01*
X155948141Y-88601350D01*
X155948147Y-88601359D01*
X155980523Y-88645921D01*
X155980524Y-88645922D01*
X156660000Y-87966446D01*
X156660000Y-87972661D01*
X156687259Y-88074394D01*
X156739920Y-88165606D01*
X156814394Y-88240080D01*
X156905606Y-88292741D01*
X157007339Y-88320000D01*
X157013553Y-88320000D01*
X156334076Y-88999474D01*
X156378650Y-89031859D01*
X156560968Y-89124755D01*
X156755582Y-89187990D01*
X156957683Y-89220000D01*
X157162317Y-89220000D01*
X157364417Y-89187990D01*
X157559031Y-89124755D01*
X157741349Y-89031859D01*
X157785921Y-88999474D01*
X157106447Y-88320000D01*
X157112661Y-88320000D01*
X157214394Y-88292741D01*
X157305606Y-88240080D01*
X157380080Y-88165606D01*
X157432741Y-88074394D01*
X157460000Y-87972661D01*
X157460000Y-87966447D01*
X158139474Y-88645921D01*
X158171861Y-88601347D01*
X158171861Y-88601346D01*
X158219234Y-88508371D01*
X158267208Y-88457575D01*
X158335028Y-88440779D01*
X158401164Y-88463316D01*
X158440203Y-88508369D01*
X158487585Y-88601359D01*
X158487713Y-88601610D01*
X158575819Y-88722877D01*
X158599298Y-88788681D01*
X158599500Y-88795761D01*
X158599500Y-89774217D01*
X158579815Y-89841256D01*
X158563181Y-89861898D01*
X156681899Y-91743181D01*
X156620576Y-91776666D01*
X156594218Y-91779500D01*
X141705782Y-91779500D01*
X141638743Y-91759815D01*
X141618101Y-91743181D01*
X130936819Y-81061899D01*
X130903334Y-81000576D01*
X130900500Y-80974218D01*
X130900500Y-78605761D01*
X130920185Y-78538722D01*
X130924165Y-78532899D01*
X131012287Y-78411610D01*
X131105220Y-78229219D01*
X131168477Y-78034534D01*
X131200500Y-77832352D01*
X131200500Y-77627648D01*
X131168477Y-77425466D01*
X131105220Y-77230781D01*
X131105218Y-77230778D01*
X131105218Y-77230776D01*
X131071503Y-77164607D01*
X131012287Y-77048390D01*
X131004556Y-77037749D01*
X130891971Y-76882786D01*
X130747213Y-76738028D01*
X130581613Y-76617715D01*
X130581612Y-76617714D01*
X130581610Y-76617713D01*
X130524653Y-76588691D01*
X130399223Y-76524781D01*
X130204534Y-76461522D01*
X130029995Y-76433878D01*
X130002352Y-76429500D01*
X129797648Y-76429500D01*
X129773329Y-76433351D01*
X129595465Y-76461522D01*
X129400776Y-76524781D01*
X129218386Y-76617715D01*
X129097123Y-76705818D01*
X129031317Y-76729298D01*
X129024238Y-76729500D01*
X125874500Y-76729500D01*
X125807461Y-76709815D01*
X125761706Y-76657011D01*
X125750500Y-76605500D01*
X125750500Y-75846031D01*
X125770185Y-75778992D01*
X125818205Y-75735546D01*
X125981610Y-75652287D01*
X126026774Y-75619474D01*
X126147213Y-75531971D01*
X126147215Y-75531968D01*
X126147219Y-75531966D01*
X126241537Y-75437648D01*
X153089500Y-75437648D01*
X153089500Y-75642351D01*
X153121522Y-75844534D01*
X153184781Y-76039223D01*
X153277715Y-76221613D01*
X153398028Y-76387213D01*
X153542786Y-76531971D01*
X153660805Y-76617715D01*
X153708390Y-76652287D01*
X153821295Y-76709815D01*
X153890776Y-76745218D01*
X153890778Y-76745218D01*
X153890781Y-76745220D01*
X153995137Y-76779127D01*
X154085465Y-76808477D01*
X154186557Y-76824488D01*
X154287648Y-76840500D01*
X154287649Y-76840500D01*
X154492351Y-76840500D01*
X154492352Y-76840500D01*
X154694534Y-76808477D01*
X154889219Y-76745220D01*
X155071610Y-76652287D01*
X155164590Y-76584732D01*
X155237213Y-76531971D01*
X155237215Y-76531968D01*
X155237219Y-76531966D01*
X155381966Y-76387219D01*
X155399570Y-76362989D01*
X155415100Y-76341615D01*
X155470429Y-76298949D01*
X155515418Y-76290500D01*
X157637770Y-76290500D01*
X157704809Y-76310185D01*
X157725451Y-76326819D01*
X159978181Y-78579548D01*
X160011666Y-78640871D01*
X160014500Y-78667229D01*
X160014500Y-81590975D01*
X160013961Y-81592810D01*
X160014445Y-81594660D01*
X160004157Y-81626195D01*
X159994815Y-81658014D01*
X159993182Y-81659842D01*
X159992777Y-81661085D01*
X159984225Y-81669873D01*
X159968882Y-81687059D01*
X159966186Y-81689257D01*
X159852635Y-81771758D01*
X159797645Y-81826747D01*
X159792777Y-81830719D01*
X159766130Y-81841943D01*
X159740752Y-81855801D01*
X159734325Y-81855341D01*
X159728387Y-81857843D01*
X159699897Y-81852878D01*
X159671060Y-81850816D01*
X159665902Y-81846955D01*
X159659555Y-81845849D01*
X159638278Y-81826276D01*
X159615127Y-81808945D01*
X159610774Y-81800974D01*
X159608134Y-81798545D01*
X159606924Y-81793923D01*
X159598213Y-81777968D01*
X159568354Y-81697913D01*
X159568350Y-81697906D01*
X159482190Y-81582812D01*
X159482187Y-81582809D01*
X159367093Y-81496649D01*
X159367086Y-81496645D01*
X159232379Y-81446403D01*
X159232372Y-81446401D01*
X159172844Y-81440000D01*
X158475000Y-81440000D01*
X158475000Y-82464722D01*
X158398694Y-82420667D01*
X158284244Y-82390000D01*
X158165756Y-82390000D01*
X158051306Y-82420667D01*
X157975000Y-82464722D01*
X157975000Y-81440000D01*
X157277155Y-81440000D01*
X157217627Y-81446401D01*
X157217620Y-81446403D01*
X157082913Y-81496645D01*
X157082906Y-81496649D01*
X156967812Y-81582809D01*
X156967809Y-81582812D01*
X156881649Y-81697906D01*
X156881645Y-81697913D01*
X156831403Y-81832620D01*
X156831401Y-81832627D01*
X156825000Y-81892155D01*
X156825000Y-82590000D01*
X157849722Y-82590000D01*
X157805667Y-82666306D01*
X157775000Y-82780756D01*
X157775000Y-82899244D01*
X157805667Y-83013694D01*
X157849722Y-83090000D01*
X156825000Y-83090000D01*
X156825000Y-83787844D01*
X156831401Y-83847372D01*
X156831403Y-83847379D01*
X156881645Y-83982086D01*
X156881649Y-83982093D01*
X156967809Y-84097187D01*
X156967812Y-84097190D01*
X157082906Y-84183350D01*
X157082913Y-84183354D01*
X157217620Y-84233596D01*
X157217627Y-84233598D01*
X157277155Y-84239999D01*
X157277172Y-84240000D01*
X157975000Y-84240000D01*
X157975000Y-83215277D01*
X158051306Y-83259333D01*
X158165756Y-83290000D01*
X158284244Y-83290000D01*
X158398694Y-83259333D01*
X158475000Y-83215277D01*
X158475000Y-84240000D01*
X159172828Y-84240000D01*
X159172844Y-84239999D01*
X159232372Y-84233598D01*
X159232379Y-84233596D01*
X159367086Y-84183354D01*
X159367093Y-84183350D01*
X159482187Y-84097190D01*
X159482190Y-84097187D01*
X159568350Y-83982093D01*
X159568354Y-83982086D01*
X159598213Y-83902031D01*
X159640084Y-83846097D01*
X159705548Y-83821680D01*
X159773821Y-83836531D01*
X159802076Y-83857683D01*
X159852636Y-83908243D01*
X159852641Y-83908247D01*
X159980184Y-84000911D01*
X160030978Y-84037815D01*
X160147501Y-84097187D01*
X160227393Y-84137895D01*
X160227396Y-84137896D01*
X160332221Y-84171955D01*
X160437049Y-84206015D01*
X160654778Y-84240500D01*
X160654779Y-84240500D01*
X160875221Y-84240500D01*
X160875222Y-84240500D01*
X161092951Y-84206015D01*
X161302606Y-84137895D01*
X161499022Y-84037815D01*
X161677365Y-83908242D01*
X161833242Y-83752365D01*
X161962815Y-83574022D01*
X162062895Y-83377606D01*
X162131015Y-83167951D01*
X162165500Y-82950222D01*
X162165500Y-82729778D01*
X162131015Y-82512049D01*
X162096955Y-82407221D01*
X162062896Y-82302396D01*
X162062895Y-82302393D01*
X162018555Y-82215373D01*
X161962815Y-82105978D01*
X161942329Y-82077781D01*
X161833247Y-81927641D01*
X161833243Y-81927636D01*
X161677367Y-81771760D01*
X161677365Y-81771758D01*
X161566613Y-81691291D01*
X161523949Y-81635963D01*
X161515500Y-81590975D01*
X161515500Y-78231079D01*
X161486659Y-78086092D01*
X161486658Y-78086091D01*
X161486658Y-78086087D01*
X161465304Y-78034534D01*
X161430087Y-77949511D01*
X161430080Y-77949498D01*
X161347952Y-77826585D01*
X161335444Y-77814077D01*
X161243416Y-77722049D01*
X160569753Y-77048386D01*
X158478421Y-74957052D01*
X158478414Y-74957046D01*
X158404729Y-74907812D01*
X158404729Y-74907813D01*
X158355491Y-74874913D01*
X158218917Y-74818343D01*
X158218907Y-74818340D01*
X158073920Y-74789500D01*
X158073918Y-74789500D01*
X155515418Y-74789500D01*
X155448379Y-74769815D01*
X155415100Y-74738385D01*
X155381971Y-74692787D01*
X155381967Y-74692782D01*
X155237213Y-74548028D01*
X155071613Y-74427715D01*
X155071612Y-74427714D01*
X155071610Y-74427713D01*
X155014653Y-74398691D01*
X154889223Y-74334781D01*
X154694534Y-74271522D01*
X154519995Y-74243878D01*
X154492352Y-74239500D01*
X154287648Y-74239500D01*
X154263329Y-74243351D01*
X154085465Y-74271522D01*
X153890776Y-74334781D01*
X153708386Y-74427715D01*
X153542786Y-74548028D01*
X153398028Y-74692786D01*
X153277715Y-74858386D01*
X153184781Y-75040776D01*
X153121522Y-75235465D01*
X153089500Y-75437648D01*
X126241537Y-75437648D01*
X126291966Y-75387219D01*
X126412287Y-75221610D01*
X126505220Y-75039219D01*
X126568477Y-74844534D01*
X126600500Y-74642352D01*
X126600500Y-74437648D01*
X126584207Y-74334780D01*
X126568477Y-74235465D01*
X126537458Y-74140000D01*
X126505220Y-74040781D01*
X126505218Y-74040778D01*
X126505218Y-74040776D01*
X126412419Y-73858650D01*
X126412287Y-73858390D01*
X126380092Y-73814077D01*
X126291971Y-73692786D01*
X126147213Y-73548028D01*
X125981613Y-73427715D01*
X125981612Y-73427714D01*
X125981610Y-73427713D01*
X125924653Y-73398691D01*
X125799223Y-73334781D01*
X125604534Y-73271522D01*
X125429995Y-73243878D01*
X125402352Y-73239500D01*
X125197648Y-73239500D01*
X125173329Y-73243351D01*
X124995465Y-73271522D01*
X124800776Y-73334781D01*
X124618386Y-73427715D01*
X124452786Y-73548028D01*
X124308028Y-73692786D01*
X124187715Y-73858386D01*
X124094781Y-74040778D01*
X124031522Y-74235468D01*
X124008073Y-74383513D01*
X123978143Y-74446648D01*
X123973300Y-74451777D01*
X123972869Y-74452207D01*
X123972862Y-74452216D01*
X123863371Y-74616080D01*
X123863366Y-74616089D01*
X123813559Y-74736334D01*
X123813554Y-74736347D01*
X123811219Y-74741987D01*
X123787949Y-74798164D01*
X123775969Y-74858390D01*
X123774785Y-74864343D01*
X123749500Y-74991457D01*
X123749500Y-77415500D01*
X123729815Y-77482539D01*
X123677011Y-77528294D01*
X123625500Y-77539500D01*
X119675762Y-77539500D01*
X119608723Y-77519815D01*
X119602877Y-77515818D01*
X119481613Y-77427715D01*
X119481612Y-77427714D01*
X119481610Y-77427713D01*
X119424653Y-77398691D01*
X119299223Y-77334781D01*
X119104534Y-77271522D01*
X118929995Y-77243878D01*
X118902352Y-77239500D01*
X118697648Y-77239500D01*
X118673329Y-77243351D01*
X118495465Y-77271522D01*
X118300776Y-77334781D01*
X118118386Y-77427715D01*
X117952786Y-77548028D01*
X117808028Y-77692786D01*
X117687715Y-77858385D01*
X117641291Y-77949498D01*
X117594780Y-78040781D01*
X117594779Y-78040783D01*
X117594778Y-78040786D01*
X117576065Y-78098375D01*
X117545816Y-78147735D01*
X117200000Y-78493551D01*
X117200000Y-78487339D01*
X117172741Y-78385606D01*
X117120080Y-78294394D01*
X117045606Y-78219920D01*
X116954394Y-78167259D01*
X116852661Y-78140000D01*
X116846446Y-78140000D01*
X117525922Y-77460524D01*
X117525921Y-77460523D01*
X117481359Y-77428147D01*
X117481350Y-77428141D01*
X117299031Y-77335244D01*
X117104417Y-77272009D01*
X116902317Y-77240000D01*
X116697683Y-77240000D01*
X116495582Y-77272009D01*
X116300968Y-77335244D01*
X116118644Y-77428143D01*
X116074077Y-77460523D01*
X116074077Y-77460524D01*
X116753554Y-78140000D01*
X116747339Y-78140000D01*
X116645606Y-78167259D01*
X116554394Y-78219920D01*
X116479920Y-78294394D01*
X116427259Y-78385606D01*
X116400000Y-78487339D01*
X116400000Y-78493553D01*
X115720524Y-77814077D01*
X115720523Y-77814077D01*
X115688143Y-77858644D01*
X115595244Y-78040968D01*
X115532009Y-78235582D01*
X115500000Y-78437682D01*
X115500000Y-78642317D01*
X115532009Y-78844417D01*
X115595244Y-79039031D01*
X115688141Y-79221350D01*
X115688147Y-79221359D01*
X115720523Y-79265921D01*
X115720524Y-79265922D01*
X116400000Y-78586446D01*
X116400000Y-78592661D01*
X116427259Y-78694394D01*
X116479920Y-78785606D01*
X116554394Y-78860080D01*
X116645606Y-78912741D01*
X116747339Y-78940000D01*
X116753553Y-78940000D01*
X116074076Y-79619474D01*
X116118650Y-79651859D01*
X116300968Y-79744755D01*
X116495582Y-79807990D01*
X116697683Y-79840000D01*
X116902317Y-79840000D01*
X117104417Y-79807990D01*
X117299031Y-79744755D01*
X117481349Y-79651859D01*
X117525921Y-79619474D01*
X116846447Y-78940000D01*
X116852661Y-78940000D01*
X116954394Y-78912741D01*
X117045606Y-78860080D01*
X117120080Y-78785606D01*
X117172741Y-78694394D01*
X117200000Y-78592661D01*
X117200000Y-78586447D01*
X117545816Y-78932263D01*
X117576065Y-78981624D01*
X117594779Y-79039219D01*
X117648584Y-79144815D01*
X117687585Y-79221359D01*
X117687715Y-79221613D01*
X117808028Y-79387213D01*
X117952786Y-79531971D01*
X118094889Y-79635213D01*
X118118390Y-79652287D01*
X118223729Y-79705960D01*
X118300776Y-79745218D01*
X118300778Y-79745218D01*
X118300781Y-79745220D01*
X118405137Y-79779127D01*
X118495465Y-79808477D01*
X118596557Y-79824488D01*
X118697648Y-79840500D01*
X118697649Y-79840500D01*
X118902351Y-79840500D01*
X118902352Y-79840500D01*
X119104534Y-79808477D01*
X119299219Y-79745220D01*
X119481610Y-79652287D01*
X119602877Y-79564181D01*
X119668683Y-79540702D01*
X119675762Y-79540500D01*
X123158981Y-79540500D01*
X123226020Y-79560185D01*
X123271775Y-79612989D01*
X123281719Y-79682147D01*
X123281454Y-79683898D01*
X123258393Y-79829500D01*
X123249500Y-79885646D01*
X123249500Y-80114354D01*
X123250740Y-80122182D01*
X123285278Y-80340246D01*
X123285278Y-80340249D01*
X123355950Y-80557755D01*
X123440510Y-80723713D01*
X123459783Y-80761538D01*
X123594214Y-80946566D01*
X123755934Y-81108286D01*
X123840864Y-81169991D01*
X123883529Y-81225321D01*
X123889508Y-81294935D01*
X123856902Y-81356730D01*
X123840864Y-81370627D01*
X123756257Y-81432097D01*
X123594597Y-81593757D01*
X123460211Y-81778723D01*
X123356417Y-81982429D01*
X123285765Y-82199871D01*
X123271491Y-82290000D01*
X124259252Y-82290000D01*
X124237482Y-82327708D01*
X124200000Y-82467591D01*
X124200000Y-82612409D01*
X124237482Y-82752292D01*
X124259252Y-82790000D01*
X123271491Y-82790000D01*
X123285765Y-82880128D01*
X123356417Y-83097570D01*
X123460213Y-83301279D01*
X123593011Y-83484060D01*
X123616491Y-83549866D01*
X123600666Y-83617920D01*
X123550560Y-83666615D01*
X123536026Y-83673127D01*
X123507671Y-83683702D01*
X123507664Y-83683706D01*
X123392455Y-83769952D01*
X123392452Y-83769955D01*
X123306206Y-83885164D01*
X123306202Y-83885171D01*
X123255908Y-84020017D01*
X123249723Y-84077554D01*
X123249501Y-84079623D01*
X123249500Y-84079635D01*
X123249500Y-84407110D01*
X123229815Y-84474149D01*
X123213181Y-84494791D01*
X122704792Y-85003181D01*
X122643469Y-85036666D01*
X122617111Y-85039500D01*
X118681903Y-85039500D01*
X118448631Y-85076446D01*
X118224003Y-85149433D01*
X118013566Y-85256657D01*
X117905402Y-85335244D01*
X117822490Y-85395483D01*
X117822488Y-85395485D01*
X117822486Y-85395486D01*
X117734905Y-85483066D01*
X117673582Y-85516551D01*
X117603890Y-85511565D01*
X117574339Y-85495702D01*
X117481349Y-85428140D01*
X117299031Y-85335244D01*
X117104417Y-85272009D01*
X116902317Y-85240000D01*
X116697683Y-85240000D01*
X116495582Y-85272009D01*
X116300968Y-85335244D01*
X116118644Y-85428143D01*
X116074077Y-85460523D01*
X116074077Y-85460524D01*
X116753553Y-86140000D01*
X116747339Y-86140000D01*
X116645606Y-86167259D01*
X116554394Y-86219920D01*
X116479920Y-86294394D01*
X116427259Y-86385606D01*
X116400000Y-86487339D01*
X116400000Y-86493553D01*
X115720524Y-85814077D01*
X115720523Y-85814077D01*
X115688143Y-85858644D01*
X115595244Y-86040968D01*
X115532009Y-86235582D01*
X115500000Y-86437682D01*
X115500000Y-86642317D01*
X115532009Y-86844417D01*
X115595244Y-87039031D01*
X115688141Y-87221350D01*
X115688147Y-87221359D01*
X115720523Y-87265921D01*
X115720524Y-87265922D01*
X116400000Y-86586446D01*
X116400000Y-86592661D01*
X116427259Y-86694394D01*
X116479920Y-86785606D01*
X116554394Y-86860080D01*
X116645606Y-86912741D01*
X116747339Y-86940000D01*
X116753552Y-86940000D01*
X116074076Y-87619474D01*
X116118650Y-87651859D01*
X116300968Y-87744755D01*
X116495582Y-87807990D01*
X116697683Y-87840000D01*
X116902317Y-87840000D01*
X117104417Y-87807990D01*
X117299031Y-87744755D01*
X117481349Y-87651859D01*
X117574340Y-87584297D01*
X117640146Y-87560817D01*
X117708200Y-87576642D01*
X117734907Y-87596934D01*
X117822490Y-87684517D01*
X118013567Y-87823343D01*
X118068422Y-87851293D01*
X118224003Y-87930566D01*
X118224005Y-87930566D01*
X118224008Y-87930568D01*
X118293967Y-87953299D01*
X118448631Y-88003553D01*
X118681903Y-88040500D01*
X118681908Y-88040500D01*
X123408097Y-88040500D01*
X123537689Y-88019973D01*
X123641368Y-88003553D01*
X123641379Y-88003549D01*
X123646103Y-88002416D01*
X123646646Y-88004680D01*
X123706838Y-88002868D01*
X123766727Y-88038857D01*
X123797651Y-88101510D01*
X123799500Y-88122843D01*
X123799500Y-89867110D01*
X123779815Y-89934149D01*
X123763181Y-89954791D01*
X118794790Y-94923181D01*
X118733467Y-94956666D01*
X118707109Y-94959500D01*
X118199998Y-94959500D01*
X118199980Y-94959501D01*
X118097203Y-94970000D01*
X118097200Y-94970001D01*
X117930668Y-95025185D01*
X117930663Y-95025187D01*
X117781342Y-95117289D01*
X117657289Y-95241342D01*
X117565187Y-95390663D01*
X117565186Y-95390666D01*
X117510001Y-95557203D01*
X117510001Y-95557204D01*
X117510000Y-95557204D01*
X117499500Y-95659983D01*
X117499500Y-97860001D01*
X117499501Y-97860018D01*
X117510000Y-97962796D01*
X117510001Y-97962799D01*
X117524585Y-98006809D01*
X117565186Y-98129334D01*
X117657288Y-98278656D01*
X117781344Y-98402712D01*
X117930666Y-98494814D01*
X118097203Y-98549999D01*
X118199991Y-98560500D01*
X118927110Y-98560499D01*
X118994149Y-98580183D01*
X119014791Y-98596818D01*
X126435681Y-106017708D01*
X126469166Y-106079031D01*
X126472000Y-106105389D01*
X126472000Y-108353000D01*
X126452315Y-108420039D01*
X126399511Y-108465794D01*
X126348001Y-108477000D01*
X126174630Y-108477000D01*
X126174623Y-108477001D01*
X126115016Y-108483408D01*
X125980171Y-108533702D01*
X125980164Y-108533706D01*
X125864955Y-108619952D01*
X125864952Y-108619955D01*
X125778706Y-108735164D01*
X125778702Y-108735171D01*
X125728408Y-108870017D01*
X125722001Y-108929616D01*
X125722001Y-108929623D01*
X125722000Y-108929635D01*
X125722000Y-112525370D01*
X125722001Y-112525376D01*
X125728408Y-112584983D01*
X125778702Y-112719828D01*
X125778706Y-112719835D01*
X125864952Y-112835044D01*
X125864955Y-112835047D01*
X125980164Y-112921293D01*
X125980173Y-112921298D01*
X126027437Y-112938926D01*
X126083371Y-112980796D01*
X126107789Y-113046260D01*
X126092938Y-113114533D01*
X126043533Y-113163939D01*
X125977528Y-113178933D01*
X125941157Y-113177001D01*
X125941128Y-113177000D01*
X125941122Y-113177000D01*
X124003878Y-113177000D01*
X124003870Y-113177000D01*
X124003847Y-113177001D01*
X123951256Y-113179795D01*
X123951255Y-113179795D01*
X123721378Y-113224254D01*
X123721376Y-113224254D01*
X123721374Y-113224255D01*
X123658939Y-113247817D01*
X123502310Y-113306925D01*
X123300368Y-113425429D01*
X123300361Y-113425434D01*
X123121358Y-113576356D01*
X123121356Y-113576358D01*
X122970434Y-113755361D01*
X122970429Y-113755368D01*
X122851925Y-113957310D01*
X122797159Y-114102433D01*
X122769255Y-114176374D01*
X122769254Y-114176376D01*
X122769254Y-114176378D01*
X122724795Y-114406255D01*
X122724795Y-114406256D01*
X122722001Y-114458847D01*
X122722000Y-114458886D01*
X122722000Y-116396113D01*
X122722001Y-116396152D01*
X122723446Y-116423342D01*
X122724795Y-116448741D01*
X122769255Y-116678626D01*
X122817826Y-116807332D01*
X122851925Y-116897689D01*
X122913573Y-117002742D01*
X122930525Y-117070524D01*
X122908141Y-117136711D01*
X122853527Y-117180289D01*
X122806627Y-117189500D01*
X113474500Y-117189500D01*
X113407461Y-117169815D01*
X113361706Y-117117011D01*
X113350500Y-117065500D01*
X113350500Y-109663303D01*
X119972500Y-109663303D01*
X119972500Y-110477500D01*
X121472500Y-110477500D01*
X121472500Y-110977500D01*
X119972501Y-110977500D01*
X119972501Y-111791697D01*
X119982900Y-111923832D01*
X120037877Y-112142019D01*
X120130928Y-112346874D01*
X120130931Y-112346880D01*
X120259059Y-112531823D01*
X120259069Y-112531835D01*
X120418164Y-112690930D01*
X120418176Y-112690940D01*
X120603119Y-112819068D01*
X120603125Y-112819071D01*
X120807980Y-112912122D01*
X121026167Y-112967099D01*
X121158310Y-112977499D01*
X121722499Y-112977499D01*
X121722500Y-112977498D01*
X121722500Y-112160512D01*
X121779507Y-112193425D01*
X121906674Y-112227500D01*
X122038326Y-112227500D01*
X122165493Y-112193425D01*
X122222500Y-112160512D01*
X122222500Y-112977499D01*
X122786682Y-112977499D01*
X122786697Y-112977498D01*
X122918832Y-112967099D01*
X123137019Y-112912122D01*
X123341874Y-112819071D01*
X123341880Y-112819068D01*
X123526823Y-112690940D01*
X123526835Y-112690930D01*
X123685930Y-112531835D01*
X123685940Y-112531823D01*
X123814068Y-112346880D01*
X123814071Y-112346874D01*
X123907122Y-112142019D01*
X123962099Y-111923832D01*
X123972499Y-111791696D01*
X123972500Y-111791684D01*
X123972500Y-110977500D01*
X122472500Y-110977500D01*
X122472500Y-110477500D01*
X123972499Y-110477500D01*
X123972499Y-109663317D01*
X123972498Y-109663302D01*
X123962099Y-109531167D01*
X123907122Y-109312980D01*
X123814071Y-109108125D01*
X123814068Y-109108119D01*
X123685940Y-108923176D01*
X123685930Y-108923164D01*
X123526835Y-108764069D01*
X123526823Y-108764059D01*
X123341880Y-108635931D01*
X123341874Y-108635928D01*
X123137019Y-108542877D01*
X122918832Y-108487900D01*
X122786696Y-108477500D01*
X122222500Y-108477500D01*
X122222500Y-109294488D01*
X122165493Y-109261575D01*
X122038326Y-109227500D01*
X121906674Y-109227500D01*
X121779507Y-109261575D01*
X121722500Y-109294488D01*
X121722500Y-108477500D01*
X121158317Y-108477500D01*
X121158302Y-108477501D01*
X121026167Y-108487900D01*
X120807980Y-108542877D01*
X120603125Y-108635928D01*
X120603119Y-108635931D01*
X120418176Y-108764059D01*
X120418164Y-108764069D01*
X120259069Y-108923164D01*
X120259059Y-108923176D01*
X120130931Y-109108119D01*
X120130928Y-109108125D01*
X120037877Y-109312980D01*
X119982900Y-109531167D01*
X119972500Y-109663303D01*
X113350500Y-109663303D01*
X113350500Y-101722014D01*
X117500000Y-101722014D01*
X117500000Y-101957985D01*
X117530799Y-102191914D01*
X117591870Y-102419837D01*
X117682160Y-102637819D01*
X117682165Y-102637828D01*
X117800144Y-102842171D01*
X117800145Y-102842172D01*
X117862721Y-102923723D01*
X118698958Y-102087487D01*
X118723978Y-102147890D01*
X118795112Y-102254351D01*
X118885649Y-102344888D01*
X118992110Y-102416022D01*
X119052511Y-102441041D01*
X118216275Y-103277277D01*
X118297827Y-103339854D01*
X118297828Y-103339855D01*
X118502171Y-103457834D01*
X118502180Y-103457839D01*
X118720163Y-103548129D01*
X118720161Y-103548129D01*
X118948085Y-103609200D01*
X119182014Y-103639999D01*
X119182029Y-103640000D01*
X119417971Y-103640000D01*
X119417985Y-103639999D01*
X119651914Y-103609200D01*
X119879837Y-103548129D01*
X120097819Y-103457839D01*
X120097828Y-103457834D01*
X120302181Y-103339850D01*
X120383723Y-103277279D01*
X120383723Y-103277276D01*
X119547487Y-102441041D01*
X119607890Y-102416022D01*
X119714351Y-102344888D01*
X119804888Y-102254351D01*
X119876022Y-102147890D01*
X119901041Y-102087487D01*
X120737276Y-102923723D01*
X120737279Y-102923723D01*
X120799850Y-102842181D01*
X120917834Y-102637828D01*
X120917839Y-102637819D01*
X121008129Y-102419837D01*
X121069200Y-102191914D01*
X121099999Y-101957985D01*
X121100000Y-101957971D01*
X121100000Y-101722028D01*
X121099999Y-101722014D01*
X121069200Y-101488085D01*
X121008129Y-101260162D01*
X120917839Y-101042180D01*
X120917834Y-101042171D01*
X120799855Y-100837828D01*
X120799854Y-100837827D01*
X120737277Y-100756275D01*
X119901041Y-101592511D01*
X119876022Y-101532110D01*
X119804888Y-101425649D01*
X119714351Y-101335112D01*
X119607890Y-101263978D01*
X119547488Y-101238958D01*
X120383723Y-100402721D01*
X120302172Y-100340145D01*
X120302171Y-100340144D01*
X120097828Y-100222165D01*
X120097819Y-100222160D01*
X119879836Y-100131870D01*
X119879838Y-100131870D01*
X119651914Y-100070799D01*
X119417985Y-100040000D01*
X119182014Y-100040000D01*
X118948085Y-100070799D01*
X118720162Y-100131870D01*
X118502180Y-100222160D01*
X118502171Y-100222165D01*
X118297828Y-100340144D01*
X118297818Y-100340150D01*
X118216275Y-100402720D01*
X118216275Y-100402721D01*
X119052512Y-101238958D01*
X118992110Y-101263978D01*
X118885649Y-101335112D01*
X118795112Y-101425649D01*
X118723978Y-101532110D01*
X118698958Y-101592511D01*
X117862721Y-100756275D01*
X117862720Y-100756275D01*
X117800150Y-100837818D01*
X117800144Y-100837828D01*
X117682165Y-101042171D01*
X117682160Y-101042180D01*
X117591870Y-101260162D01*
X117530799Y-101488085D01*
X117500000Y-101722014D01*
X113350500Y-101722014D01*
X113350500Y-90437682D01*
X119000000Y-90437682D01*
X119000000Y-90642317D01*
X119032009Y-90844417D01*
X119095244Y-91039031D01*
X119188141Y-91221350D01*
X119188147Y-91221359D01*
X119220523Y-91265921D01*
X119220524Y-91265922D01*
X119900000Y-90586446D01*
X119900000Y-90592661D01*
X119927259Y-90694394D01*
X119979920Y-90785606D01*
X120054394Y-90860080D01*
X120145606Y-90912741D01*
X120247339Y-90940000D01*
X120253553Y-90940000D01*
X119574076Y-91619474D01*
X119618650Y-91651859D01*
X119800968Y-91744755D01*
X119995582Y-91807990D01*
X120197683Y-91840000D01*
X120402317Y-91840000D01*
X120604417Y-91807990D01*
X120799031Y-91744755D01*
X120981349Y-91651859D01*
X121025921Y-91619474D01*
X120346447Y-90940000D01*
X120352661Y-90940000D01*
X120454394Y-90912741D01*
X120545606Y-90860080D01*
X120620080Y-90785606D01*
X120672741Y-90694394D01*
X120700000Y-90592661D01*
X120700000Y-90586447D01*
X121379474Y-91265921D01*
X121411859Y-91221349D01*
X121504755Y-91039031D01*
X121567990Y-90844417D01*
X121600000Y-90642317D01*
X121600000Y-90437682D01*
X121567990Y-90235582D01*
X121504755Y-90040968D01*
X121411859Y-89858650D01*
X121379474Y-89814077D01*
X121379474Y-89814076D01*
X120700000Y-90493551D01*
X120700000Y-90487339D01*
X120672741Y-90385606D01*
X120620080Y-90294394D01*
X120545606Y-90219920D01*
X120454394Y-90167259D01*
X120352661Y-90140000D01*
X120346446Y-90140000D01*
X121025922Y-89460524D01*
X121025921Y-89460523D01*
X120981359Y-89428147D01*
X120981350Y-89428141D01*
X120799031Y-89335244D01*
X120604417Y-89272009D01*
X120402317Y-89240000D01*
X120197683Y-89240000D01*
X119995582Y-89272009D01*
X119800968Y-89335244D01*
X119618644Y-89428143D01*
X119574077Y-89460523D01*
X119574077Y-89460524D01*
X120253554Y-90140000D01*
X120247339Y-90140000D01*
X120145606Y-90167259D01*
X120054394Y-90219920D01*
X119979920Y-90294394D01*
X119927259Y-90385606D01*
X119900000Y-90487339D01*
X119900000Y-90493553D01*
X119220524Y-89814077D01*
X119220523Y-89814077D01*
X119188143Y-89858644D01*
X119095244Y-90040968D01*
X119032009Y-90235582D01*
X119000000Y-90437682D01*
X113350500Y-90437682D01*
X113350500Y-74437682D01*
X119000000Y-74437682D01*
X119000000Y-74642317D01*
X119032009Y-74844417D01*
X119095244Y-75039031D01*
X119188141Y-75221350D01*
X119188147Y-75221359D01*
X119220523Y-75265921D01*
X119220524Y-75265922D01*
X119900000Y-74586446D01*
X119900000Y-74592661D01*
X119927259Y-74694394D01*
X119979920Y-74785606D01*
X120054394Y-74860080D01*
X120145606Y-74912741D01*
X120247339Y-74940000D01*
X120253553Y-74940000D01*
X119574076Y-75619474D01*
X119618650Y-75651859D01*
X119800968Y-75744755D01*
X119995582Y-75807990D01*
X120197683Y-75840000D01*
X120402317Y-75840000D01*
X120604417Y-75807990D01*
X120799031Y-75744755D01*
X120981349Y-75651859D01*
X121025921Y-75619474D01*
X120346447Y-74940000D01*
X120352661Y-74940000D01*
X120454394Y-74912741D01*
X120545606Y-74860080D01*
X120620080Y-74785606D01*
X120672741Y-74694394D01*
X120700000Y-74592661D01*
X120700000Y-74586447D01*
X121379474Y-75265921D01*
X121411859Y-75221349D01*
X121504755Y-75039031D01*
X121567990Y-74844417D01*
X121600000Y-74642317D01*
X121600000Y-74437682D01*
X121567990Y-74235582D01*
X121504755Y-74040968D01*
X121411859Y-73858650D01*
X121379474Y-73814077D01*
X121379474Y-73814076D01*
X120700000Y-74493551D01*
X120700000Y-74487339D01*
X120672741Y-74385606D01*
X120620080Y-74294394D01*
X120545606Y-74219920D01*
X120454394Y-74167259D01*
X120352661Y-74140000D01*
X120346446Y-74140000D01*
X121025922Y-73460524D01*
X121025921Y-73460523D01*
X120981359Y-73428147D01*
X120981350Y-73428141D01*
X120799031Y-73335244D01*
X120604417Y-73272009D01*
X120402317Y-73240000D01*
X120197683Y-73240000D01*
X119995582Y-73272009D01*
X119800968Y-73335244D01*
X119618644Y-73428143D01*
X119574077Y-73460523D01*
X119574077Y-73460524D01*
X120253554Y-74140000D01*
X120247339Y-74140000D01*
X120145606Y-74167259D01*
X120054394Y-74219920D01*
X119979920Y-74294394D01*
X119927259Y-74385606D01*
X119900000Y-74487339D01*
X119900000Y-74493553D01*
X119220524Y-73814077D01*
X119220523Y-73814077D01*
X119188143Y-73858644D01*
X119095244Y-74040968D01*
X119032009Y-74235582D01*
X119000000Y-74437682D01*
X113350500Y-74437682D01*
X113350500Y-72114500D01*
X113370185Y-72047461D01*
X113422989Y-72001706D01*
X113474500Y-71990500D01*
X189676000Y-71990500D01*
X189743039Y-72010185D01*
G37*
%TD.AperFunction*%
%TA.AperFunction,Conductor*%
G36*
X128842539Y-78750185D02*
G01*
X128888294Y-78802989D01*
X128899500Y-78854500D01*
X128899500Y-81538541D01*
X128901414Y-81548165D01*
X128902109Y-81551656D01*
X128902109Y-81551658D01*
X128937947Y-81731833D01*
X128937949Y-81731837D01*
X128948993Y-81758500D01*
X128960038Y-81785165D01*
X128969827Y-81808797D01*
X129013366Y-81913911D01*
X129013371Y-81913920D01*
X129122860Y-82077781D01*
X129122863Y-82077785D01*
X129266537Y-82221459D01*
X129266559Y-82221479D01*
X140459735Y-93414655D01*
X140459764Y-93414686D01*
X140602214Y-93557136D01*
X140602218Y-93557139D01*
X140766079Y-93666628D01*
X140766092Y-93666635D01*
X140894833Y-93719961D01*
X140937744Y-93737735D01*
X140948164Y-93742051D01*
X141044812Y-93761275D01*
X141093135Y-93770887D01*
X141141458Y-93780500D01*
X141141459Y-93780500D01*
X141141460Y-93780500D01*
X141338540Y-93780500D01*
X155935500Y-93780500D01*
X156002539Y-93800185D01*
X156048294Y-93852989D01*
X156059500Y-93904500D01*
X156059500Y-94664237D01*
X156039815Y-94731276D01*
X156035818Y-94737122D01*
X155947715Y-94858386D01*
X155900485Y-94951080D01*
X155852510Y-95001876D01*
X155784689Y-95018671D01*
X155718554Y-94996134D01*
X155679515Y-94951080D01*
X155673861Y-94939983D01*
X155632287Y-94858390D01*
X155600092Y-94814077D01*
X155511971Y-94692786D01*
X155367213Y-94548028D01*
X155201613Y-94427715D01*
X155201612Y-94427714D01*
X155201610Y-94427713D01*
X155141898Y-94397288D01*
X155019223Y-94334781D01*
X154824534Y-94271522D01*
X154649995Y-94243878D01*
X154622352Y-94239500D01*
X154417648Y-94239500D01*
X154393329Y-94243351D01*
X154215465Y-94271522D01*
X154020776Y-94334781D01*
X153838386Y-94427715D01*
X153672786Y-94548028D01*
X153528028Y-94692786D01*
X153407715Y-94858386D01*
X153360485Y-94951080D01*
X153312510Y-95001876D01*
X153244689Y-95018671D01*
X153178554Y-94996134D01*
X153139515Y-94951080D01*
X153133861Y-94939983D01*
X153092287Y-94858390D01*
X153060092Y-94814077D01*
X152971971Y-94692786D01*
X152827213Y-94548028D01*
X152661613Y-94427715D01*
X152661612Y-94427714D01*
X152661610Y-94427713D01*
X152601898Y-94397288D01*
X152479223Y-94334781D01*
X152284534Y-94271522D01*
X152109995Y-94243878D01*
X152082352Y-94239500D01*
X151877648Y-94239500D01*
X151853329Y-94243351D01*
X151675465Y-94271522D01*
X151480776Y-94334781D01*
X151298386Y-94427715D01*
X151132786Y-94548028D01*
X150988028Y-94692786D01*
X150867715Y-94858386D01*
X150820485Y-94951080D01*
X150772510Y-95001876D01*
X150704689Y-95018671D01*
X150638554Y-94996134D01*
X150599515Y-94951080D01*
X150593861Y-94939983D01*
X150552287Y-94858390D01*
X150520092Y-94814077D01*
X150431971Y-94692786D01*
X150287213Y-94548028D01*
X150121613Y-94427715D01*
X150121612Y-94427714D01*
X150121610Y-94427713D01*
X150061898Y-94397288D01*
X149939223Y-94334781D01*
X149744534Y-94271522D01*
X149569995Y-94243878D01*
X149542352Y-94239500D01*
X149337648Y-94239500D01*
X149313329Y-94243351D01*
X149135465Y-94271522D01*
X148940776Y-94334781D01*
X148758386Y-94427715D01*
X148592786Y-94548028D01*
X148448028Y-94692786D01*
X148327715Y-94858386D01*
X148280485Y-94951080D01*
X148232510Y-95001876D01*
X148164689Y-95018671D01*
X148098554Y-94996134D01*
X148059515Y-94951080D01*
X148053861Y-94939983D01*
X148012287Y-94858390D01*
X147980092Y-94814077D01*
X147891971Y-94692786D01*
X147747213Y-94548028D01*
X147581613Y-94427715D01*
X147581612Y-94427714D01*
X147581610Y-94427713D01*
X147521898Y-94397288D01*
X147399223Y-94334781D01*
X147204534Y-94271522D01*
X147029995Y-94243878D01*
X147002352Y-94239500D01*
X146797648Y-94239500D01*
X146773329Y-94243351D01*
X146595465Y-94271522D01*
X146400776Y-94334781D01*
X146218386Y-94427715D01*
X146052786Y-94548028D01*
X145908028Y-94692786D01*
X145787715Y-94858386D01*
X145740485Y-94951080D01*
X145692510Y-95001876D01*
X145624689Y-95018671D01*
X145558554Y-94996134D01*
X145519515Y-94951080D01*
X145513861Y-94939983D01*
X145472287Y-94858390D01*
X145440092Y-94814077D01*
X145351971Y-94692786D01*
X145207213Y-94548028D01*
X145041613Y-94427715D01*
X145041612Y-94427714D01*
X145041610Y-94427713D01*
X144981898Y-94397288D01*
X144859223Y-94334781D01*
X144664534Y-94271522D01*
X144489995Y-94243878D01*
X144462352Y-94239500D01*
X144257648Y-94239500D01*
X144233329Y-94243351D01*
X144055465Y-94271522D01*
X143860776Y-94334781D01*
X143678386Y-94427715D01*
X143512786Y-94548028D01*
X143368032Y-94692782D01*
X143368028Y-94692787D01*
X143299978Y-94786451D01*
X143244648Y-94829117D01*
X143175035Y-94835096D01*
X143113240Y-94802490D01*
X143081954Y-94752570D01*
X143080010Y-94746703D01*
X143054814Y-94670666D01*
X142962712Y-94521344D01*
X142838656Y-94397288D01*
X142737314Y-94334780D01*
X142689336Y-94305187D01*
X142689331Y-94305185D01*
X142652535Y-94292992D01*
X142522797Y-94250001D01*
X142522795Y-94250000D01*
X142420010Y-94239500D01*
X141219998Y-94239500D01*
X141219981Y-94239501D01*
X141117203Y-94250000D01*
X141117200Y-94250001D01*
X140950668Y-94305185D01*
X140950663Y-94305187D01*
X140801342Y-94397289D01*
X140677289Y-94521342D01*
X140585187Y-94670663D01*
X140585185Y-94670668D01*
X140569807Y-94717077D01*
X140530001Y-94837203D01*
X140530001Y-94837204D01*
X140530000Y-94837204D01*
X140519500Y-94939983D01*
X140519500Y-96140001D01*
X140519501Y-96140018D01*
X140530000Y-96242796D01*
X140530001Y-96242799D01*
X140564445Y-96346743D01*
X140585186Y-96409334D01*
X140677288Y-96558656D01*
X140801344Y-96682712D01*
X140950666Y-96774814D01*
X140994504Y-96789340D01*
X141051949Y-96829113D01*
X141078772Y-96893628D01*
X141079500Y-96907046D01*
X141079500Y-100414582D01*
X141059815Y-100481621D01*
X141028385Y-100514900D01*
X140982787Y-100548028D01*
X140982782Y-100548032D01*
X140838028Y-100692786D01*
X140717715Y-100858386D01*
X140624781Y-101040778D01*
X140624780Y-101040780D01*
X140624780Y-101040781D01*
X140561524Y-101235465D01*
X140560018Y-101240099D01*
X140558759Y-101239689D01*
X140526974Y-101295042D01*
X140464946Y-101327204D01*
X140441194Y-101329500D01*
X137706504Y-101329500D01*
X137639465Y-101309815D01*
X137618823Y-101293181D01*
X137491098Y-101165456D01*
X137491096Y-101165454D01*
X137338413Y-101054523D01*
X137170256Y-100968843D01*
X136990767Y-100910523D01*
X136990765Y-100910522D01*
X136990763Y-100910522D01*
X136804368Y-100881000D01*
X136804363Y-100881000D01*
X136615637Y-100881000D01*
X136615632Y-100881000D01*
X136429236Y-100910522D01*
X136249741Y-100968844D01*
X136081586Y-101054523D01*
X135994475Y-101117813D01*
X135928904Y-101165454D01*
X135928902Y-101165456D01*
X135928901Y-101165456D01*
X135801177Y-101293181D01*
X135739854Y-101326666D01*
X135713496Y-101329500D01*
X130086504Y-101329500D01*
X130019465Y-101309815D01*
X129998823Y-101293181D01*
X129871098Y-101165456D01*
X129871096Y-101165454D01*
X129718413Y-101054523D01*
X129550256Y-100968843D01*
X129370767Y-100910523D01*
X129370765Y-100910522D01*
X129370763Y-100910522D01*
X129184368Y-100881000D01*
X129184363Y-100881000D01*
X128995637Y-100881000D01*
X128995632Y-100881000D01*
X128809236Y-100910522D01*
X128629741Y-100968844D01*
X128461586Y-101054523D01*
X128374475Y-101117813D01*
X128308904Y-101165454D01*
X128308902Y-101165456D01*
X128308901Y-101165456D01*
X128175456Y-101298901D01*
X128175456Y-101298902D01*
X128175454Y-101298904D01*
X128127813Y-101364475D01*
X128064523Y-101451586D01*
X127978844Y-101619741D01*
X127920522Y-101799236D01*
X127891000Y-101985631D01*
X127891000Y-102174368D01*
X127918008Y-102344888D01*
X127920523Y-102360767D01*
X127978843Y-102540256D01*
X128064523Y-102708413D01*
X128175454Y-102861096D01*
X128308904Y-102994546D01*
X128461587Y-103105477D01*
X128629744Y-103191157D01*
X128809233Y-103249477D01*
X128879134Y-103260548D01*
X128995632Y-103279000D01*
X128995637Y-103279000D01*
X129184368Y-103279000D01*
X129287920Y-103262598D01*
X129370767Y-103249477D01*
X129550256Y-103191157D01*
X129718413Y-103105477D01*
X129871096Y-102994546D01*
X129998823Y-102866819D01*
X130060146Y-102833334D01*
X130086504Y-102830500D01*
X133726082Y-102830500D01*
X135713496Y-102830500D01*
X135780535Y-102850185D01*
X135801177Y-102866819D01*
X135928904Y-102994546D01*
X136081587Y-103105477D01*
X136249744Y-103191157D01*
X136429233Y-103249477D01*
X136499134Y-103260548D01*
X136615632Y-103279000D01*
X136615637Y-103279000D01*
X136804368Y-103279000D01*
X136907920Y-103262598D01*
X136990767Y-103249477D01*
X137170256Y-103191157D01*
X137338413Y-103105477D01*
X137491096Y-102994546D01*
X137618823Y-102866819D01*
X137680146Y-102833334D01*
X137706504Y-102830500D01*
X140955500Y-102830500D01*
X141022539Y-102850185D01*
X141068294Y-102902989D01*
X141079500Y-102954500D01*
X141079500Y-103592786D01*
X141059815Y-103659825D01*
X141028385Y-103693104D01*
X140952786Y-103748028D01*
X140808028Y-103892786D01*
X140687715Y-104058386D01*
X140594781Y-104240776D01*
X140531522Y-104435465D01*
X140499500Y-104637648D01*
X140499500Y-104842351D01*
X140531522Y-105044534D01*
X140594781Y-105239223D01*
X140687715Y-105421613D01*
X140808028Y-105587213D01*
X140952786Y-105731971D01*
X141107749Y-105844556D01*
X141118390Y-105852287D01*
X141234607Y-105911503D01*
X141300776Y-105945218D01*
X141300778Y-105945218D01*
X141300781Y-105945220D01*
X141405137Y-105979127D01*
X141495465Y-106008477D01*
X141553747Y-106017708D01*
X141697648Y-106040500D01*
X141697649Y-106040500D01*
X141902351Y-106040500D01*
X141902352Y-106040500D01*
X142104534Y-106008477D01*
X142299219Y-105945220D01*
X142481610Y-105852287D01*
X142575783Y-105783867D01*
X142647213Y-105731971D01*
X142647215Y-105731968D01*
X142647219Y-105731966D01*
X142791966Y-105587219D01*
X142791968Y-105587215D01*
X142791971Y-105587213D01*
X142882011Y-105463281D01*
X142912287Y-105421610D01*
X143005220Y-105239219D01*
X143068477Y-105044534D01*
X143100500Y-104842352D01*
X143100500Y-104637648D01*
X143068477Y-104435466D01*
X143005220Y-104240781D01*
X143005218Y-104240778D01*
X143005218Y-104240776D01*
X142966051Y-104163907D01*
X142912287Y-104058390D01*
X142856670Y-103981839D01*
X142791971Y-103892786D01*
X142647217Y-103748032D01*
X142647212Y-103748028D01*
X142631615Y-103736696D01*
X142588949Y-103681366D01*
X142580500Y-103636378D01*
X142580500Y-102665416D01*
X142600185Y-102598377D01*
X142631613Y-102565099D01*
X142677219Y-102531966D01*
X142821966Y-102387219D01*
X142821968Y-102387215D01*
X142821971Y-102387213D01*
X142918499Y-102254351D01*
X142942287Y-102221610D01*
X143035220Y-102039219D01*
X143098477Y-101844534D01*
X143130500Y-101642352D01*
X143130500Y-101437648D01*
X143108525Y-101298904D01*
X143098477Y-101235465D01*
X143039685Y-101054523D01*
X143035220Y-101040781D01*
X143035218Y-101040778D01*
X143035218Y-101040776D01*
X142968850Y-100910523D01*
X142942287Y-100858390D01*
X142927341Y-100837818D01*
X142821971Y-100692786D01*
X142677217Y-100548032D01*
X142677212Y-100548028D01*
X142631615Y-100514900D01*
X142588949Y-100459571D01*
X142580500Y-100414582D01*
X142580500Y-96900418D01*
X142600185Y-96833379D01*
X142652989Y-96787624D01*
X142665474Y-96782720D01*
X142689334Y-96774814D01*
X142838656Y-96682712D01*
X142962712Y-96558656D01*
X143054814Y-96409334D01*
X143081955Y-96327427D01*
X143121726Y-96269984D01*
X143186242Y-96243161D01*
X143255018Y-96255476D01*
X143299977Y-96293547D01*
X143368034Y-96387219D01*
X143512781Y-96531966D01*
X143558384Y-96565098D01*
X143601050Y-96620425D01*
X143609500Y-96665416D01*
X143609500Y-108217769D01*
X143589815Y-108284808D01*
X143573181Y-108305450D01*
X140750449Y-111128181D01*
X140689126Y-111161666D01*
X140662768Y-111164500D01*
X139627129Y-111164500D01*
X139627123Y-111164501D01*
X139567516Y-111170908D01*
X139432671Y-111221202D01*
X139432664Y-111221206D01*
X139317455Y-111307452D01*
X139317452Y-111307455D01*
X139231206Y-111422664D01*
X139231202Y-111422671D01*
X139180908Y-111557517D01*
X139174501Y-111617116D01*
X139174500Y-111617135D01*
X139174500Y-113412870D01*
X139174501Y-113412876D01*
X139180909Y-113472487D01*
X139182692Y-113480031D01*
X139181375Y-113480342D01*
X139185775Y-113541858D01*
X139152291Y-113603181D01*
X139090968Y-113636666D01*
X139064609Y-113639500D01*
X133057889Y-113639500D01*
X132990850Y-113619815D01*
X132970208Y-113603181D01*
X130259318Y-110892291D01*
X130225833Y-110830968D01*
X130222999Y-110804610D01*
X130222999Y-108929629D01*
X130222998Y-108929623D01*
X130222997Y-108929616D01*
X130216591Y-108870017D01*
X130214924Y-108865548D01*
X130166297Y-108735171D01*
X130166293Y-108735164D01*
X130080047Y-108619955D01*
X130080044Y-108619952D01*
X129964835Y-108533706D01*
X129964828Y-108533702D01*
X129829982Y-108483408D01*
X129829983Y-108483408D01*
X129770383Y-108477001D01*
X129770381Y-108477000D01*
X129770373Y-108477000D01*
X129770365Y-108477000D01*
X129597000Y-108477000D01*
X129529961Y-108457315D01*
X129484206Y-108404511D01*
X129473000Y-108353000D01*
X129473000Y-105314408D01*
X129461091Y-105239219D01*
X129461091Y-105239218D01*
X129436053Y-105081130D01*
X129363066Y-104856503D01*
X129255842Y-104646065D01*
X129128997Y-104471479D01*
X129117017Y-104454990D01*
X121567703Y-96905676D01*
X127891500Y-96905676D01*
X127891500Y-97094323D01*
X127921011Y-97280650D01*
X127979304Y-97460061D01*
X127979305Y-97460063D01*
X128064952Y-97628153D01*
X128083189Y-97653255D01*
X128083190Y-97653255D01*
X128683600Y-97052845D01*
X128683600Y-97053504D01*
X128711295Y-97156865D01*
X128764799Y-97249536D01*
X128840464Y-97325201D01*
X128933135Y-97378705D01*
X129036496Y-97406400D01*
X129037153Y-97406400D01*
X128436743Y-98006808D01*
X128436743Y-98006809D01*
X128461844Y-98025046D01*
X128629935Y-98110694D01*
X128629938Y-98110695D01*
X128809349Y-98168988D01*
X128995677Y-98198500D01*
X129184323Y-98198500D01*
X129370650Y-98168988D01*
X129550061Y-98110695D01*
X129550064Y-98110694D01*
X129718151Y-98025048D01*
X129743256Y-98006808D01*
X129142848Y-97406400D01*
X129143504Y-97406400D01*
X129246865Y-97378705D01*
X129339536Y-97325201D01*
X129415201Y-97249536D01*
X129468705Y-97156865D01*
X129496400Y-97053504D01*
X129496400Y-97052847D01*
X130096808Y-97653256D01*
X130096808Y-97653255D01*
X130115048Y-97628151D01*
X130200694Y-97460064D01*
X130200695Y-97460061D01*
X130258988Y-97280650D01*
X130288500Y-97094323D01*
X130288500Y-96905676D01*
X135511500Y-96905676D01*
X135511500Y-97094323D01*
X135541011Y-97280650D01*
X135599304Y-97460061D01*
X135599305Y-97460063D01*
X135684952Y-97628153D01*
X135703189Y-97653255D01*
X135703190Y-97653255D01*
X136303600Y-97052845D01*
X136303600Y-97053504D01*
X136331295Y-97156865D01*
X136384799Y-97249536D01*
X136460464Y-97325201D01*
X136553135Y-97378705D01*
X136656496Y-97406400D01*
X136657153Y-97406400D01*
X136056743Y-98006808D01*
X136056743Y-98006809D01*
X136081844Y-98025046D01*
X136249935Y-98110694D01*
X136249938Y-98110695D01*
X136429349Y-98168988D01*
X136615677Y-98198500D01*
X136804323Y-98198500D01*
X136990650Y-98168988D01*
X137170061Y-98110695D01*
X137170064Y-98110694D01*
X137338151Y-98025048D01*
X137363255Y-98006808D01*
X137363256Y-98006808D01*
X136762848Y-97406400D01*
X136763504Y-97406400D01*
X136866865Y-97378705D01*
X136959536Y-97325201D01*
X137035201Y-97249536D01*
X137088705Y-97156865D01*
X137116400Y-97053504D01*
X137116400Y-97052848D01*
X137716808Y-97653256D01*
X137716808Y-97653255D01*
X137735048Y-97628151D01*
X137820694Y-97460064D01*
X137820695Y-97460061D01*
X137878988Y-97280650D01*
X137908500Y-97094323D01*
X137908500Y-96905676D01*
X137878988Y-96719349D01*
X137820695Y-96539938D01*
X137820694Y-96539935D01*
X137735046Y-96371844D01*
X137716809Y-96346743D01*
X137716808Y-96346743D01*
X137116400Y-96947151D01*
X137116400Y-96946496D01*
X137088705Y-96843135D01*
X137035201Y-96750464D01*
X136959536Y-96674799D01*
X136866865Y-96621295D01*
X136763504Y-96593600D01*
X136762847Y-96593600D01*
X137363255Y-95993190D01*
X137363255Y-95993189D01*
X137338153Y-95974952D01*
X137170063Y-95889305D01*
X137170061Y-95889304D01*
X136990650Y-95831011D01*
X136804323Y-95801500D01*
X136615677Y-95801500D01*
X136429349Y-95831011D01*
X136249938Y-95889304D01*
X136249936Y-95889305D01*
X136081844Y-95974953D01*
X136081839Y-95974957D01*
X136056743Y-95993188D01*
X136056743Y-95993191D01*
X136657154Y-96593600D01*
X136656496Y-96593600D01*
X136553135Y-96621295D01*
X136460464Y-96674799D01*
X136384799Y-96750464D01*
X136331295Y-96843135D01*
X136303600Y-96946496D01*
X136303600Y-96947152D01*
X135703191Y-96346743D01*
X135703188Y-96346743D01*
X135684957Y-96371839D01*
X135684953Y-96371844D01*
X135599305Y-96539936D01*
X135599304Y-96539938D01*
X135541011Y-96719349D01*
X135511500Y-96905676D01*
X130288500Y-96905676D01*
X130258988Y-96719349D01*
X130200695Y-96539938D01*
X130200694Y-96539935D01*
X130115046Y-96371844D01*
X130096809Y-96346743D01*
X130096808Y-96346743D01*
X129496400Y-96947151D01*
X129496400Y-96946496D01*
X129468705Y-96843135D01*
X129415201Y-96750464D01*
X129339536Y-96674799D01*
X129246865Y-96621295D01*
X129143504Y-96593600D01*
X129142847Y-96593600D01*
X129743255Y-95993190D01*
X129743255Y-95993189D01*
X129718153Y-95974952D01*
X129550063Y-95889305D01*
X129550061Y-95889304D01*
X129370650Y-95831011D01*
X129184323Y-95801500D01*
X128995677Y-95801500D01*
X128809349Y-95831011D01*
X128629938Y-95889304D01*
X128629936Y-95889305D01*
X128461844Y-95974953D01*
X128461839Y-95974957D01*
X128436743Y-95993188D01*
X128436743Y-95993191D01*
X129037154Y-96593600D01*
X129036496Y-96593600D01*
X128933135Y-96621295D01*
X128840464Y-96674799D01*
X128764799Y-96750464D01*
X128711295Y-96843135D01*
X128683600Y-96946496D01*
X128683600Y-96947152D01*
X128083191Y-96346743D01*
X128083188Y-96346743D01*
X128064957Y-96371839D01*
X128064953Y-96371844D01*
X127979305Y-96539936D01*
X127979304Y-96539938D01*
X127921011Y-96719349D01*
X127891500Y-96905676D01*
X121567703Y-96905676D01*
X121399708Y-96737681D01*
X121366223Y-96676358D01*
X121371207Y-96606666D01*
X121399708Y-96562319D01*
X126311070Y-91650957D01*
X126362783Y-91599244D01*
X126444517Y-91517510D01*
X126583343Y-91326434D01*
X126690568Y-91115992D01*
X126722687Y-91017139D01*
X126763553Y-90891368D01*
X126780304Y-90785606D01*
X126800500Y-90658097D01*
X126800500Y-85511902D01*
X126772519Y-85335244D01*
X126763553Y-85278632D01*
X126763552Y-85278628D01*
X126763552Y-85278626D01*
X126753486Y-85247648D01*
X128599500Y-85247648D01*
X128599500Y-85452351D01*
X128631522Y-85654534D01*
X128694781Y-85849223D01*
X128787715Y-86031613D01*
X128908028Y-86197213D01*
X129052786Y-86341971D01*
X129207749Y-86454556D01*
X129218390Y-86462287D01*
X129334607Y-86521503D01*
X129400776Y-86555218D01*
X129400778Y-86555218D01*
X129400781Y-86555220D01*
X129505137Y-86589127D01*
X129595465Y-86618477D01*
X129662504Y-86629095D01*
X129797648Y-86650500D01*
X129797649Y-86650500D01*
X130002346Y-86650500D01*
X130002352Y-86650500D01*
X130006091Y-86649907D01*
X130075382Y-86658853D01*
X130128839Y-86703843D01*
X130149487Y-86770592D01*
X130149500Y-86772378D01*
X130149500Y-87750975D01*
X130129815Y-87818014D01*
X130098387Y-87851291D01*
X130076300Y-87867339D01*
X129987632Y-87931760D01*
X129831756Y-88087636D01*
X129831752Y-88087641D01*
X129702187Y-88265974D01*
X129602104Y-88462393D01*
X129602103Y-88462396D01*
X129533985Y-88672047D01*
X129504357Y-88859110D01*
X129499500Y-88889778D01*
X129499500Y-89110222D01*
X129511694Y-89187213D01*
X129533985Y-89327952D01*
X129602103Y-89537603D01*
X129602104Y-89537606D01*
X129702187Y-89734025D01*
X129831752Y-89912358D01*
X129831756Y-89912363D01*
X129882316Y-89962923D01*
X129915801Y-90024246D01*
X129910817Y-90093938D01*
X129868945Y-90149871D01*
X129837969Y-90166785D01*
X129757918Y-90196643D01*
X129757906Y-90196649D01*
X129642812Y-90282809D01*
X129642809Y-90282812D01*
X129556649Y-90397906D01*
X129556645Y-90397913D01*
X129506403Y-90532620D01*
X129506401Y-90532627D01*
X129500000Y-90592155D01*
X129500000Y-91290000D01*
X130524722Y-91290000D01*
X130480667Y-91366306D01*
X130450000Y-91480756D01*
X130450000Y-91599244D01*
X130480667Y-91713694D01*
X130524722Y-91790000D01*
X129500000Y-91790000D01*
X129500000Y-92487844D01*
X129506401Y-92547372D01*
X129506403Y-92547379D01*
X129556645Y-92682086D01*
X129556649Y-92682093D01*
X129642809Y-92797187D01*
X129642812Y-92797190D01*
X129757906Y-92883350D01*
X129757913Y-92883354D01*
X129892620Y-92933596D01*
X129892627Y-92933598D01*
X129952155Y-92939999D01*
X129952172Y-92940000D01*
X130650000Y-92940000D01*
X130650000Y-91915277D01*
X130726306Y-91959333D01*
X130840756Y-91990000D01*
X130959244Y-91990000D01*
X131073694Y-91959333D01*
X131150000Y-91915277D01*
X131150000Y-92940000D01*
X131847828Y-92940000D01*
X131847844Y-92939999D01*
X131907372Y-92933598D01*
X131907379Y-92933596D01*
X132042086Y-92883354D01*
X132042093Y-92883350D01*
X132157187Y-92797190D01*
X132157190Y-92797187D01*
X132243350Y-92682093D01*
X132243354Y-92682086D01*
X132293596Y-92547379D01*
X132293598Y-92547372D01*
X132299999Y-92487844D01*
X132300000Y-92487827D01*
X132300000Y-91790000D01*
X131275278Y-91790000D01*
X131319333Y-91713694D01*
X131350000Y-91599244D01*
X131350000Y-91480756D01*
X131319333Y-91366306D01*
X131275278Y-91290000D01*
X132300000Y-91290000D01*
X132300000Y-90592172D01*
X132299999Y-90592155D01*
X132293598Y-90532627D01*
X132293596Y-90532620D01*
X132243354Y-90397913D01*
X132243350Y-90397906D01*
X132157190Y-90282812D01*
X132157187Y-90282809D01*
X132042093Y-90196649D01*
X132042087Y-90196646D01*
X131962030Y-90166786D01*
X131906097Y-90124914D01*
X131881680Y-90059450D01*
X131896532Y-89991177D01*
X131917681Y-89962925D01*
X131968242Y-89912365D01*
X132097815Y-89734022D01*
X132197895Y-89537606D01*
X132266015Y-89327951D01*
X132300500Y-89110222D01*
X132300500Y-88889778D01*
X132266015Y-88672049D01*
X132198195Y-88463316D01*
X132197896Y-88462396D01*
X132197895Y-88462393D01*
X132163237Y-88394375D01*
X132097815Y-88265978D01*
X132001833Y-88133869D01*
X131968247Y-88087641D01*
X131968243Y-88087636D01*
X131812367Y-87931760D01*
X131812365Y-87931758D01*
X131701613Y-87851291D01*
X131658949Y-87795963D01*
X131650500Y-87750975D01*
X131650500Y-86276079D01*
X131634735Y-86196828D01*
X131633105Y-86188632D01*
X131621659Y-86131088D01*
X131565945Y-85996586D01*
X131565385Y-85994954D01*
X131482954Y-85871588D01*
X131482953Y-85871587D01*
X131482951Y-85871584D01*
X131378416Y-85767049D01*
X131226473Y-85615106D01*
X131192988Y-85553783D01*
X131191681Y-85508028D01*
X131200500Y-85452352D01*
X131200500Y-85247648D01*
X131168477Y-85045466D01*
X131163520Y-85030211D01*
X131105218Y-84850776D01*
X131071503Y-84784607D01*
X131012287Y-84668390D01*
X130991661Y-84640000D01*
X130891971Y-84502786D01*
X130747213Y-84358028D01*
X130581613Y-84237715D01*
X130581612Y-84237714D01*
X130581610Y-84237713D01*
X130474925Y-84183354D01*
X130399223Y-84144781D01*
X130204534Y-84081522D01*
X130029995Y-84053878D01*
X130002352Y-84049500D01*
X129797648Y-84049500D01*
X129773329Y-84053351D01*
X129595465Y-84081522D01*
X129400776Y-84144781D01*
X129218386Y-84237715D01*
X129052786Y-84358028D01*
X128908028Y-84502786D01*
X128787715Y-84668386D01*
X128694781Y-84850776D01*
X128631522Y-85045465D01*
X128599500Y-85247648D01*
X126753486Y-85247648D01*
X126697859Y-85076447D01*
X126692072Y-85058639D01*
X126691012Y-85054880D01*
X126690568Y-85054008D01*
X126690568Y-85054007D01*
X126583343Y-84843566D01*
X126444517Y-84652490D01*
X126286818Y-84494791D01*
X126253333Y-84433468D01*
X126250499Y-84407110D01*
X126250499Y-84079629D01*
X126250498Y-84079623D01*
X126250497Y-84079616D01*
X126245299Y-84031257D01*
X126244091Y-84020016D01*
X126193797Y-83885171D01*
X126193793Y-83885164D01*
X126107547Y-83769955D01*
X126107544Y-83769952D01*
X125992335Y-83683706D01*
X125992326Y-83683701D01*
X125963974Y-83673127D01*
X125908040Y-83631257D01*
X125883622Y-83565792D01*
X125898473Y-83497519D01*
X125906988Y-83484059D01*
X126039788Y-83301276D01*
X126143582Y-83097570D01*
X126214234Y-82880128D01*
X126228509Y-82790000D01*
X125240748Y-82790000D01*
X125262518Y-82752292D01*
X125300000Y-82612409D01*
X125300000Y-82467591D01*
X125262518Y-82327708D01*
X125240748Y-82290000D01*
X126228509Y-82290000D01*
X126214234Y-82199871D01*
X126143582Y-81982429D01*
X126039788Y-81778723D01*
X125905402Y-81593757D01*
X125743742Y-81432097D01*
X125659135Y-81370626D01*
X125616470Y-81315296D01*
X125610491Y-81245682D01*
X125643097Y-81183887D01*
X125659125Y-81169999D01*
X125744066Y-81108286D01*
X125905786Y-80946566D01*
X126040217Y-80761538D01*
X126144048Y-80557758D01*
X126184353Y-80433713D01*
X126214721Y-80340249D01*
X126214721Y-80340248D01*
X126214722Y-80340245D01*
X126250500Y-80114354D01*
X126250500Y-79885646D01*
X126214722Y-79659755D01*
X126214721Y-79659751D01*
X126214721Y-79659750D01*
X126144049Y-79442244D01*
X126134075Y-79422669D01*
X126040217Y-79238462D01*
X125905786Y-79053434D01*
X125794533Y-78942181D01*
X125761048Y-78880858D01*
X125766032Y-78811166D01*
X125807904Y-78755233D01*
X125873368Y-78730816D01*
X125882214Y-78730500D01*
X128775500Y-78730500D01*
X128842539Y-78750185D01*
G37*
%TD.AperFunction*%
%TA.AperFunction,Conductor*%
G36*
X186491257Y-81850185D02*
G01*
X186511899Y-81866819D01*
X186863181Y-82218101D01*
X186896666Y-82279424D01*
X186899500Y-82305782D01*
X186899500Y-105174217D01*
X186879815Y-105241256D01*
X186863181Y-105261898D01*
X184921899Y-107203181D01*
X184860576Y-107236666D01*
X184834218Y-107239500D01*
X180956943Y-107239500D01*
X180889904Y-107219815D01*
X180884058Y-107215818D01*
X180831613Y-107177715D01*
X180831612Y-107177714D01*
X180831610Y-107177713D01*
X180774653Y-107148691D01*
X180649223Y-107084781D01*
X180454534Y-107021522D01*
X180279995Y-106993878D01*
X180252352Y-106989500D01*
X180047648Y-106989500D01*
X180023329Y-106993351D01*
X179845465Y-107021522D01*
X179650776Y-107084781D01*
X179468386Y-107177715D01*
X179302786Y-107298028D01*
X179158028Y-107442786D01*
X179037715Y-107608386D01*
X178944781Y-107790776D01*
X178881522Y-107985465D01*
X178849500Y-108187648D01*
X178849500Y-108392351D01*
X178881522Y-108594534D01*
X178944781Y-108789223D01*
X179037713Y-108971610D01*
X179125819Y-109092877D01*
X179149298Y-109158681D01*
X179149500Y-109165761D01*
X179149500Y-111579800D01*
X179129815Y-111646839D01*
X179120506Y-111659365D01*
X178994949Y-111832182D01*
X178990202Y-111841499D01*
X178942227Y-111892293D01*
X178874405Y-111909087D01*
X178808271Y-111886548D01*
X178769234Y-111841495D01*
X178764626Y-111832452D01*
X178725270Y-111778282D01*
X178725269Y-111778282D01*
X178092962Y-112410590D01*
X178075925Y-112347007D01*
X178010099Y-112232993D01*
X177917007Y-112139901D01*
X177802993Y-112074075D01*
X177739409Y-112057037D01*
X178371716Y-111424728D01*
X178317550Y-111385375D01*
X178128217Y-111288904D01*
X177926129Y-111223242D01*
X177716246Y-111190000D01*
X177503754Y-111190000D01*
X177293872Y-111223242D01*
X177293869Y-111223242D01*
X177091782Y-111288904D01*
X176902439Y-111385380D01*
X176848282Y-111424727D01*
X176848282Y-111424728D01*
X177480591Y-112057037D01*
X177417007Y-112074075D01*
X177302993Y-112139901D01*
X177209901Y-112232993D01*
X177144075Y-112347007D01*
X177127037Y-112410591D01*
X176494728Y-111778282D01*
X176494727Y-111778282D01*
X176455380Y-111832440D01*
X176450483Y-111842051D01*
X176402506Y-111892845D01*
X176334684Y-111909638D01*
X176268550Y-111887098D01*
X176229516Y-111842048D01*
X176224626Y-111832452D01*
X176185270Y-111778282D01*
X176185269Y-111778282D01*
X175552962Y-112410590D01*
X175535925Y-112347007D01*
X175470099Y-112232993D01*
X175377007Y-112139901D01*
X175262993Y-112074075D01*
X175199409Y-112057037D01*
X175831716Y-111424728D01*
X175777550Y-111385375D01*
X175588217Y-111288904D01*
X175386129Y-111223242D01*
X175176246Y-111190000D01*
X174963754Y-111190000D01*
X174753872Y-111223242D01*
X174753869Y-111223242D01*
X174551782Y-111288904D01*
X174362439Y-111385380D01*
X174308282Y-111424727D01*
X174308282Y-111424728D01*
X174940591Y-112057037D01*
X174877007Y-112074075D01*
X174762993Y-112139901D01*
X174669901Y-112232993D01*
X174604075Y-112347007D01*
X174587037Y-112410591D01*
X173954727Y-111778281D01*
X173907205Y-111782022D01*
X173897604Y-111780005D01*
X173888011Y-111782042D01*
X173863980Y-111772941D01*
X173838827Y-111767658D01*
X173830098Y-111760111D01*
X173822670Y-111757298D01*
X173799348Y-111733522D01*
X173797838Y-111732217D01*
X173797488Y-111731745D01*
X173674517Y-111562490D01*
X173507510Y-111395483D01*
X173316433Y-111256657D01*
X173275071Y-111235582D01*
X173105992Y-111149431D01*
X173105989Y-111149430D01*
X172881369Y-111076448D01*
X172648097Y-111039501D01*
X172648092Y-111039501D01*
X172411908Y-111039501D01*
X172411903Y-111039501D01*
X172178629Y-111076448D01*
X171954010Y-111149430D01*
X171954007Y-111149432D01*
X171743565Y-111256657D01*
X171552488Y-111395484D01*
X171552487Y-111395485D01*
X169344792Y-113603181D01*
X169283469Y-113636666D01*
X169257111Y-113639500D01*
X159389758Y-113639500D01*
X159322719Y-113619815D01*
X159276964Y-113567011D01*
X159267020Y-113497853D01*
X159296045Y-113434297D01*
X159302077Y-113427819D01*
X159317026Y-113412870D01*
X159335104Y-113394792D01*
X159335106Y-113394788D01*
X159335109Y-113394786D01*
X159449053Y-113237954D01*
X159460051Y-113222816D01*
X159556557Y-113033412D01*
X159622246Y-112831243D01*
X159655500Y-112621287D01*
X159655500Y-112408713D01*
X159640382Y-112313268D01*
X159649336Y-112243979D01*
X159675171Y-112206195D01*
X160518321Y-111363045D01*
X160579642Y-111329562D01*
X160649334Y-111334546D01*
X160705267Y-111376418D01*
X160729684Y-111441882D01*
X160730000Y-111450728D01*
X160730000Y-111642317D01*
X160762009Y-111844417D01*
X160825244Y-112039031D01*
X160918141Y-112221350D01*
X160918147Y-112221359D01*
X160950523Y-112265921D01*
X160950524Y-112265922D01*
X161630000Y-111586446D01*
X161630000Y-111592661D01*
X161657259Y-111694394D01*
X161709920Y-111785606D01*
X161784394Y-111860080D01*
X161875606Y-111912741D01*
X161977339Y-111940000D01*
X161983553Y-111940000D01*
X161304076Y-112619474D01*
X161348650Y-112651859D01*
X161530968Y-112744755D01*
X161725582Y-112807990D01*
X161927683Y-112840000D01*
X162132317Y-112840000D01*
X162334417Y-112807990D01*
X162529031Y-112744755D01*
X162711349Y-112651859D01*
X162755921Y-112619474D01*
X162076447Y-111940000D01*
X162082661Y-111940000D01*
X162184394Y-111912741D01*
X162275606Y-111860080D01*
X162350080Y-111785606D01*
X162402741Y-111694394D01*
X162430000Y-111592661D01*
X162430000Y-111586447D01*
X163109474Y-112265921D01*
X163141859Y-112221349D01*
X163234755Y-112039031D01*
X163297990Y-111844417D01*
X163330000Y-111642317D01*
X163330000Y-111437682D01*
X163297990Y-111235582D01*
X163234755Y-111040968D01*
X163173014Y-110919795D01*
X163160118Y-110851126D01*
X163186394Y-110786385D01*
X163243501Y-110746128D01*
X163283499Y-110739500D01*
X165776501Y-110739500D01*
X165843540Y-110759185D01*
X165889295Y-110811989D01*
X165899239Y-110881147D01*
X165886986Y-110919795D01*
X165825244Y-111040968D01*
X165762009Y-111235582D01*
X165730000Y-111437682D01*
X165730000Y-111642317D01*
X165762009Y-111844417D01*
X165825244Y-112039031D01*
X165918141Y-112221350D01*
X165918147Y-112221359D01*
X165950523Y-112265921D01*
X165950524Y-112265922D01*
X166630000Y-111586446D01*
X166630000Y-111592661D01*
X166657259Y-111694394D01*
X166709920Y-111785606D01*
X166784394Y-111860080D01*
X166875606Y-111912741D01*
X166977339Y-111940000D01*
X166983553Y-111940000D01*
X166304076Y-112619474D01*
X166348650Y-112651859D01*
X166530968Y-112744755D01*
X166725582Y-112807990D01*
X166927683Y-112840000D01*
X167132317Y-112840000D01*
X167334417Y-112807990D01*
X167529031Y-112744755D01*
X167711349Y-112651859D01*
X167755921Y-112619474D01*
X167076447Y-111940000D01*
X167082661Y-111940000D01*
X167184394Y-111912741D01*
X167275606Y-111860080D01*
X167350080Y-111785606D01*
X167402741Y-111694394D01*
X167430000Y-111592661D01*
X167430000Y-111586447D01*
X168109474Y-112265921D01*
X168141859Y-112221349D01*
X168234755Y-112039031D01*
X168297990Y-111844417D01*
X168330000Y-111642317D01*
X168330000Y-111437682D01*
X168297990Y-111235582D01*
X168234755Y-111040968D01*
X168173014Y-110919795D01*
X168160118Y-110851126D01*
X168186394Y-110786385D01*
X168243501Y-110746128D01*
X168283499Y-110739500D01*
X168724920Y-110739500D01*
X168822462Y-110720096D01*
X168869913Y-110710658D01*
X169006495Y-110654084D01*
X169055729Y-110621186D01*
X169129416Y-110571952D01*
X172882951Y-106818416D01*
X172965084Y-106695495D01*
X173021658Y-106558913D01*
X173050500Y-106413918D01*
X173050500Y-106266083D01*
X173050500Y-96665416D01*
X173070185Y-96598377D01*
X173101613Y-96565099D01*
X173147219Y-96531966D01*
X173291966Y-96387219D01*
X173291968Y-96387215D01*
X173291971Y-96387213D01*
X173412284Y-96221614D01*
X173412285Y-96221613D01*
X173412287Y-96221610D01*
X173459516Y-96128917D01*
X173507489Y-96078123D01*
X173575310Y-96061328D01*
X173641445Y-96083865D01*
X173680483Y-96128917D01*
X173686140Y-96140018D01*
X173727715Y-96221614D01*
X173848028Y-96387213D01*
X173992786Y-96531971D01*
X174147749Y-96644556D01*
X174158390Y-96652287D01*
X174274607Y-96711503D01*
X174340776Y-96745218D01*
X174340778Y-96745218D01*
X174340781Y-96745220D01*
X174431856Y-96774812D01*
X174535465Y-96808477D01*
X174619564Y-96821797D01*
X174737648Y-96840500D01*
X174737649Y-96840500D01*
X174942351Y-96840500D01*
X174942352Y-96840500D01*
X175144534Y-96808477D01*
X175339219Y-96745220D01*
X175521610Y-96652287D01*
X175641619Y-96565096D01*
X175687213Y-96531971D01*
X175687215Y-96531968D01*
X175687219Y-96531966D01*
X175831966Y-96387219D01*
X175859936Y-96348722D01*
X175865100Y-96341615D01*
X175869431Y-96338274D01*
X175871705Y-96333297D01*
X175896804Y-96317166D01*
X175920429Y-96298949D01*
X175927102Y-96297695D01*
X175930483Y-96295523D01*
X175965418Y-96290500D01*
X176174582Y-96290500D01*
X176241621Y-96310185D01*
X176274900Y-96341615D01*
X176308028Y-96387212D01*
X176308032Y-96387217D01*
X176452786Y-96531971D01*
X176607749Y-96644556D01*
X176618390Y-96652287D01*
X176734607Y-96711503D01*
X176800776Y-96745218D01*
X176800778Y-96745218D01*
X176800781Y-96745220D01*
X176891856Y-96774812D01*
X176995465Y-96808477D01*
X177079564Y-96821797D01*
X177197648Y-96840500D01*
X177197649Y-96840500D01*
X177402351Y-96840500D01*
X177402352Y-96840500D01*
X177604534Y-96808477D01*
X177799219Y-96745220D01*
X177981610Y-96652287D01*
X178101619Y-96565096D01*
X178147213Y-96531971D01*
X178147215Y-96531968D01*
X178147219Y-96531966D01*
X178291966Y-96387219D01*
X178291968Y-96387215D01*
X178291971Y-96387213D01*
X178357008Y-96297695D01*
X178412287Y-96221610D01*
X178505220Y-96039219D01*
X178568477Y-95844534D01*
X178600500Y-95642352D01*
X178600500Y-95437648D01*
X178592257Y-95385606D01*
X178568477Y-95235465D01*
X178505218Y-95040776D01*
X178453865Y-94939991D01*
X178412287Y-94858390D01*
X178380092Y-94814077D01*
X178291971Y-94692786D01*
X178147213Y-94548028D01*
X177981613Y-94427715D01*
X177981612Y-94427714D01*
X177981610Y-94427713D01*
X177895630Y-94383903D01*
X177799222Y-94334781D01*
X177799219Y-94334780D01*
X177791986Y-94332430D01*
X177734313Y-94292992D01*
X177707115Y-94228634D01*
X177719030Y-94159787D01*
X177766275Y-94108312D01*
X177830307Y-94090500D01*
X178774582Y-94090500D01*
X178841621Y-94110185D01*
X178874900Y-94141615D01*
X178908028Y-94187212D01*
X178908032Y-94187217D01*
X179052786Y-94331971D01*
X179185158Y-94428143D01*
X179218390Y-94452287D01*
X179334607Y-94511503D01*
X179400776Y-94545218D01*
X179400778Y-94545218D01*
X179400781Y-94545220D01*
X179505137Y-94579127D01*
X179595465Y-94608477D01*
X179696557Y-94624488D01*
X179797648Y-94640500D01*
X179797649Y-94640500D01*
X180002351Y-94640500D01*
X180002352Y-94640500D01*
X180204534Y-94608477D01*
X180399219Y-94545220D01*
X180581610Y-94452287D01*
X180674590Y-94384732D01*
X180747213Y-94331971D01*
X180747215Y-94331968D01*
X180747219Y-94331966D01*
X180891966Y-94187219D01*
X180891968Y-94187215D01*
X180891971Y-94187213D01*
X180966405Y-94084761D01*
X181012287Y-94021610D01*
X181105220Y-93839219D01*
X181168477Y-93644534D01*
X181200500Y-93442352D01*
X181200500Y-93237648D01*
X181168477Y-93035466D01*
X181105220Y-92840781D01*
X181105218Y-92840778D01*
X181105218Y-92840776D01*
X181024364Y-92682093D01*
X181012287Y-92658390D01*
X180962236Y-92589500D01*
X180891971Y-92492786D01*
X180747213Y-92348028D01*
X180581613Y-92227715D01*
X180581612Y-92227714D01*
X180581610Y-92227713D01*
X180522400Y-92197544D01*
X180399223Y-92134781D01*
X180204534Y-92071522D01*
X180029995Y-92043878D01*
X180002352Y-92039500D01*
X179797648Y-92039500D01*
X179773329Y-92043351D01*
X179595465Y-92071522D01*
X179400776Y-92134781D01*
X179218386Y-92227715D01*
X179052786Y-92348028D01*
X178908032Y-92492782D01*
X178908028Y-92492787D01*
X178874900Y-92538385D01*
X178819571Y-92581051D01*
X178774582Y-92589500D01*
X169330860Y-92589500D01*
X169263821Y-92569815D01*
X169243179Y-92553181D01*
X168642179Y-91952181D01*
X168608694Y-91890858D01*
X168613678Y-91821166D01*
X168655550Y-91765233D01*
X168721014Y-91740816D01*
X168729860Y-91740500D01*
X181035501Y-91740500D01*
X181102540Y-91760185D01*
X181148295Y-91812989D01*
X181159501Y-91864500D01*
X181159501Y-91887876D01*
X181165908Y-91947483D01*
X181216202Y-92082328D01*
X181216206Y-92082335D01*
X181302452Y-92197544D01*
X181302455Y-92197547D01*
X181417664Y-92283793D01*
X181417671Y-92283797D01*
X181552517Y-92334091D01*
X181552516Y-92334091D01*
X181559444Y-92334835D01*
X181612127Y-92340500D01*
X183407872Y-92340499D01*
X183467483Y-92334091D01*
X183602331Y-92283796D01*
X183717546Y-92197546D01*
X183803796Y-92082331D01*
X183854091Y-91947483D01*
X183860500Y-91887873D01*
X183860499Y-91863979D01*
X183863330Y-91850963D01*
X183873940Y-91831525D01*
X183880179Y-91810275D01*
X183896803Y-91789643D01*
X183896808Y-91789636D01*
X183896811Y-91789634D01*
X183896818Y-91789626D01*
X184567037Y-91119408D01*
X184584075Y-91182993D01*
X184649901Y-91297007D01*
X184742993Y-91390099D01*
X184857007Y-91455925D01*
X184920590Y-91472962D01*
X184288282Y-92105269D01*
X184288282Y-92105270D01*
X184342449Y-92144624D01*
X184531782Y-92241095D01*
X184733870Y-92306757D01*
X184943754Y-92340000D01*
X185156246Y-92340000D01*
X185366127Y-92306757D01*
X185366130Y-92306757D01*
X185568217Y-92241095D01*
X185757554Y-92144622D01*
X185811716Y-92105270D01*
X185811717Y-92105270D01*
X185179408Y-91472962D01*
X185242993Y-91455925D01*
X185357007Y-91390099D01*
X185450099Y-91297007D01*
X185515925Y-91182993D01*
X185532962Y-91119409D01*
X186165270Y-91751717D01*
X186165270Y-91751716D01*
X186204622Y-91697554D01*
X186301095Y-91508217D01*
X186366757Y-91306130D01*
X186366757Y-91306127D01*
X186400000Y-91096246D01*
X186400000Y-90883753D01*
X186366757Y-90673872D01*
X186366757Y-90673869D01*
X186301095Y-90471782D01*
X186204624Y-90282449D01*
X186165270Y-90228282D01*
X186165269Y-90228282D01*
X185532962Y-90860590D01*
X185515925Y-90797007D01*
X185450099Y-90682993D01*
X185357007Y-90589901D01*
X185242993Y-90524075D01*
X185179409Y-90507037D01*
X185811716Y-89874728D01*
X185757550Y-89835375D01*
X185747954Y-89830486D01*
X185697157Y-89782512D01*
X185680361Y-89714692D01*
X185702897Y-89648556D01*
X185747954Y-89609514D01*
X185757554Y-89604622D01*
X185811716Y-89565270D01*
X185811717Y-89565270D01*
X185179408Y-88932962D01*
X185242993Y-88915925D01*
X185357007Y-88850099D01*
X185450099Y-88757007D01*
X185515925Y-88642993D01*
X185532962Y-88579409D01*
X186165270Y-89211717D01*
X186165270Y-89211716D01*
X186204622Y-89157554D01*
X186301095Y-88968217D01*
X186366757Y-88766130D01*
X186366757Y-88766127D01*
X186400000Y-88556246D01*
X186400000Y-88343753D01*
X186366757Y-88133872D01*
X186366757Y-88133869D01*
X186301095Y-87931782D01*
X186204624Y-87742449D01*
X186165270Y-87688282D01*
X186165269Y-87688282D01*
X185532962Y-88320590D01*
X185515925Y-88257007D01*
X185450099Y-88142993D01*
X185357007Y-88049901D01*
X185242993Y-87984075D01*
X185179409Y-87967037D01*
X185811716Y-87334728D01*
X185757550Y-87295375D01*
X185747954Y-87290486D01*
X185697157Y-87242512D01*
X185680361Y-87174692D01*
X185702897Y-87108556D01*
X185747954Y-87069514D01*
X185757554Y-87064622D01*
X185811716Y-87025270D01*
X185811717Y-87025270D01*
X185179408Y-86392962D01*
X185242993Y-86375925D01*
X185357007Y-86310099D01*
X185450099Y-86217007D01*
X185515925Y-86102993D01*
X185532962Y-86039409D01*
X186165270Y-86671717D01*
X186165270Y-86671716D01*
X186204622Y-86617554D01*
X186301095Y-86428217D01*
X186366757Y-86226130D01*
X186366757Y-86226127D01*
X186400000Y-86016246D01*
X186400000Y-85803753D01*
X186366757Y-85593872D01*
X186366757Y-85593869D01*
X186301095Y-85391782D01*
X186204624Y-85202449D01*
X186165270Y-85148282D01*
X186165269Y-85148282D01*
X185532962Y-85780590D01*
X185515925Y-85717007D01*
X185450099Y-85602993D01*
X185357007Y-85509901D01*
X185242993Y-85444075D01*
X185179409Y-85427037D01*
X185811716Y-84794728D01*
X185757550Y-84755375D01*
X185747954Y-84750486D01*
X185697157Y-84702512D01*
X185680361Y-84634692D01*
X185702897Y-84568556D01*
X185747954Y-84529514D01*
X185757554Y-84524622D01*
X185811716Y-84485270D01*
X185811717Y-84485270D01*
X185179408Y-83852962D01*
X185242993Y-83835925D01*
X185357007Y-83770099D01*
X185450099Y-83677007D01*
X185515925Y-83562993D01*
X185532962Y-83499409D01*
X186165270Y-84131717D01*
X186165270Y-84131716D01*
X186204622Y-84077554D01*
X186301095Y-83888217D01*
X186366757Y-83686130D01*
X186366757Y-83686127D01*
X186400000Y-83476246D01*
X186400000Y-83263753D01*
X186366757Y-83053872D01*
X186366757Y-83053869D01*
X186301095Y-82851782D01*
X186204624Y-82662449D01*
X186165270Y-82608282D01*
X186165269Y-82608282D01*
X185532962Y-83240590D01*
X185515925Y-83177007D01*
X185450099Y-83062993D01*
X185357007Y-82969901D01*
X185242993Y-82904075D01*
X185179409Y-82887037D01*
X185811716Y-82254728D01*
X185757547Y-82215373D01*
X185757547Y-82215372D01*
X185748500Y-82210763D01*
X185697706Y-82162788D01*
X185680912Y-82094966D01*
X185703451Y-82028832D01*
X185748508Y-81989793D01*
X185757816Y-81985051D01*
X185819593Y-81940167D01*
X185933734Y-81857241D01*
X185934364Y-81858108D01*
X185993419Y-81831641D01*
X186010200Y-81830500D01*
X186424218Y-81830500D01*
X186491257Y-81850185D01*
G37*
%TD.AperFunction*%
%TA.AperFunction,Conductor*%
G36*
X159200000Y-95592661D02*
G01*
X159227259Y-95694394D01*
X159279920Y-95785606D01*
X159354394Y-95860080D01*
X159445606Y-95912741D01*
X159547339Y-95940000D01*
X159553553Y-95940000D01*
X158874076Y-96619474D01*
X158918650Y-96651859D01*
X159100968Y-96744755D01*
X159295582Y-96807990D01*
X159497683Y-96840000D01*
X159702317Y-96840000D01*
X159904417Y-96807990D01*
X160099031Y-96744755D01*
X160281349Y-96651859D01*
X160325921Y-96619474D01*
X159646447Y-95940000D01*
X159652661Y-95940000D01*
X159754394Y-95912741D01*
X159845606Y-95860080D01*
X159920080Y-95785606D01*
X159972741Y-95694394D01*
X160000000Y-95592661D01*
X160000000Y-95586447D01*
X160679474Y-96265921D01*
X160711861Y-96221347D01*
X160711861Y-96221346D01*
X160759234Y-96128371D01*
X160807208Y-96077575D01*
X160875028Y-96060779D01*
X160941164Y-96083316D01*
X160980203Y-96128369D01*
X161027713Y-96221611D01*
X161148028Y-96387213D01*
X161148034Y-96387219D01*
X161292781Y-96531966D01*
X161338384Y-96565098D01*
X161381050Y-96620425D01*
X161389500Y-96665416D01*
X161389500Y-99983651D01*
X161369815Y-100050690D01*
X161338393Y-100083964D01*
X161335354Y-100086171D01*
X161196174Y-100225351D01*
X161196174Y-100225352D01*
X161196172Y-100225354D01*
X161162629Y-100271522D01*
X161080476Y-100384594D01*
X160991117Y-100559970D01*
X160930290Y-100747173D01*
X160899500Y-100941577D01*
X160899500Y-101138422D01*
X160930290Y-101332826D01*
X160991117Y-101520029D01*
X161053444Y-101642352D01*
X161080476Y-101695405D01*
X161196172Y-101854646D01*
X161335354Y-101993828D01*
X161348385Y-102003295D01*
X161391050Y-102058622D01*
X161399500Y-102103613D01*
X161399500Y-105327397D01*
X161379815Y-105394436D01*
X161348385Y-105427715D01*
X161182787Y-105548028D01*
X161182782Y-105548032D01*
X161038028Y-105692786D01*
X160917715Y-105858386D01*
X160824781Y-106040776D01*
X160761522Y-106235465D01*
X160729500Y-106437648D01*
X160729500Y-106642351D01*
X160761522Y-106844534D01*
X160824781Y-107039223D01*
X160888691Y-107164653D01*
X160916798Y-107219815D01*
X160917715Y-107221613D01*
X161038028Y-107387213D01*
X161182786Y-107531971D01*
X161228498Y-107565182D01*
X161271164Y-107620511D01*
X161277143Y-107690125D01*
X161244538Y-107751920D01*
X161183699Y-107786277D01*
X161155613Y-107789500D01*
X159524691Y-107789500D01*
X159457652Y-107769815D01*
X159411897Y-107717011D01*
X159401953Y-107647853D01*
X159424373Y-107592615D01*
X159460091Y-107543451D01*
X159512287Y-107471610D01*
X159605220Y-107289219D01*
X159668477Y-107094534D01*
X159700500Y-106892352D01*
X159700500Y-106687648D01*
X159668477Y-106485466D01*
X159605220Y-106290781D01*
X159605218Y-106290778D01*
X159605218Y-106290776D01*
X159571503Y-106224607D01*
X159512287Y-106108390D01*
X159490957Y-106079031D01*
X159391971Y-105942786D01*
X159247213Y-105798028D01*
X159081613Y-105677715D01*
X159081612Y-105677714D01*
X159081610Y-105677713D01*
X159024653Y-105648691D01*
X158899223Y-105584781D01*
X158704535Y-105521523D01*
X158556483Y-105498073D01*
X158493349Y-105468143D01*
X158488201Y-105463281D01*
X156336819Y-103311899D01*
X156303334Y-103250576D01*
X156300500Y-103224218D01*
X156300500Y-102005782D01*
X156320185Y-101938743D01*
X156336819Y-101918101D01*
X157185689Y-101069231D01*
X157185699Y-101069220D01*
X157837140Y-100417781D01*
X157946632Y-100253914D01*
X158022052Y-100071835D01*
X158060500Y-99878540D01*
X158060500Y-99681459D01*
X158060500Y-96415761D01*
X158080185Y-96348722D01*
X158084165Y-96342899D01*
X158172287Y-96221610D01*
X158219795Y-96128369D01*
X158267769Y-96077573D01*
X158335590Y-96060778D01*
X158401725Y-96083315D01*
X158440765Y-96128369D01*
X158488141Y-96221350D01*
X158488147Y-96221359D01*
X158520523Y-96265921D01*
X158520524Y-96265922D01*
X159200000Y-95586446D01*
X159200000Y-95592661D01*
G37*
%TD.AperFunction*%
%TA.AperFunction,Conductor*%
G36*
X163427227Y-88445389D02*
G01*
X163439808Y-88444850D01*
X163459673Y-88456445D01*
X163481445Y-88463865D01*
X163490719Y-88474568D01*
X163500150Y-88480073D01*
X163520483Y-88508916D01*
X163544599Y-88556246D01*
X163567715Y-88601614D01*
X163688028Y-88767213D01*
X163688034Y-88767219D01*
X163832781Y-88911966D01*
X163878384Y-88945098D01*
X163921050Y-89000425D01*
X163929500Y-89045416D01*
X163929500Y-89125288D01*
X163929500Y-89125290D01*
X163929499Y-89125290D01*
X163958340Y-89270277D01*
X163958343Y-89270287D01*
X164006778Y-89387219D01*
X164014916Y-89406865D01*
X164028998Y-89427941D01*
X164035947Y-89438341D01*
X164097049Y-89529788D01*
X164097052Y-89529791D01*
X168490214Y-93922952D01*
X168490216Y-93922954D01*
X168513052Y-93938211D01*
X168563900Y-93972186D01*
X168613135Y-94005084D01*
X168669710Y-94028518D01*
X168749718Y-94061659D01*
X168865871Y-94084763D01*
X168885098Y-94088587D01*
X168894711Y-94090500D01*
X168894712Y-94090500D01*
X168894713Y-94090500D01*
X169042548Y-94090500D01*
X169229693Y-94090500D01*
X169296732Y-94110185D01*
X169342487Y-94162989D01*
X169352431Y-94232147D01*
X169323406Y-94295703D01*
X169268013Y-94332430D01*
X169263506Y-94333894D01*
X169260777Y-94334781D01*
X169078386Y-94427715D01*
X168912786Y-94548028D01*
X168768028Y-94692786D01*
X168647715Y-94858386D01*
X168600485Y-94951080D01*
X168552510Y-95001876D01*
X168484689Y-95018671D01*
X168418554Y-94996134D01*
X168379515Y-94951080D01*
X168373861Y-94939983D01*
X168332287Y-94858390D01*
X168300092Y-94814077D01*
X168211971Y-94692786D01*
X168067213Y-94548028D01*
X167901613Y-94427715D01*
X167901612Y-94427714D01*
X167901610Y-94427713D01*
X167841898Y-94397288D01*
X167719223Y-94334781D01*
X167524534Y-94271522D01*
X167349995Y-94243878D01*
X167322352Y-94239500D01*
X167117648Y-94239500D01*
X167093329Y-94243351D01*
X166915465Y-94271522D01*
X166720776Y-94334781D01*
X166538386Y-94427715D01*
X166372786Y-94548028D01*
X166228028Y-94692786D01*
X166107715Y-94858386D01*
X166060485Y-94951080D01*
X166012510Y-95001876D01*
X165944689Y-95018671D01*
X165878554Y-94996134D01*
X165839515Y-94951080D01*
X165833861Y-94939983D01*
X165792287Y-94858390D01*
X165760092Y-94814077D01*
X165671971Y-94692786D01*
X165527213Y-94548028D01*
X165361613Y-94427715D01*
X165361612Y-94427714D01*
X165361610Y-94427713D01*
X165301898Y-94397288D01*
X165179223Y-94334781D01*
X164984534Y-94271522D01*
X164809995Y-94243878D01*
X164782352Y-94239500D01*
X164577648Y-94239500D01*
X164553329Y-94243351D01*
X164375465Y-94271522D01*
X164180776Y-94334781D01*
X163998386Y-94427715D01*
X163832786Y-94548028D01*
X163688028Y-94692786D01*
X163567715Y-94858386D01*
X163520485Y-94951080D01*
X163472510Y-95001876D01*
X163404689Y-95018671D01*
X163338554Y-94996134D01*
X163299515Y-94951080D01*
X163293861Y-94939983D01*
X163252287Y-94858390D01*
X163220092Y-94814077D01*
X163131971Y-94692786D01*
X162987213Y-94548028D01*
X162821613Y-94427715D01*
X162821612Y-94427714D01*
X162821610Y-94427713D01*
X162761898Y-94397288D01*
X162639223Y-94334781D01*
X162444534Y-94271522D01*
X162269995Y-94243878D01*
X162242352Y-94239500D01*
X162037648Y-94239500D01*
X162013329Y-94243351D01*
X161835465Y-94271522D01*
X161640776Y-94334781D01*
X161458386Y-94427715D01*
X161292786Y-94548028D01*
X161148028Y-94692786D01*
X161027713Y-94858388D01*
X160980203Y-94951630D01*
X160932228Y-95002426D01*
X160864407Y-95019220D01*
X160798272Y-94996682D01*
X160759234Y-94951628D01*
X160711861Y-94858652D01*
X160679474Y-94814077D01*
X160679474Y-94814076D01*
X160000000Y-95493551D01*
X160000000Y-95487339D01*
X159972741Y-95385606D01*
X159920080Y-95294394D01*
X159845606Y-95219920D01*
X159754394Y-95167259D01*
X159652661Y-95140000D01*
X159646446Y-95140000D01*
X160325922Y-94460524D01*
X160325921Y-94460523D01*
X160281359Y-94428147D01*
X160281350Y-94428141D01*
X160099031Y-94335244D01*
X159904417Y-94272009D01*
X159702317Y-94240000D01*
X159497683Y-94240000D01*
X159295582Y-94272009D01*
X159100968Y-94335244D01*
X158918644Y-94428143D01*
X158874077Y-94460523D01*
X158874077Y-94460524D01*
X159553554Y-95140000D01*
X159547339Y-95140000D01*
X159445606Y-95167259D01*
X159354394Y-95219920D01*
X159279920Y-95294394D01*
X159227259Y-95385606D01*
X159200000Y-95487339D01*
X159200000Y-95493553D01*
X158520524Y-94814077D01*
X158520523Y-94814077D01*
X158488143Y-94858644D01*
X158440765Y-94951630D01*
X158392790Y-95002426D01*
X158324969Y-95019221D01*
X158258834Y-94996683D01*
X158219795Y-94951630D01*
X158213865Y-94939991D01*
X158172287Y-94858390D01*
X158117008Y-94782304D01*
X158084182Y-94737122D01*
X158077029Y-94717077D01*
X158065523Y-94699172D01*
X158062068Y-94675145D01*
X158060702Y-94671316D01*
X158060500Y-94664237D01*
X158060500Y-93245782D01*
X158080185Y-93178743D01*
X158096819Y-93158101D01*
X159231929Y-92022992D01*
X160377139Y-90877782D01*
X160438729Y-90785606D01*
X160486631Y-90713916D01*
X160486636Y-90713906D01*
X160546967Y-90568250D01*
X160562051Y-90531835D01*
X160565302Y-90515494D01*
X160570903Y-90487339D01*
X160588690Y-90397913D01*
X160600500Y-90338541D01*
X160600500Y-90141460D01*
X160600500Y-89044500D01*
X160620185Y-88977461D01*
X160672989Y-88931706D01*
X160724500Y-88920500D01*
X161264238Y-88920500D01*
X161331277Y-88940185D01*
X161337119Y-88944179D01*
X161458390Y-89032287D01*
X161553820Y-89080911D01*
X161640776Y-89125218D01*
X161640778Y-89125218D01*
X161640781Y-89125220D01*
X161740273Y-89157547D01*
X161835465Y-89188477D01*
X161911375Y-89200500D01*
X162037648Y-89220500D01*
X162037649Y-89220500D01*
X162242351Y-89220500D01*
X162242352Y-89220500D01*
X162444534Y-89188477D01*
X162639219Y-89125220D01*
X162821610Y-89032287D01*
X162917975Y-88962274D01*
X162987213Y-88911971D01*
X162987215Y-88911968D01*
X162987219Y-88911966D01*
X163131966Y-88767219D01*
X163131968Y-88767215D01*
X163131971Y-88767213D01*
X163252284Y-88601614D01*
X163252286Y-88601611D01*
X163252287Y-88601610D01*
X163299516Y-88508917D01*
X163308161Y-88499764D01*
X163312896Y-88488099D01*
X163331693Y-88474847D01*
X163347489Y-88458123D01*
X163359711Y-88455096D01*
X163370002Y-88447842D01*
X163392982Y-88446856D01*
X163415310Y-88441328D01*
X163427227Y-88445389D01*
G37*
%TD.AperFunction*%
%TA.AperFunction,Conductor*%
G36*
X184584075Y-88642993D02*
G01*
X184649901Y-88757007D01*
X184742993Y-88850099D01*
X184857007Y-88915925D01*
X184920590Y-88932962D01*
X184288282Y-89565269D01*
X184288282Y-89565270D01*
X184342452Y-89604626D01*
X184352048Y-89609516D01*
X184402844Y-89657491D01*
X184419638Y-89725312D01*
X184397100Y-89791447D01*
X184352051Y-89830483D01*
X184342440Y-89835380D01*
X184288282Y-89874727D01*
X184288282Y-89874728D01*
X184920591Y-90507037D01*
X184857007Y-90524075D01*
X184742993Y-90589901D01*
X184649901Y-90682993D01*
X184584075Y-90797007D01*
X184567037Y-90860591D01*
X183896818Y-90190372D01*
X183863333Y-90129049D01*
X183860499Y-90102691D01*
X183860499Y-90092129D01*
X183860498Y-90092123D01*
X183860497Y-90092116D01*
X183854091Y-90032517D01*
X183838672Y-89991177D01*
X183803797Y-89897671D01*
X183803793Y-89897664D01*
X183717547Y-89782455D01*
X183717544Y-89782452D01*
X183602335Y-89696206D01*
X183602328Y-89696202D01*
X183470917Y-89647189D01*
X183470916Y-89647189D01*
X183438727Y-89623092D01*
X183414983Y-89605318D01*
X183390566Y-89539853D01*
X183405418Y-89471580D01*
X183426566Y-89443329D01*
X183540104Y-89329792D01*
X183665051Y-89157816D01*
X183669793Y-89148508D01*
X183717763Y-89097711D01*
X183785583Y-89080911D01*
X183851719Y-89103445D01*
X183890763Y-89148500D01*
X183895373Y-89157547D01*
X183934728Y-89211716D01*
X184567037Y-88579408D01*
X184584075Y-88642993D01*
G37*
%TD.AperFunction*%
%TA.AperFunction,Conductor*%
G36*
X184584075Y-86102993D02*
G01*
X184649901Y-86217007D01*
X184742993Y-86310099D01*
X184857007Y-86375925D01*
X184920591Y-86392962D01*
X184319971Y-86993581D01*
X184398711Y-87110895D01*
X184399920Y-87114729D01*
X184402844Y-87117491D01*
X184410343Y-87147778D01*
X184419727Y-87177529D01*
X184418671Y-87181408D01*
X184419638Y-87185312D01*
X184409573Y-87214844D01*
X184401383Y-87244947D01*
X184398397Y-87247640D01*
X184397100Y-87251447D01*
X184352051Y-87290483D01*
X184342440Y-87295380D01*
X184288282Y-87334727D01*
X184288282Y-87334728D01*
X184920591Y-87967037D01*
X184857007Y-87984075D01*
X184742993Y-88049901D01*
X184649901Y-88142993D01*
X184584075Y-88257007D01*
X184567037Y-88320591D01*
X183934728Y-87688282D01*
X183934727Y-87688282D01*
X183895380Y-87742440D01*
X183895376Y-87742446D01*
X183890760Y-87751505D01*
X183842781Y-87802297D01*
X183774959Y-87819087D01*
X183708826Y-87796543D01*
X183669794Y-87751493D01*
X183665051Y-87742184D01*
X183665049Y-87742181D01*
X183665048Y-87742179D01*
X183540109Y-87570213D01*
X183389786Y-87419890D01*
X183217820Y-87294951D01*
X183217115Y-87294591D01*
X183209054Y-87290485D01*
X183158259Y-87242512D01*
X183141463Y-87174692D01*
X183163999Y-87108556D01*
X183209054Y-87069515D01*
X183217816Y-87065051D01*
X183316187Y-86993581D01*
X183389786Y-86940109D01*
X183389788Y-86940106D01*
X183389792Y-86940104D01*
X183540104Y-86789792D01*
X183540106Y-86789788D01*
X183540109Y-86789786D01*
X183616353Y-86684844D01*
X183665051Y-86617816D01*
X183669793Y-86608508D01*
X183717763Y-86557711D01*
X183785583Y-86540911D01*
X183851719Y-86563445D01*
X183890763Y-86608500D01*
X183895373Y-86617547D01*
X183934728Y-86671716D01*
X184567037Y-86039408D01*
X184584075Y-86102993D01*
G37*
%TD.AperFunction*%
%TA.AperFunction,Conductor*%
G36*
X184584075Y-83562993D02*
G01*
X184649901Y-83677007D01*
X184742993Y-83770099D01*
X184857007Y-83835925D01*
X184920591Y-83852962D01*
X184319971Y-84453581D01*
X184398711Y-84570895D01*
X184399920Y-84574729D01*
X184402844Y-84577491D01*
X184410343Y-84607778D01*
X184419727Y-84637529D01*
X184418671Y-84641408D01*
X184419638Y-84645312D01*
X184409573Y-84674844D01*
X184401383Y-84704947D01*
X184398397Y-84707640D01*
X184397100Y-84711447D01*
X184352051Y-84750483D01*
X184342440Y-84755380D01*
X184288282Y-84794727D01*
X184288282Y-84794728D01*
X184920591Y-85427037D01*
X184857007Y-85444075D01*
X184742993Y-85509901D01*
X184649901Y-85602993D01*
X184584075Y-85717007D01*
X184567037Y-85780591D01*
X183934728Y-85148282D01*
X183934727Y-85148282D01*
X183895380Y-85202440D01*
X183895376Y-85202446D01*
X183890760Y-85211505D01*
X183842781Y-85262297D01*
X183774959Y-85279087D01*
X183708826Y-85256543D01*
X183669794Y-85211493D01*
X183665051Y-85202184D01*
X183665049Y-85202181D01*
X183665048Y-85202179D01*
X183540109Y-85030213D01*
X183389786Y-84879890D01*
X183217820Y-84754951D01*
X183217115Y-84754591D01*
X183209054Y-84750485D01*
X183158259Y-84702512D01*
X183141463Y-84634692D01*
X183163999Y-84568556D01*
X183209054Y-84529515D01*
X183217816Y-84525051D01*
X183287877Y-84474149D01*
X183389786Y-84400109D01*
X183389788Y-84400106D01*
X183389792Y-84400104D01*
X183540104Y-84249792D01*
X183540106Y-84249788D01*
X183540109Y-84249786D01*
X183616399Y-84144780D01*
X183665051Y-84077816D01*
X183669793Y-84068508D01*
X183717763Y-84017711D01*
X183785583Y-84000911D01*
X183851719Y-84023445D01*
X183890763Y-84068500D01*
X183895373Y-84077547D01*
X183934728Y-84131716D01*
X184567037Y-83499408D01*
X184584075Y-83562993D01*
G37*
%TD.AperFunction*%
%TA.AperFunction,Conductor*%
G36*
X183851444Y-81483999D02*
G01*
X183890484Y-81529054D01*
X183894591Y-81537115D01*
X183894951Y-81537820D01*
X184019886Y-81709780D01*
X184019894Y-81709790D01*
X184170213Y-81860109D01*
X184342179Y-81985048D01*
X184342181Y-81985049D01*
X184342184Y-81985051D01*
X184351493Y-81989794D01*
X184402290Y-82037766D01*
X184419087Y-82105587D01*
X184396552Y-82171722D01*
X184351505Y-82210760D01*
X184342446Y-82215376D01*
X184342440Y-82215380D01*
X184288282Y-82254727D01*
X184288282Y-82254728D01*
X184920591Y-82887037D01*
X184857007Y-82904075D01*
X184742993Y-82969901D01*
X184649901Y-83062993D01*
X184584075Y-83177007D01*
X184567037Y-83240591D01*
X183934728Y-82608282D01*
X183934727Y-82608282D01*
X183895380Y-82662440D01*
X183895376Y-82662446D01*
X183890760Y-82671505D01*
X183842781Y-82722297D01*
X183774959Y-82739087D01*
X183708826Y-82716543D01*
X183669794Y-82671493D01*
X183665051Y-82662184D01*
X183665049Y-82662181D01*
X183665048Y-82662179D01*
X183540109Y-82490213D01*
X183389786Y-82339890D01*
X183217820Y-82214951D01*
X183209600Y-82210763D01*
X183209054Y-82210485D01*
X183158259Y-82162512D01*
X183141463Y-82094692D01*
X183163999Y-82028556D01*
X183209054Y-81989515D01*
X183217816Y-81985051D01*
X183269556Y-81947460D01*
X183389786Y-81860109D01*
X183389788Y-81860106D01*
X183389792Y-81860104D01*
X183540104Y-81709792D01*
X183540107Y-81709787D01*
X183540114Y-81709780D01*
X183665048Y-81537820D01*
X183665047Y-81537820D01*
X183665051Y-81537816D01*
X183669514Y-81529054D01*
X183717488Y-81478259D01*
X183785308Y-81461463D01*
X183851444Y-81483999D01*
G37*
%TD.AperFunction*%
%TD*%
D29*
X190900000Y-117740000D02*
X190900000Y-71440000D01*
X190900000Y-71440000D02*
X112800000Y-71440000D01*
X112800000Y-71440000D02*
X112800000Y-117740000D01*
X112800000Y-117740000D02*
X190900000Y-117740000D01*
M02*
