<?xml version="1.0" standalone="no"?>
 <!DOCTYPE svg PUBLIC "-//W3C//DTD SVG 1.1//EN" 
 "http://www.w3.org/Graphics/SVG/1.1/DTD/svg11.dtd"> 
<svg
  xmlns:svg="http://www.w3.org/2000/svg"
  xmlns="http://www.w3.org/2000/svg"
  xmlns:xlink="http://www.w3.org/1999/xlink"
  version="1.1"
  width="297.0022mm" height="210.0072mm" viewBox="0.0000 0.0000 297.0022 210.0072">
<title>SVG Image created as Prometheus-F_Cu.svg date 2025/11/24 22:51:57 </title>
  <desc>Image generated by PCBNEW </desc>
<g style="fill:#000000; fill-opacity:1.0000;stroke:#000000; stroke-opacity:1.0000;
stroke-linecap:round; stroke-linejoin:round;"
 transform="translate(0 0) scale(1 1)">
<path style="fill:#000000; fill-opacity:1.0000; stroke:none;fill-rule:evenodd;"
d="M 164.5250,96.8250
162.8250,96.8250
162.8250,95.1250
164.5250,95.1250
Z" /> 
</g>
<g style="fill:#000000; fill-opacity:1.0000; stroke:none;">
<circle cx="166.2150" cy="95.9750" r="0.8500" /> 
</g>
<g style="fill:#000000; fill-opacity:1.0000; stroke:none;">
<circle cx="168.7550" cy="95.9750" r="0.8500" /> 
</g>
<g style="fill:#000000; fill-opacity:1.0000; stroke:none;">
<circle cx="171.2950" cy="95.9750" r="0.8500" /> 
</g>
<g style="fill:#000000; fill-opacity:1.0000; stroke:none;">
<circle cx="173.8350" cy="95.9750" r="0.8500" /> 
</g>
<g style="fill:#000000; fill-opacity:1.0000; stroke:none;">
<circle cx="176.3750" cy="95.9750" r="0.8500" /> 
</g>
<g style="fill:#000000; fill-opacity:1.0000; stroke:none;">
<circle cx="161.1100" cy="91.0000" r="0.8000" /> 
</g>
<g style="fill:#000000; fill-opacity:1.0000; stroke:none;">
<circle cx="153.4900" cy="91.0000" r="0.8000" /> 
</g>
<g style="fill:#000000; fill-opacity:1.0000; stroke:none;">
<circle cx="161.1300" cy="122.0000" r="0.8000" /> 
</g>
<g style="fill:#000000; fill-opacity:1.0000; stroke:none;">
<circle cx="161.1300" cy="127.0000" r="0.8000" /> 
</g>
<g style="fill:#000000; fill-opacity:1.0000; stroke:none;">
<circle cx="128.1900" cy="112.4600" r="0.6985" /> 
</g>
<g style="fill:#000000; fill-opacity:1.0000; stroke:none;">
<circle cx="135.8100" cy="112.4600" r="0.6985" /> 
</g>
<g style="fill:#000000; fill-opacity:1.0000; stroke:none;">
<circle cx="128.1900" cy="117.5400" r="0.6985" /> 
</g>
<g style="fill:#000000; fill-opacity:1.0000; stroke:none;">
<circle cx="135.8100" cy="117.5400" r="0.6985" /> 
<path style="fill:#000000; fill-opacity:1.0000; stroke:none;fill-rule:evenodd;"
d="M 125.3225,127.9375
125.3225,124.4375
128.8225,124.4375
128.8225,127.9375
Z" /> 
<path style="fill:#000000; fill-opacity:1.0000; stroke:none;fill-rule:evenodd;"
d="M 119.5725,125.1875
119.5880,125.0358
119.6428,124.8705
119.7342,124.7223
119.8573,124.5992
120.0055,124.5078
120.1708,124.4530
120.3225,124.4375
121.8225,124.4375
121.9742,124.4530
122.1395,124.5078
122.2877,124.5992
122.4108,124.7223
122.5022,124.8705
122.5570,125.0358
122.5725,125.1875
122.5725,127.1875
122.5570,127.3392
122.5022,127.5045
122.4108,127.6527
122.2877,127.7758
122.1395,127.8672
121.9742,127.9220
121.8225,127.9375
120.3225,127.9375
120.1708,127.9220
120.0055,127.8672
119.8573,127.7758
119.7342,127.6527
119.6428,127.5045
119.5880,127.3392
119.5725,127.1875
Z" /> 
<path style="fill:#000000; fill-opacity:1.0000; stroke:none;fill-rule:evenodd;"
d="M 122.3225,130.0125
122.3305,129.8944
122.3762,129.7108
122.4602,129.5413
122.5788,129.3938
122.7263,129.2752
122.8958,129.1912
123.0794,129.1455
123.1975,129.1375
124.9475,129.1375
125.0656,129.1455
125.2492,129.1912
125.4187,129.2752
125.5662,129.3938
125.6848,129.5413
125.7688,129.7108
125.8145,129.8944
125.8225,130.0125
125.8225,131.7625
125.8145,131.8806
125.7688,132.0642
125.6848,132.2337
125.5662,132.3812
125.4187,132.4998
125.2492,132.5838
125.0656,132.6295
124.9475,132.6375
123.1975,132.6375
123.0794,132.6295
122.8958,132.5838
122.7263,132.4998
122.5788,132.3812
122.4602,132.2337
122.3762,132.0642
122.3305,131.8806
122.3225,131.7625
Z" /> 
<path style="fill:#000000; fill-opacity:1.0000; stroke:none;fill-rule:evenodd;"
d="M 140.4750,128.8250
138.7750,128.8250
138.7750,127.1250
140.4750,127.1250
Z" /> 
</g>
<g style="fill:#000000; fill-opacity:1.0000; stroke:none;">
<circle cx="142.1650" cy="127.9750" r="0.8500" /> 
</g>
<g style="fill:#000000; fill-opacity:1.0000; stroke:none;">
<circle cx="144.7050" cy="127.9750" r="0.8500" /> 
</g>
<g style="fill:#000000; fill-opacity:1.0000; stroke:none;">
<circle cx="147.2450" cy="127.9750" r="0.8500" /> 
</g>
<g style="fill:#000000; fill-opacity:1.0000; stroke:none;">
<circle cx="149.7850" cy="127.9750" r="0.8500" /> 
</g>
<g style="fill:#000000; fill-opacity:1.0000; stroke:none;">
<circle cx="152.3250" cy="127.9750" r="0.8500" /> 
</g>
<g style="fill:#000000; fill-opacity:1.0000; stroke:none;">
<circle cx="154.8650" cy="127.9750" r="0.8500" /> 
</g>
<g style="fill:#000000; fill-opacity:1.0000; stroke:none;">
<circle cx="157.4050" cy="127.9750" r="0.8500" /> 
</g>
<g style="fill:#000000; fill-opacity:1.0000; stroke:none;">
<circle cx="148.5500" cy="117.0000" r="0.8000" /> 
</g>
<g style="fill:#000000; fill-opacity:1.0000; stroke:none;">
<circle cx="140.9300" cy="117.0000" r="0.8000" /> 
<path style="fill:#000000; fill-opacity:1.0000; stroke:none;fill-rule:evenodd;"
d="M 124.8500,101.4925
122.8500,101.4925
122.8500,99.5875
124.8500,99.5875
Z" /> 
</g>
<g style="fill:none; 
stroke:#000000; stroke-width:1.9050; stroke-opacity:1; 
stroke-linecap:round; stroke-linejoin:round;">
<path d="M123.8025 98.0000
L123.8975 98.0000
" />
<path d="M123.8025 95.4600
L123.8975 95.4600
" />
<path style="fill:#000000; fill-opacity:1.0000; stroke:none;fill-rule:evenodd;"
d="M 141.7700,96.8500
140.0700,96.8500
140.0700,95.1500
141.7700,95.1500
Z" /> 
</g>
<g style="fill:#000000; fill-opacity:1.0000; stroke:none;">
<circle cx="143.4600" cy="96.0000" r="0.8500" /> 
</g>
<g style="fill:#000000; fill-opacity:1.0000; stroke:none;">
<circle cx="146.0000" cy="96.0000" r="0.8500" /> 
</g>
<g style="fill:#000000; fill-opacity:1.0000; stroke:none;">
<circle cx="148.5400" cy="96.0000" r="0.8500" /> 
</g>
<g style="fill:#000000; fill-opacity:1.0000; stroke:none;">
<circle cx="151.0800" cy="96.0000" r="0.8500" /> 
</g>
<g style="fill:#000000; fill-opacity:1.0000; stroke:none;">
<circle cx="153.6200" cy="96.0000" r="0.8500" /> 
</g>
<g style="fill:#000000; fill-opacity:1.0000; stroke:none;">
<circle cx="166.1300" cy="122.0000" r="0.8000" /> 
</g>
<g style="fill:#000000; fill-opacity:1.0000; stroke:none;">
<circle cx="166.1300" cy="127.0000" r="0.8000" /> 
</g>
<g style="fill:#000000; fill-opacity:1.0000; stroke:none;">
<circle cx="129.0000" cy="93.1900" r="0.8000" /> 
</g>
<g style="fill:#000000; fill-opacity:1.0000; stroke:none;">
<circle cx="129.0000" cy="100.8100" r="0.8000" /> 
</g>
<g style="fill:#000000; fill-opacity:1.0000; stroke:none;">
<circle cx="124.4000" cy="106.0000" r="0.8000" /> 
</g>
<g style="fill:#000000; fill-opacity:1.0000; stroke:none;">
<circle cx="119.4000" cy="106.0000" r="0.8000" /> 
</g>
<g style="fill:#000000; fill-opacity:1.0000; stroke:none;">
<circle cx="117.9000" cy="102.0000" r="0.8000" /> 
</g>
<g style="fill:#000000; fill-opacity:1.0000; stroke:none;">
<circle cx="115.9000" cy="102.0000" r="0.8000" /> 
</g>
<g style="fill:#000000; fill-opacity:1.0000; stroke:none;">
<circle cx="166.1300" cy="116.5000" r="0.7500" /> 
</g>
<g style="fill:#000000; fill-opacity:1.0000; stroke:none;">
<circle cx="161.2500" cy="116.5000" r="0.7500" /> 
<path style="fill:#000000; fill-opacity:1.0000; stroke:none;fill-rule:evenodd;"
d="M 183.4800,127.1500
185.1800,127.1500
185.1800,128.8500
183.4800,128.8500
Z" /> 
</g>
<g style="fill:#000000; fill-opacity:1.0000; stroke:none;">
<circle cx="181.7900" cy="128.0000" r="0.8500" /> 
</g>
<g style="fill:#000000; fill-opacity:1.0000; stroke:none;">
<circle cx="179.2500" cy="128.0000" r="0.8500" /> 
</g>
<g style="fill:#000000; fill-opacity:1.0000; stroke:none;">
<circle cx="176.7100" cy="128.0000" r="0.8500" /> 
</g>
<g style="fill:#000000; fill-opacity:1.0000; stroke:none;">
<circle cx="174.1700" cy="128.0000" r="0.8500" /> 
</g>
<g style="fill:#000000; fill-opacity:1.0000; stroke:none;">
<circle cx="171.6300" cy="128.0000" r="0.8500" /> 
<path style="fill:#000000; fill-opacity:1.0000; stroke:none;fill-rule:evenodd;"
d="M 130.9000,107.9000
129.1000,107.9000
129.1000,106.1000
130.9000,106.1000
Z" /> 
</g>
<g style="fill:#000000; fill-opacity:1.0000; stroke:none;">
<circle cx="130.0000" cy="104.4600" r="0.9000" /> 
</g>
<g style="fill:#000000; fill-opacity:1.0000; stroke:none;">
<circle cx="124.4000" cy="90.0000" r="0.8000" /> 
</g>
<g style="fill:#000000; fill-opacity:1.0000; stroke:none;">
<circle cx="119.4000" cy="90.0000" r="0.8000" /> 
<path style="fill:#000000; fill-opacity:1.0000; stroke:none;fill-rule:evenodd;"
d="M 183.4900,112.7100
183.4900,111.0100
185.1900,111.0100
185.1900,112.7100
Z" /> 
</g>
<g style="fill:#000000; fill-opacity:1.0000; stroke:none;">
<circle cx="181.8000" cy="111.8600" r="0.8500" /> 
</g>
<g style="fill:#000000; fill-opacity:1.0000; stroke:none;">
<circle cx="184.3400" cy="114.4000" r="0.8500" /> 
</g>
<g style="fill:#000000; fill-opacity:1.0000; stroke:none;">
<circle cx="181.8000" cy="114.4000" r="0.8500" /> 
</g>
<g style="fill:#000000; fill-opacity:1.0000; stroke:none;">
<circle cx="184.3400" cy="116.9400" r="0.8500" /> 
</g>
<g style="fill:#000000; fill-opacity:1.0000; stroke:none;">
<circle cx="181.8000" cy="116.9400" r="0.8500" /> 
</g>
<g style="fill:#000000; fill-opacity:1.0000; stroke:none;">
<circle cx="184.3400" cy="119.4800" r="0.8500" /> 
</g>
<g style="fill:#000000; fill-opacity:1.0000; stroke:none;">
<circle cx="181.8000" cy="119.4800" r="0.8500" /> 
</g>
<g style="fill:#000000; fill-opacity:1.0000; stroke:none;">
<circle cx="184.3400" cy="122.0200" r="0.8500" /> 
</g>
<g style="fill:#000000; fill-opacity:1.0000; stroke:none;">
<circle cx="181.8000" cy="122.0200" r="0.8500" /> 
<path style="fill:#000000; fill-opacity:1.0000; stroke:none;fill-rule:evenodd;"
d="M 119.4500,110.9200
119.5457,110.9390
119.6268,110.9932
119.6810,111.0743
119.7000,111.1700
119.7000,113.2700
119.6810,113.3657
119.6268,113.4468
119.5457,113.5010
119.4500,113.5200
117.3500,113.5200
117.2543,113.5010
117.1732,113.4468
117.1190,113.3657
117.1000,113.2700
117.1000,111.1700
117.1190,111.0743
117.1732,110.9932
117.2543,110.9390
117.3500,110.9200
Z" /> 
</g>
<g style="fill:#000000; fill-opacity:1.0000; stroke:none;">
<circle cx="118.4000" cy="117.3000" r="1.3000" /> 
</g>
<g style="fill:#000000; fill-opacity:1.0000; stroke:none;">
<circle cx="117.9000" cy="94.0000" r="0.8000" /> 
</g>
<g style="fill:#000000; fill-opacity:1.0000; stroke:none;">
<circle cx="115.9000" cy="94.0000" r="0.8000" /> 
<path style="fill:#000000; fill-opacity:1.0000; stroke:none;fill-rule:evenodd;"
d="M 140.3700,111.8000
140.2743,111.7810
140.1932,111.7268
140.1390,111.6457
140.1200,111.5500
140.1200,110.4500
140.1390,110.3543
140.1932,110.2732
140.2743,110.2190
140.3700,110.2000
141.4700,110.2000
141.5657,110.2190
141.6468,110.2732
141.7010,110.3543
141.7200,110.4500
141.7200,111.5500
141.7010,111.6457
141.6468,111.7268
141.5657,111.7810
141.4700,111.8000
Z" /> 
</g>
<g style="fill:#000000; fill-opacity:1.0000; stroke:none;">
<circle cx="143.4600" cy="111.0000" r="0.8000" /> 
</g>
<g style="fill:#000000; fill-opacity:1.0000; stroke:none;">
<circle cx="146.0000" cy="111.0000" r="0.8000" /> 
</g>
<g style="fill:#000000; fill-opacity:1.0000; stroke:none;">
<circle cx="148.5400" cy="111.0000" r="0.8000" /> 
</g>
<g style="fill:#000000; fill-opacity:1.0000; stroke:none;">
<circle cx="151.0800" cy="111.0000" r="0.8000" /> 
</g>
<g style="fill:#000000; fill-opacity:1.0000; stroke:none;">
<circle cx="153.6200" cy="111.0000" r="0.8000" /> 
</g>
<g style="fill:#000000; fill-opacity:1.0000; stroke:none;">
<circle cx="156.1600" cy="111.0000" r="0.8000" /> 
</g>
<g style="fill:#000000; fill-opacity:1.0000; stroke:none;">
<circle cx="158.7000" cy="111.0000" r="0.8000" /> 
</g>
<g style="fill:#000000; fill-opacity:1.0000; stroke:none;">
<circle cx="161.2400" cy="111.0000" r="0.8000" /> 
</g>
<g style="fill:#000000; fill-opacity:1.0000; stroke:none;">
<circle cx="163.7800" cy="111.0000" r="0.8000" /> 
</g>
<g style="fill:#000000; fill-opacity:1.0000; stroke:none;">
<circle cx="166.3200" cy="111.0000" r="0.8000" /> 
</g>
<g style="fill:#000000; fill-opacity:1.0000; stroke:none;">
<circle cx="168.8600" cy="111.0000" r="0.8000" /> 
</g>
<g style="fill:#000000; fill-opacity:1.0000; stroke:none;">
<circle cx="171.4000" cy="111.0000" r="0.8000" /> 
</g>
<g style="fill:#000000; fill-opacity:1.0000; stroke:none;">
<circle cx="173.9400" cy="111.0000" r="0.8000" /> 
</g>
<g style="fill:#000000; fill-opacity:1.0000; stroke:none;">
<circle cx="173.9400" cy="103.3800" r="0.8000" /> 
</g>
<g style="fill:#000000; fill-opacity:1.0000; stroke:none;">
<circle cx="171.4000" cy="103.3800" r="0.8000" /> 
</g>
<g style="fill:#000000; fill-opacity:1.0000; stroke:none;">
<circle cx="168.8600" cy="103.3800" r="0.8000" /> 
</g>
<g style="fill:#000000; fill-opacity:1.0000; stroke:none;">
<circle cx="166.3200" cy="103.3800" r="0.8000" /> 
</g>
<g style="fill:#000000; fill-opacity:1.0000; stroke:none;">
<circle cx="163.7800" cy="103.3800" r="0.8000" /> 
</g>
<g style="fill:#000000; fill-opacity:1.0000; stroke:none;">
<circle cx="161.2400" cy="103.3800" r="0.8000" /> 
</g>
<g style="fill:#000000; fill-opacity:1.0000; stroke:none;">
<circle cx="158.7000" cy="103.3800" r="0.8000" /> 
</g>
<g style="fill:#000000; fill-opacity:1.0000; stroke:none;">
<circle cx="156.1600" cy="103.3800" r="0.8000" /> 
</g>
<g style="fill:#000000; fill-opacity:1.0000; stroke:none;">
<circle cx="153.6200" cy="103.3800" r="0.8000" /> 
</g>
<g style="fill:#000000; fill-opacity:1.0000; stroke:none;">
<circle cx="151.0800" cy="103.3800" r="0.8000" /> 
</g>
<g style="fill:#000000; fill-opacity:1.0000; stroke:none;">
<circle cx="148.5400" cy="103.3800" r="0.8000" /> 
</g>
<g style="fill:#000000; fill-opacity:1.0000; stroke:none;">
<circle cx="146.0000" cy="103.3800" r="0.8000" /> 
</g>
<g style="fill:#000000; fill-opacity:1.0000; stroke:none;">
<circle cx="143.4600" cy="103.3800" r="0.8000" /> 
</g>
<g style="fill:#000000; fill-opacity:1.0000; stroke:none;">
<circle cx="140.9200" cy="103.3800" r="0.8000" /> 
<path style="fill:#000000; fill-opacity:1.0000; stroke:none;fill-rule:evenodd;"
d="M 156.4250,99.2000
156.4250,97.4000
158.2250,97.4000
158.2250,99.2000
Z" /> 
</g>
<g style="fill:#000000; fill-opacity:1.0000; stroke:none;">
<circle cx="159.8650" cy="98.3000" r="0.9000" /> 
</g>
<g style="fill:#000000; fill-opacity:1.0000; stroke:none;">
<circle cx="176.0000" cy="124.7500" r="0.8000" /> 
</g>
<g style="fill:#000000; fill-opacity:1.0000; stroke:none;">
<circle cx="157.5000" cy="122.2500" r="0.8000" /> 
</g>
<g style="fill:#000000; fill-opacity:1.0000; stroke:none;">
<circle cx="187.0000" cy="117.0000" r="0.8000" /> 
</g>
<g style="fill:#000000; fill-opacity:1.0000; stroke:none;">
<circle cx="174.0000" cy="107.0000" r="0.8000" /> 
</g>
<g style="fill:#000000; fill-opacity:1.0000; stroke:none;">
<circle cx="184.4000" cy="125.0000" r="0.8000" /> 
</g>
<g style="fill:none; 
stroke:#000000; stroke-width:1.0000; stroke-opacity:1; 
stroke-linecap:round; stroke-linejoin:round;">
<path d="M175.0000 123.7500
L176.0000 124.7500
" />
<path d="M157.5000 122.2500
L159.0000 123.7500
" />
<path d="M159.0000 123.7500
L175.0000 123.7500
" />
</g>
<g style="fill:none; 
stroke:#000000; stroke-width:0.5000; stroke-opacity:1; 
stroke-linecap:round; stroke-linejoin:round;">
<path d="M148.9300 125.0000
L140.9300 117.0000
" />
<path d="M169.2500 126.2500
L168.0000 125.0000
" />
<path d="M186.0000 126.2500
L169.2500 126.2500
" />
<path d="M168.0000 125.0000
L148.9300 125.0000
" />
<path d="M187.0000 117.0000
L187.0000 125.2500
" />
<path d="M187.0000 125.2500
L186.0000 126.2500
" />
<path d="M174.0000 107.0000
L177.2000 110.2000
" />
<path d="M178.7000 125.1000
L184.4000 125.1000
" />
<path d="M177.2000 123.6000
L178.7000 125.1000
" />
<path d="M177.2000 110.2000
L177.2000 123.6000
" />
</g>
<g style="fill:none; 
stroke:#000000; stroke-width:0.0500; stroke-opacity:1; 
stroke-linecap:round; stroke-linejoin:round;">
<path d="M190.0000 133.2000
L190.0000 86.9000
" />
<path d="M190.0000 86.9000
L111.9000 86.9000
" />
<path d="M111.9000 86.9000
L111.9000 133.2000
" />
<path d="M111.9000 133.2000
L190.0000 133.2000
" />
</g> 
</svg>
